<svg width="27" height="27" viewBox="0 0 27 27" fill="none" xmlns="http://www.w3.org/2000/svg">
  <path
    d="M2.7 13.5C2.7 10.6356 3.83785 7.88859 5.86324 5.8632C7.88864 3.83781 10.6357 2.69995 13.5 2.69995C16.3643 2.69995 19.1114 3.83781 21.1368 5.8632C23.1621 7.88859 24.3 10.6356 24.3 13.5C24.3 16.3643 23.1621 19.1113 21.1368 21.1367C19.1114 23.1621 16.3643 24.3 13.5 24.3C10.6357 24.3 7.88864 23.1621 5.86324 21.1367C3.83785 19.1113 2.7 16.3643 2.7 13.5ZM16.1433 8.36995C16.182 8.28827 16.2039 8.19964 16.2077 8.10933C16.2115 8.01903 16.1971 7.92888 16.1654 7.84423C16.1337 7.75958 16.0854 7.68216 16.0232 7.61656C15.961 7.55097 15.8863 7.49853 15.8034 7.46235C15.7206 7.42618 15.6313 7.40701 15.541 7.40599C15.4506 7.40496 15.3609 7.4221 15.2773 7.45639C15.1936 7.49067 15.1177 7.5414 15.0541 7.60557C14.9904 7.66974 14.9403 7.74604 14.9067 7.82995L10.1817 18.63C10.143 18.7116 10.1211 18.8003 10.1173 18.8906C10.1135 18.9809 10.1279 19.071 10.1596 19.1557C10.1913 19.2403 10.2396 19.3177 10.3018 19.3833C10.364 19.4489 10.4387 19.5014 10.5216 19.5375C10.6044 19.5737 10.6937 19.5929 10.784 19.5939C10.8744 19.5949 10.9641 19.5778 11.0477 19.5435C11.1314 19.5092 11.2073 19.4585 11.2709 19.3943C11.3346 19.3302 11.3847 19.2539 11.4183 19.17L16.1433 8.36995ZM9.2529 10.3221C9.1902 10.2592 9.11571 10.2093 9.0337 10.1753C8.9517 10.1413 8.86378 10.1237 8.775 10.1237C8.68621 10.1237 8.5983 10.1413 8.51629 10.1753C8.43429 10.2093 8.3598 10.2592 8.2971 10.3221L5.5971 13.0221C5.53424 13.0848 5.48436 13.1592 5.45033 13.2412C5.41631 13.3233 5.39879 13.4112 5.39879 13.5C5.39879 13.5887 5.41631 13.6767 5.45033 13.7587C5.48436 13.8407 5.53424 13.9151 5.5971 13.9779L8.2971 16.6779C8.42384 16.8046 8.59575 16.8758 8.775 16.8758C8.95424 16.8758 9.12615 16.8046 9.2529 16.6779C9.37964 16.5511 9.45085 16.3792 9.45085 16.2C9.45085 16.0207 9.37964 15.8488 9.2529 15.7221L7.02945 13.5L9.2529 11.2779C9.31576 11.2151 9.36563 11.1407 9.39966 11.0587C9.43369 10.9767 9.4512 10.8887 9.4512 10.8C9.4512 10.7112 9.43369 10.6233 9.39966 10.5412C9.36563 10.4592 9.31576 10.3848 9.2529 10.3221ZM17.7471 11.2779L19.9705 13.5L17.7471 15.7221C17.6203 15.8488 17.5491 16.0207 17.5491 16.2C17.5491 16.3792 17.6203 16.5511 17.7471 16.6779C17.8738 16.8046 18.0457 16.8758 18.225 16.8758C18.4042 16.8758 18.5761 16.8046 18.7029 16.6779L21.4029 13.9779C21.4658 13.9151 21.5156 13.8407 21.5497 13.7587C21.5837 13.6767 21.6012 13.5887 21.6012 13.5C21.6012 13.4112 21.5837 13.3233 21.5497 13.2412C21.5156 13.1592 21.4658 13.0848 21.4029 13.0221L18.7029 10.3221C18.5761 10.1953 18.4042 10.1241 18.225 10.1241C18.0457 10.1241 17.8738 10.1953 17.7471 10.3221C17.6203 10.4488 17.5491 10.6207 17.5491 10.8C17.5491 10.9792 17.6203 11.1511 17.7471 11.2779Z"
    fill="black" fill-opacity="0.8" />
</svg>