<svg width="50" height="50" viewBox="0 0 50 50" fill="none" xmlns="http://www.w3.org/2000/svg">
<path d="M38.2812 0H11.7188C5.24666 0 0 5.24666 0 11.7188V38.2812C0 44.7533 5.24666 50 11.7188 50H38.2812C44.7533 50 50 44.7533 50 38.2812V11.7188C50 5.24666 44.7533 0 38.2812 0Z" fill="#5865F2"/>
<mask id="mask0_78_57" style="mask-type:luminance" maskUnits="userSpaceOnUse" x="5" y="9" width="40" height="32">
<path d="M5.46875 9.96094H44.5312V40.2207H5.46875V9.96094Z" fill="white"/>
</mask>
<g mask="url(#mask0_78_57)">
<path d="M38.5369 12.6557C36.0044 11.4932 33.3318 10.6642 30.5859 10.1895C30.561 10.1849 30.5352 10.1883 30.5123 10.1991C30.4893 10.21 30.4704 10.2278 30.4582 10.2501C30.1148 10.8606 29.7344 11.6575 29.4682 12.2837C26.4656 11.834 23.4787 11.834 20.5379 12.2837C20.2715 11.6434 19.8773 10.8606 19.5324 10.2501C19.5196 10.2283 19.5006 10.2109 19.4778 10.2C19.455 10.1892 19.4294 10.1856 19.4045 10.1895C16.6584 10.6632 13.9856 11.4923 11.4535 12.6557C11.4318 12.6649 11.4135 12.6806 11.4012 12.7006C6.3371 20.2663 4.94999 27.646 5.63046 34.9342C5.63235 34.9521 5.63783 34.9694 5.64655 34.9851C5.65528 35.0008 5.66707 35.0146 5.68124 35.0256C9.02226 37.4794 12.2588 38.969 15.4351 39.9563C15.4599 39.9637 15.4862 39.9633 15.5107 39.9553C15.5352 39.9473 15.5567 39.932 15.5723 39.9114C16.3236 38.8852 16.9933 37.8034 17.5678 36.6657C17.5757 36.6501 17.5802 36.633 17.581 36.6156C17.5818 36.5981 17.579 36.5807 17.5726 36.5644C17.5661 36.5482 17.5564 36.5334 17.5439 36.5212C17.5314 36.509 17.5164 36.4996 17.5 36.4936C16.4375 36.0905 15.426 35.5993 14.4529 35.0413C14.4352 35.0308 14.4203 35.0162 14.4096 34.9986C14.3989 34.9811 14.3926 34.9612 14.3914 34.9406C14.3902 34.9201 14.394 34.8996 14.4026 34.8809C14.4112 34.8622 14.4242 34.8459 14.4406 34.8335C14.6459 34.68 14.8476 34.5219 15.0457 34.3592C15.063 34.3449 15.084 34.3357 15.1063 34.3327C15.1286 34.3296 15.1513 34.3329 15.1719 34.3421C21.5648 37.2608 28.4857 37.2608 34.8031 34.3421C34.8237 34.3323 34.8467 34.3286 34.8693 34.3313C34.892 34.3341 34.9134 34.3432 34.931 34.3577C35.1293 34.5213 35.3316 34.6799 35.5377 34.8335C35.5541 34.8458 35.5673 34.862 35.576 34.8806C35.5847 34.8992 35.5887 34.9197 35.5876 34.9402C35.5866 34.9608 35.5805 34.9807 35.5699 34.9983C35.5593 35.0159 35.5446 35.0307 35.5269 35.0413C34.5533 35.6097 33.5335 36.0951 32.4783 36.4921C32.4619 36.4983 32.447 36.508 32.4346 36.5204C32.4222 36.5328 32.4126 36.5477 32.4064 36.5641C32.4001 36.5804 32.3974 36.598 32.3984 36.6155C32.3994 36.633 32.404 36.6501 32.4121 36.6657C32.9965 37.7944 33.6628 38.8786 34.4058 39.9098C34.421 39.9309 34.4423 39.9468 34.4669 39.9551C34.4915 39.9634 34.5181 39.9639 34.543 39.9563C37.7348 38.969 40.9713 37.4794 44.3125 35.0256C44.3268 35.0151 44.3387 35.0016 44.3475 34.9862C44.3562 34.9707 44.3616 34.9535 44.3633 34.9358C45.1777 26.5098 42.999 19.1905 38.5877 12.7022C38.5769 12.6811 38.5589 12.6646 38.5369 12.6557ZM18.5225 30.4965C16.5976 30.4965 15.0117 28.7296 15.0117 26.5594C15.0117 24.3893 16.567 22.6223 18.5225 22.6223C20.4932 22.6223 22.0637 24.4049 22.0328 26.5594C22.0328 28.7296 20.4779 30.4965 18.5225 30.4965ZM31.5021 30.4965C29.5773 30.4965 27.9916 28.7296 27.9916 26.5594C27.9916 24.3893 29.5467 22.6223 31.5021 22.6223C33.4728 22.6223 35.0433 24.4049 35.0127 26.5594C35.0127 28.7296 33.4728 30.4965 31.5021 30.4965Z" fill="white"/>
</g>
</svg>
