<svg width="131" height="178" viewBox="0 0 131 178" fill="none" xmlns="http://www.w3.org/2000/svg">
<g clip-path="url(#clip0_277_367)">
<path d="M100.297 0H30.7031C13.7463 0 0 13.7463 0 30.7031V100.297C0 117.254 13.7463 131 30.7031 131H100.297C117.254 131 131 117.254 131 100.297V30.7031C131 13.7463 117.254 0 100.297 0Z" fill="#242938"/>
<mask id="mask0_277_367" style="mask-type:luminance" maskUnits="userSpaceOnUse" x="31" y="14" width="69" height="103">
<path d="M31.2148 14.3281H99.4577V116.672H31.2148V14.3281Z" fill="white"/>
</mask>
<g mask="url(#mask0_277_367)">
<path d="M48.2791 116.672C57.6948 116.672 65.3363 109.03 65.3363 99.6148V82.5571H48.2791C38.8635 82.5571 31.2215 90.1991 31.2215 99.6148C31.2215 109.03 38.8635 116.672 48.2791 116.672Z" fill="#0ACF83"/>
<path d="M31.2215 65.5C31.2215 56.0844 38.8635 48.4429 48.2791 48.4429H65.3363V82.5571H48.2791C38.8635 82.5571 31.2215 74.9156 31.2215 65.5Z" fill="#A259FF"/>
<path d="M31.2215 31.3852C31.2215 21.9696 38.8635 14.3281 48.2791 14.3281H65.3363V48.4429H48.2791C38.8635 48.4429 31.2215 40.8009 31.2215 31.3852Z" fill="#F24E1E"/>
<path d="M65.3362 14.3281H82.3934C91.809 14.3281 99.451 21.9696 99.451 31.3852C99.451 40.8009 91.809 48.4429 82.3934 48.4429H65.3362V14.3281Z" fill="#FF7262"/>
<path d="M99.451 65.5C99.451 74.9156 91.809 82.5571 82.3934 82.5571C72.9777 82.5571 65.3362 74.9156 65.3362 65.5C65.3362 56.0844 72.9777 48.4429 82.3934 48.4429C91.809 48.4429 99.451 56.0844 99.451 65.5Z" fill="#1ABCFE"/>
</g>
</g>
<path d="M33 172C32.776 172 32.592 171.928 32.448 171.784C32.32 171.64 32.256 171.472 32.256 171.28V155.92C32.256 155.728 32.328 155.56 32.472 155.416C32.616 155.272 32.784 155.2 32.976 155.2H41.712C41.92 155.2 42.088 155.272 42.216 155.416C42.36 155.544 42.432 155.712 42.432 155.92C42.432 156.112 42.36 156.28 42.216 156.424C42.088 156.552 41.92 156.616 41.712 156.616H33.624L33.72 156.472V162.856L33.6 162.64H40.632C40.84 162.64 41.008 162.712 41.136 162.856C41.28 162.984 41.352 163.144 41.352 163.336C41.352 163.544 41.28 163.712 41.136 163.84C41.008 163.968 40.84 164.032 40.632 164.032H33.552L33.72 163.84V171.28C33.72 171.472 33.648 171.64 33.504 171.784C33.376 171.928 33.208 172 33 172ZM46.8818 171.28C46.8818 171.472 46.8098 171.64 46.6658 171.784C46.5218 171.928 46.3538 172 46.1618 172C45.9538 172 45.7778 171.928 45.6338 171.784C45.5058 171.64 45.4418 171.472 45.4418 171.28V160.24C45.4418 160.048 45.5058 159.88 45.6338 159.736C45.7778 159.592 45.9538 159.52 46.1618 159.52C46.3698 159.52 46.5378 159.592 46.6658 159.736C46.8098 159.88 46.8818 160.048 46.8818 160.24V171.28ZM46.1618 157.912C45.8258 157.912 45.5698 157.84 45.3938 157.696C45.2338 157.536 45.1538 157.312 45.1538 157.024V156.784C45.1538 156.496 45.2418 156.28 45.4178 156.136C45.6098 155.976 45.8658 155.896 46.1858 155.896C46.4898 155.896 46.7218 155.976 46.8818 156.136C47.0578 156.28 47.1458 156.496 47.1458 156.784V157.024C47.1458 157.312 47.0578 157.536 46.8818 157.696C46.7218 157.84 46.4818 157.912 46.1618 157.912ZM55.7346 159.448C56.4546 159.448 57.1186 159.576 57.7266 159.832C58.3346 160.072 58.8626 160.392 59.3106 160.792C59.7746 161.176 60.1346 161.592 60.3906 162.04C60.6466 162.472 60.7746 162.888 60.7746 163.288L60.3666 162.712V160.48C60.3666 160.272 60.4306 160.096 60.5586 159.952C60.7026 159.808 60.8786 159.736 61.0866 159.736C61.3106 159.736 61.4866 159.808 61.6146 159.952C61.7426 160.096 61.8066 160.272 61.8066 160.48V170.872C61.8066 172.152 61.5426 173.232 61.0146 174.112C60.4866 174.992 59.7666 175.656 58.8546 176.104C57.9586 176.568 56.9346 176.8 55.7826 176.8C55.2226 176.8 54.6306 176.728 54.0066 176.584C53.3986 176.44 52.8706 176.256 52.4226 176.032C51.9906 175.808 51.7506 175.576 51.7026 175.336C51.5746 175.192 51.5106 175.048 51.5106 174.904C51.5266 174.776 51.5986 174.664 51.7266 174.568C51.8866 174.456 52.0546 174.44 52.2306 174.52C52.4066 174.616 52.6706 174.736 53.0226 174.88C53.1826 174.928 53.3986 175 53.6706 175.096C53.9426 175.192 54.2626 175.272 54.6306 175.336C55.0146 175.416 55.4146 175.456 55.8306 175.456C57.2706 175.456 58.3826 175.04 59.1666 174.208C59.9666 173.392 60.3666 172.312 60.3666 170.968V168.664L60.6306 168.736C60.4866 169.312 60.2466 169.816 59.9106 170.248C59.5906 170.68 59.2066 171.048 58.7586 171.352C58.3106 171.64 57.8226 171.856 57.2946 172C56.7826 172.16 56.2706 172.24 55.7586 172.24C54.6546 172.24 53.6626 171.96 52.7826 171.4C51.9026 170.84 51.1986 170.08 50.6706 169.12C50.1586 168.16 49.9026 167.064 49.9026 165.832C49.9026 164.616 50.1586 163.528 50.6706 162.568C51.1986 161.592 51.8946 160.832 52.7586 160.288C53.6386 159.728 54.6306 159.448 55.7346 159.448ZM55.9026 160.792C55.0226 160.792 54.2306 161.016 53.5266 161.464C52.8386 161.896 52.2946 162.496 51.8946 163.264C51.5106 164.016 51.3186 164.872 51.3186 165.832C51.3186 166.792 51.5106 167.656 51.8946 168.424C52.2946 169.192 52.8386 169.8 53.5266 170.248C54.2306 170.68 55.0226 170.896 55.9026 170.896C56.7826 170.896 57.5666 170.68 58.2546 170.248C58.9426 169.816 59.4866 169.224 59.8866 168.472C60.2866 167.704 60.4866 166.824 60.4866 165.832C60.4866 164.84 60.2866 163.968 59.8866 163.216C59.4866 162.448 58.9426 161.856 58.2546 161.44C57.5666 161.008 56.7826 160.792 55.9026 160.792ZM71.1191 159.64C72.1111 159.64 72.9591 159.904 73.6631 160.432C74.3671 160.944 74.8471 161.712 75.1031 162.736L74.7671 162.832L74.9111 162.4C75.1191 161.92 75.4631 161.472 75.9431 161.056C76.4391 160.624 76.9991 160.28 77.6231 160.024C78.2471 159.768 78.8791 159.64 79.5191 159.64C80.5271 159.64 81.3351 159.856 81.9431 160.288C82.5671 160.72 83.0151 161.304 83.2871 162.04C83.5751 162.76 83.7191 163.576 83.7191 164.488V171.28C83.7191 171.472 83.6471 171.64 83.5031 171.784C83.3751 171.928 83.2071 172 82.9991 172C82.7911 172 82.6151 171.928 82.4711 171.784C82.3431 171.64 82.2791 171.472 82.2791 171.28V164.56C82.2791 163.904 82.1751 163.304 81.9671 162.76C81.7591 162.216 81.4311 161.784 80.9831 161.464C80.5351 161.144 79.9351 160.984 79.1831 160.984C78.5271 160.984 77.8951 161.144 77.2871 161.464C76.6951 161.784 76.2071 162.216 75.8231 162.76C75.4551 163.304 75.2711 163.904 75.2711 164.56V171.28C75.2711 171.472 75.1991 171.64 75.0551 171.784C74.9271 171.928 74.7591 172 74.5511 172C74.3431 172 74.1671 171.928 74.0231 171.784C73.8951 171.64 73.8311 171.472 73.8311 171.28V164.488C73.8311 163.832 73.7351 163.24 73.5431 162.712C73.3511 162.184 73.0391 161.768 72.6071 161.464C72.1751 161.144 71.5911 160.984 70.8551 160.984C70.1991 160.984 69.5751 161.144 68.9831 161.464C68.4071 161.768 67.9351 162.184 67.5671 162.712C67.2151 163.24 67.0391 163.832 67.0391 164.488V171.28C67.0391 171.472 66.9671 171.64 66.8231 171.784C66.6791 171.928 66.5111 172 66.3191 172C66.0951 172 65.9191 171.928 65.7911 171.784C65.6631 171.64 65.5991 171.472 65.5991 171.28V160.528C65.5991 160.336 65.6631 160.168 65.7911 160.024C65.9351 159.88 66.1111 159.808 66.3191 159.808C66.5271 159.808 66.6951 159.88 66.8231 160.024C66.9671 160.168 67.0391 160.336 67.0391 160.528V162.76L66.3911 163.648C66.4391 163.168 66.5911 162.688 66.8471 162.208C67.1191 161.728 67.4711 161.296 67.9031 160.912C68.3351 160.528 68.8231 160.224 69.3671 160C69.9271 159.76 70.5111 159.64 71.1191 159.64ZM97.5458 159.736C97.7538 159.736 97.9218 159.808 98.0498 159.952C98.1938 160.096 98.2657 160.272 98.2657 160.48V171.28C98.2657 171.472 98.1938 171.64 98.0498 171.784C97.9058 171.928 97.7378 172 97.5458 172C97.3378 172 97.1618 171.928 97.0178 171.784C96.8898 171.64 96.8258 171.472 96.8258 171.28V168.424L97.2338 168.232C97.2338 168.68 97.1058 169.136 96.8498 169.6C96.6098 170.064 96.2738 170.496 95.8418 170.896C95.4098 171.296 94.8978 171.624 94.3058 171.88C93.7298 172.12 93.1058 172.24 92.4338 172.24C91.3458 172.24 90.3698 171.96 89.5058 171.4C88.6578 170.84 87.9858 170.072 87.4898 169.096C87.0098 168.12 86.7698 167.024 86.7698 165.808C86.7698 164.56 87.0178 163.464 87.5138 162.52C88.0098 161.56 88.6818 160.808 89.5298 160.264C90.3778 159.72 91.3378 159.448 92.4098 159.448C93.0978 159.448 93.7378 159.568 94.3298 159.808C94.9378 160.048 95.4658 160.376 95.9138 160.792C96.3618 161.208 96.7058 161.688 96.9458 162.232C97.2018 162.76 97.3298 163.312 97.3298 163.888L96.8258 163.528V160.48C96.8258 160.272 96.8898 160.096 97.0178 159.952C97.1618 159.808 97.3378 159.736 97.5458 159.736ZM92.5538 170.896C93.4018 170.896 94.1538 170.68 94.8098 170.248C95.4658 169.8 95.9778 169.192 96.3458 168.424C96.7298 167.64 96.9218 166.768 96.9218 165.808C96.9218 164.864 96.7298 164.016 96.3458 163.264C95.9778 162.512 95.4658 161.912 94.8098 161.464C94.1538 161.016 93.4018 160.792 92.5538 160.792C91.7218 160.792 90.9698 161.008 90.2978 161.44C89.6418 161.872 89.1218 162.464 88.7378 163.216C88.3698 163.968 88.1858 164.832 88.1858 165.808C88.1858 166.768 88.3698 167.64 88.7378 168.424C89.1218 169.192 89.6418 169.8 90.2978 170.248C90.9538 170.68 91.7058 170.896 92.5538 170.896Z" fill="black"/>
<defs>
<clipPath id="clip0_277_367">
<rect width="131" height="131" fill="white"/>
</clipPath>
</defs>
</svg>
