<svg width="342" height="388" viewBox="0 0 342 388" fill="none" xmlns="http://www.w3.org/2000/svg">
  <g filter="url(#filter0_d_104_608)">
    <rect x="27.0748" y="45.9167" width="287" height="306" rx="20" fill="white" />
  </g>
  <path
    d="M60.512 239.504C60.5013 239.643 60.4427 239.76 60.336 239.856C60.24 239.952 60.128 240 60 240C59.8507 240 59.728 239.952 59.632 239.856C59.5467 239.76 59.504 239.643 59.504 239.504L59.504 229.296C59.504 229.157 59.552 229.04 59.648 228.944C59.744 228.848 59.8667 228.8 60.016 228.8C60.144 228.8 60.256 228.848 60.352 228.944C60.4587 229.04 60.512 229.157 60.512 229.296L60.512 239.504ZM66.8 231.632C67.504 231.632 68.064 231.776 68.48 232.064C68.9067 232.341 69.2107 232.725 69.392 233.216C69.584 233.696 69.68 234.229 69.68 234.816L69.68 239.52C69.68 239.648 69.632 239.76 69.536 239.856C69.44 239.952 69.328 240 69.2 240C69.0507 240 68.9333 239.952 68.848 239.856C68.7627 239.76 68.72 239.648 68.72 239.52L68.72 234.864C68.72 234.437 68.6507 234.048 68.512 233.696C68.3733 233.344 68.144 233.061 67.824 232.848C67.5147 232.635 67.104 232.528 66.592 232.528C66.1333 232.528 65.696 232.635 65.28 232.848C64.8747 233.061 64.544 233.344 64.288 233.696C64.032 234.048 63.904 234.437 63.904 234.864L63.904 239.52C63.904 239.648 63.856 239.76 63.76 239.856C63.664 239.952 63.552 240 63.424 240C63.2747 240 63.1573 239.952 63.072 239.856C62.9867 239.76 62.944 239.648 62.944 239.52L62.944 232.352C62.944 232.224 62.9867 232.112 63.072 232.016C63.168 231.92 63.2853 231.872 63.424 231.872C63.5627 231.872 63.6747 231.92 63.76 232.016C63.856 232.112 63.904 232.224 63.904 232.352L63.904 233.696L63.536 234.272C63.5573 233.931 63.664 233.605 63.856 233.296C64.0587 232.976 64.3147 232.693 64.624 232.448C64.9333 232.192 65.2747 231.995 65.648 231.856C66.032 231.707 66.416 231.632 66.8 231.632ZM71.41 238.704C71.3247 238.576 71.282 238.453 71.282 238.336C71.2927 238.208 71.362 238.107 71.49 238.032C71.5753 237.957 71.6713 237.925 71.778 237.936C71.8953 237.947 72.002 238 72.098 238.096C72.386 238.469 72.7327 238.773 73.138 239.008C73.554 239.232 74.0447 239.344 74.61 239.344C74.9087 239.344 75.202 239.296 75.49 239.2C75.7887 239.093 76.034 238.939 76.226 238.736C76.418 238.523 76.514 238.256 76.514 237.936C76.514 237.605 76.418 237.339 76.226 237.136C76.034 236.933 75.7833 236.773 75.474 236.656C75.1753 236.539 74.8553 236.437 74.514 236.352C74.1513 236.256 73.7993 236.149 73.458 236.032C73.1167 235.904 72.8127 235.749 72.546 235.568C72.29 235.376 72.082 235.147 71.922 234.88C71.762 234.613 71.682 234.288 71.682 233.904C71.682 233.456 71.8047 233.061 72.05 232.72C72.2953 232.379 72.626 232.112 73.042 231.92C73.4687 231.728 73.9487 231.632 74.482 231.632C74.7487 231.632 75.0367 231.669 75.346 231.744C75.6553 231.808 75.9593 231.92 76.258 232.08C76.5567 232.24 76.8233 232.459 77.058 232.736C77.154 232.832 77.202 232.944 77.202 233.072C77.202 233.189 77.1487 233.296 77.042 233.392C76.9567 233.456 76.8553 233.488 76.738 233.488C76.6313 233.488 76.5407 233.445 76.466 233.36C76.21 233.072 75.906 232.853 75.554 232.704C75.202 232.555 74.8233 232.48 74.418 232.48C74.1087 232.48 73.8153 232.533 73.538 232.64C73.2713 232.736 73.0473 232.885 72.866 233.088C72.6847 233.291 72.594 233.557 72.594 233.888C72.6153 234.197 72.722 234.448 72.914 234.64C73.1167 234.832 73.378 234.992 73.698 235.12C74.0287 235.248 74.3967 235.365 74.802 235.472C75.1433 235.557 75.4687 235.659 75.778 235.776C76.098 235.893 76.3753 236.043 76.61 236.224C76.8553 236.395 77.0473 236.613 77.186 236.88C77.3353 237.147 77.41 237.483 77.41 237.888C77.41 238.357 77.2767 238.763 77.01 239.104C76.754 239.445 76.4073 239.707 75.97 239.888C75.5327 240.069 75.0473 240.16 74.514 240.16C73.938 240.16 73.378 240.048 72.834 239.824C72.3007 239.6 71.826 239.227 71.41 238.704ZM82.942 231.76C83.6673 231.76 84.3073 231.941 84.862 232.304C85.4273 232.656 85.8753 233.147 86.206 233.776C86.5367 234.395 86.702 235.109 86.702 235.92C86.702 236.731 86.5367 237.451 86.206 238.08C85.8753 238.709 85.4273 239.205 84.862 239.568C84.2967 239.931 83.662 240.112 82.958 240.112C82.5847 240.112 82.2273 240.059 81.886 239.952C81.5553 239.835 81.2513 239.68 80.974 239.488C80.6967 239.296 80.4513 239.072 80.238 238.816C80.0247 238.549 79.854 238.261 79.726 237.952L80.014 237.744L80.014 242.72C80.014 242.848 79.966 242.96 79.87 243.056C79.7847 243.152 79.6727 243.2 79.534 243.2C79.3953 243.2 79.278 243.152 79.182 243.056C79.0967 242.96 79.054 242.848 79.054 242.72L79.054 232.288C79.054 232.149 79.0967 232.032 79.182 231.936C79.2673 231.84 79.3847 231.792 79.534 231.792C79.6727 231.792 79.7847 231.84 79.87 231.936C79.966 232.032 80.014 232.149 80.014 232.288L80.014 234.016L79.79 233.888C79.8967 233.557 80.0513 233.264 80.254 233.008C80.4673 232.741 80.7127 232.517 80.99 232.336C81.2673 232.144 81.5713 232 81.902 231.904C82.2327 231.808 82.5793 231.76 82.942 231.76ZM82.862 232.656C82.286 232.656 81.7793 232.8 81.342 233.088C80.9047 233.365 80.558 233.749 80.302 234.24C80.0567 234.72 79.934 235.28 79.934 235.92C79.934 236.549 80.0567 237.115 80.302 237.616C80.558 238.117 80.9047 238.512 81.342 238.8C81.7793 239.077 82.286 239.216 82.862 239.216C83.4273 239.216 83.9233 239.077 84.35 238.8C84.7873 238.512 85.134 238.117 85.39 237.616C85.646 237.115 85.774 236.549 85.774 235.92C85.774 235.291 85.646 234.731 85.39 234.24C85.134 233.749 84.7873 233.365 84.35 233.088C83.9233 232.8 83.4273 232.656 82.862 232.656ZM89.3651 239.52C89.3651 239.648 89.3171 239.76 89.2211 239.856C89.1251 239.952 89.0131 240 88.8851 240C88.7465 240 88.6291 239.952 88.5331 239.856C88.4478 239.76 88.4051 239.648 88.4051 239.52L88.4051 232.16C88.4051 232.032 88.4478 231.92 88.5331 231.824C88.6291 231.728 88.7465 231.68 88.8851 231.68C89.0238 231.68 89.1358 231.728 89.2211 231.824C89.3171 231.92 89.3651 232.032 89.3651 232.16L89.3651 239.52ZM88.8851 230.608C88.6611 230.608 88.4905 230.56 88.3731 230.464C88.2665 230.357 88.2131 230.208 88.2131 230.016L88.2131 229.856C88.2131 229.664 88.2718 229.52 88.3891 229.424C88.5171 229.317 88.6878 229.264 88.9011 229.264C89.1038 229.264 89.2585 229.317 89.3651 229.424C89.4825 229.52 89.5411 229.664 89.5411 229.856L89.5411 230.016C89.5411 230.208 89.4825 230.357 89.3651 230.464C89.2585 230.56 89.0985 230.608 88.8851 230.608ZM92.019 240C91.8697 240 91.7523 239.952 91.667 239.856C91.5817 239.76 91.539 239.648 91.539 239.52L91.539 232.352C91.539 232.224 91.5817 232.112 91.667 232.016C91.763 231.92 91.8803 231.872 92.019 231.872C92.1577 231.872 92.2697 231.92 92.355 232.016C92.451 232.112 92.499 232.224 92.499 232.352L92.499 234.752L92.259 234.8C92.291 234.427 92.3817 234.059 92.531 233.696C92.691 233.323 92.9043 232.981 93.171 232.672C93.4377 232.363 93.7523 232.112 94.115 231.92C94.4883 231.728 94.9043 231.632 95.363 231.632C95.555 231.632 95.7417 231.675 95.923 231.76C96.1043 231.835 96.195 231.963 96.195 232.144C96.195 232.304 96.1523 232.427 96.067 232.512C95.9817 232.597 95.8803 232.64 95.763 232.64C95.667 232.64 95.5603 232.613 95.443 232.56C95.3363 232.507 95.1923 232.48 95.011 232.48C94.7123 232.48 94.4137 232.571 94.115 232.752C93.8163 232.923 93.5443 233.157 93.299 233.456C93.0537 233.755 92.8563 234.091 92.707 234.464C92.5683 234.827 92.499 235.195 92.499 235.568L92.499 239.52C92.499 239.648 92.451 239.76 92.355 239.856C92.259 239.952 92.147 240 92.019 240ZM103.892 231.824C104.03 231.824 104.142 231.872 104.228 231.968C104.324 232.064 104.372 232.181 104.372 232.32L104.372 239.52C104.372 239.648 104.324 239.76 104.228 239.856C104.132 239.952 104.02 240 103.892 240C103.753 240 103.636 239.952 103.54 239.856C103.454 239.76 103.412 239.648 103.412 239.52L103.412 237.616L103.684 237.488C103.684 237.787 103.598 238.091 103.428 238.4C103.268 238.709 103.044 238.997 102.756 239.264C102.468 239.531 102.126 239.749 101.732 239.92C101.348 240.08 100.932 240.16 100.484 240.16C99.7584 240.16 99.1078 239.973 98.5318 239.6C97.9664 239.227 97.5184 238.715 97.1878 238.064C96.8678 237.413 96.7078 236.683 96.7078 235.872C96.7078 235.04 96.8731 234.309 97.2038 233.68C97.5344 233.04 97.9824 232.539 98.5478 232.176C99.1131 231.813 99.7531 231.632 100.468 231.632C100.926 231.632 101.353 231.712 101.748 231.872C102.153 232.032 102.505 232.251 102.804 232.528C103.102 232.805 103.332 233.125 103.492 233.488C103.662 233.84 103.748 234.208 103.748 234.592L103.412 234.352L103.412 232.32C103.412 232.181 103.454 232.064 103.54 231.968C103.636 231.872 103.753 231.824 103.892 231.824ZM100.564 239.264C101.129 239.264 101.63 239.12 102.068 238.832C102.505 238.533 102.846 238.128 103.092 237.616C103.348 237.093 103.476 236.512 103.476 235.872C103.476 235.243 103.348 234.677 103.092 234.176C102.846 233.675 102.505 233.275 102.068 232.976C101.63 232.677 101.129 232.528 100.564 232.528C100.009 232.528 99.5078 232.672 99.0598 232.96C98.6224 233.248 98.2758 233.643 98.0198 234.144C97.7744 234.645 97.6518 235.221 97.6518 235.872C97.6518 236.512 97.7744 237.093 98.0198 237.616C98.2758 238.128 98.6224 238.533 99.0598 238.832C99.4971 239.12 99.9984 239.264 100.564 239.264ZM110.171 231.632C110.683 231.632 111.152 231.691 111.579 231.808C112.006 231.915 112.347 232.064 112.603 232.256C112.87 232.448 113.003 232.656 113.003 232.88C113.003 232.987 112.966 233.093 112.891 233.2C112.816 233.296 112.715 233.344 112.587 233.344C112.459 233.344 112.352 233.312 112.267 233.248C112.192 233.184 112.112 233.109 112.027 233.024C111.952 232.939 111.84 232.859 111.691 232.784C111.552 232.72 111.355 232.661 111.099 232.608C110.843 232.555 110.55 232.528 110.219 232.528C109.622 232.528 109.083 232.677 108.603 232.976C108.123 233.275 107.744 233.68 107.467 234.192C107.19 234.693 107.051 235.259 107.051 235.888C107.051 236.528 107.184 237.104 107.451 237.616C107.718 238.128 108.086 238.533 108.555 238.832C109.024 239.12 109.574 239.264 110.203 239.264C110.63 239.264 110.96 239.227 111.195 239.152C111.43 239.077 111.632 238.992 111.803 238.896C112.006 238.779 112.15 238.667 112.235 238.56C112.331 238.443 112.454 238.384 112.603 238.384C112.742 238.384 112.843 238.427 112.907 238.512C112.982 238.587 113.019 238.688 113.019 238.816C113.019 238.987 112.891 239.179 112.635 239.392C112.39 239.595 112.048 239.776 111.611 239.936C111.174 240.085 110.672 240.16 110.107 240.16C109.307 240.16 108.603 239.973 107.995 239.6C107.398 239.227 106.928 238.72 106.587 238.08C106.256 237.429 106.091 236.699 106.091 235.888C106.091 235.109 106.262 234.4 106.603 233.76C106.944 233.12 107.419 232.608 108.027 232.224C108.646 231.829 109.36 231.632 110.171 231.632ZM109.131 242.288C109.056 242.288 108.966 242.267 108.859 242.224C108.752 242.181 108.656 242.123 108.571 242.048C108.486 241.973 108.443 241.888 108.443 241.792C108.443 241.675 108.48 241.579 108.555 241.504L109.947 239.76L110.571 239.76L109.547 241.984C109.451 242.187 109.312 242.288 109.131 242.288ZM121.236 231.824C121.375 231.824 121.487 231.872 121.572 231.968C121.668 232.064 121.716 232.181 121.716 232.32L121.716 239.52C121.716 239.648 121.668 239.76 121.572 239.856C121.476 239.952 121.364 240 121.236 240C121.097 240 120.98 239.952 120.884 239.856C120.799 239.76 120.756 239.648 120.756 239.52L120.756 237.616L121.028 237.488C121.028 237.787 120.943 238.091 120.772 238.4C120.612 238.709 120.388 238.997 120.1 239.264C119.812 239.531 119.471 239.749 119.076 239.92C118.692 240.08 118.276 240.16 117.828 240.16C117.103 240.16 116.452 239.973 115.876 239.6C115.311 239.227 114.863 238.715 114.532 238.064C114.212 237.413 114.052 236.683 114.052 235.872C114.052 235.04 114.217 234.309 114.548 233.68C114.879 233.04 115.327 232.539 115.892 232.176C116.457 231.813 117.097 231.632 117.812 231.632C118.271 231.632 118.697 231.712 119.092 231.872C119.497 232.032 119.849 232.251 120.148 232.528C120.447 232.805 120.676 233.125 120.836 233.488C121.007 233.84 121.092 234.208 121.092 234.592L120.756 234.352L120.756 232.32C120.756 232.181 120.799 232.064 120.884 231.968C120.98 231.872 121.097 231.824 121.236 231.824ZM117.908 239.264C118.473 239.264 118.975 239.12 119.412 238.832C119.849 238.533 120.191 238.128 120.436 237.616C120.692 237.093 120.82 236.512 120.82 235.872C120.82 235.243 120.692 234.677 120.436 234.176C120.191 233.675 119.849 233.275 119.412 232.976C118.975 232.677 118.473 232.528 117.908 232.528C117.353 232.528 116.852 232.672 116.404 232.96C115.967 233.248 115.62 233.643 115.364 234.144C115.119 234.645 114.996 235.221 114.996 235.872C114.996 236.512 115.119 237.093 115.364 237.616C115.62 238.128 115.967 238.533 116.404 238.832C116.841 239.12 117.343 239.264 117.908 239.264ZM115.94 230.688C115.769 230.688 115.657 230.629 115.604 230.512C115.561 230.395 115.556 230.224 115.588 230C115.652 229.648 115.817 229.381 116.084 229.2C116.351 229.008 116.665 228.912 117.028 228.912C117.22 228.912 117.412 228.96 117.604 229.056C117.807 229.152 118.004 229.259 118.196 229.376C118.388 229.493 118.564 229.6 118.724 229.696C118.895 229.792 119.049 229.84 119.188 229.84C119.337 229.84 119.455 229.787 119.54 229.68C119.636 229.573 119.689 229.424 119.7 229.232C119.689 229.115 119.721 229.019 119.796 228.944C119.871 228.869 119.961 228.832 120.068 228.832C120.249 228.832 120.367 228.896 120.42 229.024C120.473 229.141 120.489 229.301 120.468 229.504C120.425 229.739 120.34 229.941 120.212 230.112C120.095 230.283 119.94 230.416 119.748 230.512C119.556 230.597 119.332 230.64 119.076 230.64C118.916 230.64 118.735 230.597 118.532 230.512C118.34 230.416 118.148 230.309 117.956 230.192C117.764 230.075 117.577 229.973 117.396 229.888C117.225 229.792 117.065 229.744 116.916 229.744C116.777 229.744 116.655 229.792 116.548 229.888C116.441 229.973 116.361 230.123 116.308 230.336C116.319 230.443 116.281 230.528 116.196 230.592C116.121 230.656 116.036 230.688 115.94 230.688ZM131.531 235.904C131.531 236.715 131.355 237.445 131.003 238.096C130.651 238.736 130.171 239.243 129.563 239.616C128.955 239.979 128.262 240.16 127.483 240.16C126.726 240.16 126.038 239.979 125.419 239.616C124.811 239.243 124.326 238.736 123.963 238.096C123.611 237.445 123.435 236.715 123.435 235.904C123.435 235.083 123.611 234.352 123.963 233.712C124.326 233.072 124.811 232.565 125.419 232.192C126.038 231.819 126.726 231.632 127.483 231.632C128.262 231.632 128.955 231.819 129.563 232.192C130.171 232.565 130.651 233.072 131.003 233.712C131.355 234.352 131.531 235.083 131.531 235.904ZM130.571 235.904C130.571 235.253 130.438 234.677 130.171 234.176C129.905 233.664 129.537 233.264 129.067 232.976C128.609 232.677 128.081 232.528 127.483 232.528C126.907 232.528 126.385 232.677 125.915 232.976C125.446 233.264 125.073 233.664 124.795 234.176C124.529 234.677 124.395 235.253 124.395 235.904C124.395 236.555 124.529 237.131 124.795 237.632C125.073 238.133 125.446 238.533 125.915 238.832C126.385 239.12 126.907 239.264 127.483 239.264C128.081 239.264 128.609 239.12 129.067 238.832C129.537 238.533 129.905 238.133 130.171 237.632C130.438 237.131 130.571 236.555 130.571 235.904ZM134.532 240.128C134.532 240.416 134.446 240.693 134.276 240.96C134.105 241.237 133.897 241.461 133.652 241.632C133.406 241.813 133.166 241.904 132.932 241.904C132.846 241.904 132.761 241.877 132.676 241.824C132.601 241.771 132.564 241.669 132.564 241.52C132.564 241.371 132.612 241.285 132.708 241.264C132.814 241.253 132.942 241.205 133.092 241.12C133.273 241.035 133.412 240.928 133.508 240.8C133.604 240.672 133.652 240.523 133.652 240.352C133.652 240.213 133.609 240.107 133.524 240.032C133.449 239.957 133.358 239.92 133.252 239.92C133.177 239.92 133.102 239.931 133.028 239.952C132.953 239.973 132.884 240.005 132.82 240.048C132.766 239.995 132.718 239.936 132.676 239.872C132.633 239.808 132.617 239.728 132.628 239.632C132.649 239.451 132.745 239.296 132.916 239.168C133.097 239.029 133.305 238.96 133.54 238.96C133.828 238.96 134.062 239.077 134.244 239.312C134.436 239.547 134.532 239.819 134.532 240.128ZM146.208 231.872C146.347 231.872 146.459 231.92 146.544 232.016C146.64 232.112 146.688 232.224 146.688 232.352L146.688 236.864C146.688 237.92 146.389 238.725 145.792 239.28C145.195 239.835 144.389 240.112 143.376 240.112C142.373 240.112 141.573 239.835 140.976 239.28C140.389 238.725 140.096 237.92 140.096 236.864L140.096 232.352C140.096 232.224 140.139 232.112 140.224 232.016C140.32 231.92 140.437 231.872 140.576 231.872C140.715 231.872 140.827 231.92 140.912 232.016C141.008 232.112 141.056 232.224 141.056 232.352L141.056 236.864C141.056 237.632 141.259 238.219 141.664 238.624C142.08 239.019 142.651 239.216 143.376 239.216C144.112 239.216 144.688 239.019 145.104 238.624C145.52 238.219 145.728 237.632 145.728 236.864L145.728 232.352C145.728 232.224 145.771 232.112 145.856 232.016C145.941 231.92 146.059 231.872 146.208 231.872ZM148.357 231.856L152.085 231.856C152.213 231.856 152.32 231.904 152.405 232C152.491 232.085 152.533 232.192 152.533 232.32C152.533 232.437 152.491 232.539 152.405 232.624C152.32 232.709 152.213 232.752 152.085 232.752L148.357 232.752C148.229 232.752 148.117 232.709 148.021 232.624C147.936 232.528 147.893 232.421 147.893 232.304C147.893 232.176 147.936 232.069 148.021 231.984C148.117 231.899 148.229 231.856 148.357 231.856ZM150.005 229.6C150.144 229.6 150.256 229.648 150.341 229.744C150.437 229.84 150.485 229.952 150.485 230.08L150.485 238.112C150.485 238.411 150.523 238.635 150.597 238.784C150.683 238.933 150.789 239.035 150.917 239.088C151.045 239.131 151.173 239.152 151.301 239.152C151.387 239.152 151.461 239.141 151.525 239.12C151.6 239.088 151.68 239.072 151.765 239.072C151.861 239.072 151.941 239.109 152.005 239.184C152.08 239.259 152.117 239.355 152.117 239.472C152.117 239.621 152.032 239.749 151.861 239.856C151.691 239.952 151.488 240 151.253 240C151.157 240 151.013 239.995 150.821 239.984C150.629 239.963 150.432 239.904 150.229 239.808C150.027 239.701 149.856 239.52 149.717 239.264C149.589 239.008 149.525 238.64 149.525 238.16L149.525 230.08C149.525 229.952 149.568 229.84 149.653 229.744C149.749 229.648 149.867 229.6 150.005 229.6ZM154.915 239.52C154.915 239.648 154.867 239.76 154.771 239.856C154.675 239.952 154.563 240 154.435 240C154.296 240 154.179 239.952 154.083 239.856C153.998 239.76 153.955 239.648 153.955 239.52L153.955 232.16C153.955 232.032 153.998 231.92 154.083 231.824C154.179 231.728 154.296 231.68 154.435 231.68C154.574 231.68 154.686 231.728 154.771 231.824C154.867 231.92 154.915 232.032 154.915 232.16L154.915 239.52ZM154.435 230.608C154.211 230.608 154.04 230.56 153.923 230.464C153.816 230.357 153.763 230.208 153.763 230.016L153.763 229.856C153.763 229.664 153.822 229.52 153.939 229.424C154.067 229.317 154.238 229.264 154.451 229.264C154.654 229.264 154.808 229.317 154.915 229.424C155.032 229.52 155.091 229.664 155.091 229.856L155.091 230.016C155.091 230.208 155.032 230.357 154.915 230.464C154.808 230.56 154.648 230.608 154.435 230.608ZM158.145 239.52C158.145 239.648 158.097 239.76 158.001 239.856C157.905 239.952 157.793 240 157.665 240C157.526 240 157.409 239.952 157.313 239.856C157.228 239.76 157.185 239.648 157.185 239.52L157.185 228.64C157.185 228.512 157.233 228.4 157.329 228.304C157.425 228.208 157.537 228.16 157.665 228.16C157.804 228.16 157.916 228.208 158.001 228.304C158.097 228.4 158.145 228.512 158.145 228.64L158.145 239.52ZM161.384 239.52C161.384 239.648 161.336 239.76 161.24 239.856C161.144 239.952 161.032 240 160.904 240C160.766 240 160.648 239.952 160.552 239.856C160.467 239.76 160.424 239.648 160.424 239.52L160.424 232.16C160.424 232.032 160.467 231.92 160.552 231.824C160.648 231.728 160.766 231.68 160.904 231.68C161.043 231.68 161.155 231.728 161.24 231.824C161.336 231.92 161.384 232.032 161.384 232.16L161.384 239.52ZM160.904 230.608C160.68 230.608 160.51 230.56 160.392 230.464C160.286 230.357 160.232 230.208 160.232 230.016L160.232 229.856C160.232 229.664 160.291 229.52 160.408 229.424C160.536 229.317 160.707 229.264 160.92 229.264C161.123 229.264 161.278 229.317 161.384 229.424C161.502 229.52 161.56 229.664 161.56 229.856L161.56 230.016C161.56 230.208 161.502 230.357 161.384 230.464C161.278 230.56 161.118 230.608 160.904 230.608ZM168.678 239.104C168.806 239.104 168.913 239.152 168.998 239.248C169.094 239.333 169.142 239.435 169.142 239.552C169.142 239.68 169.094 239.787 168.998 239.872C168.913 239.957 168.806 240 168.678 240L163.478 240C163.34 240 163.228 239.947 163.142 239.84C163.057 239.733 163.014 239.632 163.014 239.536C163.014 239.472 163.025 239.413 163.046 239.36C163.068 239.296 163.105 239.232 163.158 239.168L168.006 232.464L168.07 232.608L163.878 232.608C163.75 232.608 163.638 232.565 163.542 232.48C163.457 232.384 163.414 232.277 163.414 232.16C163.414 232.032 163.457 231.925 163.542 231.84C163.638 231.755 163.75 231.712 163.878 231.712L168.79 231.712C168.908 231.712 169.009 231.76 169.094 231.856C169.19 231.952 169.238 232.064 169.238 232.192C169.238 232.256 169.228 232.315 169.206 232.368C169.185 232.421 169.153 232.48 169.11 232.544L164.294 239.184L164.102 239.104L168.678 239.104ZM177.599 231.824C177.737 231.824 177.849 231.872 177.935 231.968C178.031 232.064 178.079 232.181 178.079 232.32L178.079 239.52C178.079 239.648 178.031 239.76 177.935 239.856C177.839 239.952 177.727 240 177.599 240C177.46 240 177.343 239.952 177.247 239.856C177.161 239.76 177.119 239.648 177.119 239.52L177.119 237.616L177.391 237.488C177.391 237.787 177.305 238.091 177.135 238.4C176.975 238.709 176.751 238.997 176.463 239.264C176.175 239.531 175.833 239.749 175.439 239.92C175.055 240.08 174.639 240.16 174.191 240.16C173.465 240.16 172.815 239.973 172.239 239.6C171.673 239.227 171.225 238.715 170.895 238.064C170.575 237.413 170.415 236.683 170.415 235.872C170.415 235.04 170.58 234.309 170.911 233.68C171.241 233.04 171.689 232.539 172.255 232.176C172.82 231.813 173.46 231.632 174.175 231.632C174.633 231.632 175.06 231.712 175.455 231.872C175.86 232.032 176.212 232.251 176.511 232.528C176.809 232.805 177.039 233.125 177.199 233.488C177.369 233.84 177.455 234.208 177.455 234.592L177.119 234.352L177.119 232.32C177.119 232.181 177.161 232.064 177.247 231.968C177.343 231.872 177.46 231.824 177.599 231.824ZM174.271 239.264C174.836 239.264 175.337 239.12 175.775 238.832C176.212 238.533 176.553 238.128 176.799 237.616C177.055 237.093 177.183 236.512 177.183 235.872C177.183 235.243 177.055 234.677 176.799 234.176C176.553 233.675 176.212 233.275 175.775 232.976C175.337 232.677 174.836 232.528 174.271 232.528C173.716 232.528 173.215 232.672 172.767 232.96C172.329 233.248 171.983 233.643 171.727 234.144C171.481 234.645 171.359 235.221 171.359 235.872C171.359 236.512 171.481 237.093 171.727 237.616C171.983 238.128 172.329 238.533 172.767 238.832C173.204 239.12 173.705 239.264 174.271 239.264ZM183.878 231.632C184.39 231.632 184.859 231.691 185.286 231.808C185.712 231.915 186.054 232.064 186.31 232.256C186.576 232.448 186.71 232.656 186.71 232.88C186.71 232.987 186.672 233.093 186.598 233.2C186.523 233.296 186.422 233.344 186.294 233.344C186.166 233.344 186.059 233.312 185.974 233.248C185.899 233.184 185.819 233.109 185.734 233.024C185.659 232.939 185.547 232.859 185.398 232.784C185.259 232.72 185.062 232.661 184.806 232.608C184.55 232.555 184.256 232.528 183.926 232.528C183.328 232.528 182.79 232.677 182.31 232.976C181.83 233.275 181.451 233.68 181.174 234.192C180.896 234.693 180.758 235.259 180.758 235.888C180.758 236.528 180.891 237.104 181.158 237.616C181.424 238.128 181.792 238.533 182.262 238.832C182.731 239.12 183.28 239.264 183.91 239.264C184.336 239.264 184.667 239.227 184.902 239.152C185.136 239.077 185.339 238.992 185.51 238.896C185.712 238.779 185.856 238.667 185.942 238.56C186.038 238.443 186.16 238.384 186.31 238.384C186.448 238.384 186.55 238.427 186.614 238.512C186.688 238.587 186.726 238.688 186.726 238.816C186.726 238.987 186.598 239.179 186.342 239.392C186.096 239.595 185.755 239.776 185.318 239.936C184.88 240.085 184.379 240.16 183.814 240.16C183.014 240.16 182.31 239.973 181.702 239.6C181.104 239.227 180.635 238.72 180.294 238.08C179.963 237.429 179.798 236.699 179.798 235.888C179.798 235.109 179.968 234.4 180.31 233.76C180.651 233.12 181.126 232.608 181.734 232.224C182.352 231.829 183.067 231.632 183.878 231.632ZM182.838 242.288C182.763 242.288 182.672 242.267 182.566 242.224C182.459 242.181 182.363 242.123 182.278 242.048C182.192 241.973 182.15 241.888 182.15 241.792C182.15 241.675 182.187 241.579 182.262 241.504L183.654 239.76L184.278 239.76L183.254 241.984C183.158 242.187 183.019 242.288 182.838 242.288ZM194.943 231.824C195.082 231.824 195.194 231.872 195.279 231.968C195.375 232.064 195.423 232.181 195.423 232.32L195.423 239.52C195.423 239.648 195.375 239.76 195.279 239.856C195.183 239.952 195.071 240 194.943 240C194.804 240 194.687 239.952 194.591 239.856C194.506 239.76 194.463 239.648 194.463 239.52L194.463 237.616L194.735 237.488C194.735 237.787 194.65 238.091 194.479 238.4C194.319 238.709 194.095 238.997 193.807 239.264C193.519 239.531 193.178 239.749 192.783 239.92C192.399 240.08 191.983 240.16 191.535 240.16C190.81 240.16 190.159 239.973 189.583 239.6C189.018 239.227 188.57 238.715 188.239 238.064C187.919 237.413 187.759 236.683 187.759 235.872C187.759 235.04 187.924 234.309 188.255 233.68C188.586 233.04 189.034 232.539 189.599 232.176C190.164 231.813 190.804 231.632 191.519 231.632C191.978 231.632 192.404 231.712 192.799 231.872C193.204 232.032 193.556 232.251 193.855 232.528C194.154 232.805 194.383 233.125 194.543 233.488C194.714 233.84 194.799 234.208 194.799 234.592L194.463 234.352L194.463 232.32C194.463 232.181 194.506 232.064 194.591 231.968C194.687 231.872 194.804 231.824 194.943 231.824ZM191.615 239.264C192.18 239.264 192.682 239.12 193.119 238.832C193.556 238.533 193.898 238.128 194.143 237.616C194.399 237.093 194.527 236.512 194.527 235.872C194.527 235.243 194.399 234.677 194.143 234.176C193.898 233.675 193.556 233.275 193.119 232.976C192.682 232.677 192.18 232.528 191.615 232.528C191.06 232.528 190.559 232.672 190.111 232.96C189.674 233.248 189.327 233.643 189.071 234.144C188.826 234.645 188.703 235.221 188.703 235.872C188.703 236.512 188.826 237.093 189.071 237.616C189.327 238.128 189.674 238.533 190.111 238.832C190.548 239.12 191.05 239.264 191.615 239.264ZM189.647 230.688C189.476 230.688 189.364 230.629 189.311 230.512C189.268 230.395 189.263 230.224 189.295 230C189.359 229.648 189.524 229.381 189.791 229.2C190.058 229.008 190.372 228.912 190.735 228.912C190.927 228.912 191.119 228.96 191.311 229.056C191.514 229.152 191.711 229.259 191.903 229.376C192.095 229.493 192.271 229.6 192.431 229.696C192.602 229.792 192.756 229.84 192.895 229.84C193.044 229.84 193.162 229.787 193.247 229.68C193.343 229.573 193.396 229.424 193.407 229.232C193.396 229.115 193.428 229.019 193.503 228.944C193.578 228.869 193.668 228.832 193.775 228.832C193.956 228.832 194.074 228.896 194.127 229.024C194.18 229.141 194.196 229.301 194.175 229.504C194.132 229.739 194.047 229.941 193.919 230.112C193.802 230.283 193.647 230.416 193.455 230.512C193.263 230.597 193.039 230.64 192.783 230.64C192.623 230.64 192.442 230.597 192.239 230.512C192.047 230.416 191.855 230.309 191.663 230.192C191.471 230.075 191.284 229.973 191.103 229.888C190.932 229.792 190.772 229.744 190.623 229.744C190.484 229.744 190.362 229.792 190.255 229.888C190.148 229.973 190.068 230.123 190.015 230.336C190.026 230.443 189.988 230.528 189.903 230.592C189.828 230.656 189.743 230.688 189.647 230.688ZM205.238 235.904C205.238 236.715 205.062 237.445 204.71 238.096C204.358 238.736 203.878 239.243 203.27 239.616C202.662 239.979 201.969 240.16 201.19 240.16C200.433 240.16 199.745 239.979 199.126 239.616C198.518 239.243 198.033 238.736 197.67 238.096C197.318 237.445 197.142 236.715 197.142 235.904C197.142 235.083 197.318 234.352 197.67 233.712C198.033 233.072 198.518 232.565 199.126 232.192C199.745 231.819 200.433 231.632 201.19 231.632C201.969 231.632 202.662 231.819 203.27 232.192C203.878 232.565 204.358 233.072 204.71 233.712C205.062 234.352 205.238 235.083 205.238 235.904ZM204.278 235.904C204.278 235.253 204.145 234.677 203.878 234.176C203.611 233.664 203.243 233.264 202.774 232.976C202.315 232.677 201.787 232.528 201.19 232.528C200.614 232.528 200.091 232.677 199.622 232.976C199.153 233.264 198.779 233.664 198.502 234.176C198.235 234.677 198.102 235.253 198.102 235.904C198.102 236.555 198.235 237.131 198.502 237.632C198.779 238.133 199.153 238.533 199.622 238.832C200.091 239.12 200.614 239.264 201.19 239.264C201.787 239.264 202.315 239.12 202.774 238.832C203.243 238.533 203.611 238.133 203.878 237.632C204.145 237.131 204.278 236.555 204.278 235.904ZM217.717 228.16C217.856 228.16 217.968 228.208 218.053 228.304C218.149 228.389 218.197 228.501 218.197 228.64L218.197 239.52C218.197 239.648 218.149 239.76 218.053 239.856C217.957 239.952 217.845 240 217.717 240C217.579 240 217.461 239.952 217.365 239.856C217.28 239.76 217.237 239.648 217.237 239.52L217.237 237.616L217.509 237.392C217.509 237.691 217.429 238.005 217.269 238.336C217.109 238.656 216.88 238.955 216.581 239.232C216.293 239.509 215.952 239.733 215.557 239.904C215.173 240.075 214.757 240.16 214.309 240.16C213.595 240.16 212.949 239.973 212.373 239.6C211.808 239.227 211.36 238.72 211.029 238.08C210.699 237.44 210.533 236.709 210.533 235.888C210.533 235.077 210.699 234.352 211.029 233.712C211.36 233.061 211.808 232.555 212.373 232.192C212.939 231.819 213.579 231.632 214.293 231.632C214.731 231.632 215.147 231.712 215.541 231.872C215.936 232.032 216.283 232.251 216.581 232.528C216.891 232.805 217.131 233.125 217.301 233.488C217.483 233.84 217.573 234.208 217.573 234.592L217.237 234.352L217.237 228.64C217.237 228.512 217.28 228.4 217.365 228.304C217.461 228.208 217.579 228.16 217.717 228.16ZM214.389 239.264C214.965 239.264 215.467 239.12 215.893 238.832C216.331 238.533 216.672 238.133 216.917 237.632C217.173 237.12 217.301 236.539 217.301 235.888C217.301 235.248 217.173 234.677 216.917 234.176C216.672 233.664 216.331 233.264 215.893 232.976C215.456 232.677 214.955 232.528 214.389 232.528C213.835 232.528 213.333 232.677 212.885 232.976C212.448 233.264 212.101 233.664 211.845 234.176C211.6 234.677 211.477 235.248 211.477 235.888C211.477 236.528 211.6 237.104 211.845 237.616C212.101 238.128 212.448 238.533 212.885 238.832C213.333 239.12 213.835 239.264 214.389 239.264ZM224.093 240.16C223.271 240.16 222.546 239.984 221.917 239.632C221.287 239.28 220.797 238.789 220.445 238.16C220.093 237.531 219.917 236.795 219.917 235.952C219.917 235.045 220.093 234.272 220.445 233.632C220.807 232.992 221.271 232.501 221.837 232.16C222.413 231.808 223.021 231.632 223.661 231.632C224.13 231.632 224.583 231.717 225.021 231.888C225.469 232.048 225.863 232.293 226.205 232.624C226.557 232.944 226.834 233.339 227.037 233.808C227.25 234.277 227.367 234.821 227.389 235.44C227.378 235.568 227.325 235.68 227.229 235.776C227.133 235.861 227.021 235.904 226.893 235.904L220.477 235.904L220.285 235.04L226.589 235.04L226.381 235.232L226.381 234.912C226.338 234.411 226.178 233.984 225.901 233.632C225.623 233.28 225.287 233.013 224.893 232.832C224.498 232.651 224.087 232.56 223.661 232.56C223.341 232.56 223.01 232.624 222.669 232.752C222.338 232.88 222.034 233.083 221.757 233.36C221.49 233.627 221.271 233.973 221.101 234.4C220.93 234.816 220.845 235.312 220.845 235.888C220.845 236.517 220.973 237.088 221.229 237.6C221.485 238.112 221.853 238.517 222.333 238.816C222.823 239.115 223.405 239.264 224.077 239.264C224.45 239.264 224.786 239.211 225.085 239.104C225.383 238.997 225.645 238.859 225.869 238.688C226.093 238.507 226.279 238.32 226.429 238.128C226.546 238.032 226.663 237.984 226.781 237.984C226.887 237.984 226.978 238.027 227.053 238.112C227.138 238.197 227.181 238.293 227.181 238.4C227.181 238.528 227.127 238.64 227.021 238.736C226.701 239.12 226.285 239.456 225.773 239.744C225.261 240.021 224.701 240.16 224.093 240.16ZM63.152 251.76C63.8773 251.76 64.5173 251.941 65.072 252.304C65.6373 252.656 66.0853 253.147 66.416 253.776C66.7467 254.395 66.912 255.109 66.912 255.92C66.912 256.731 66.7467 257.451 66.416 258.08C66.0853 258.709 65.6373 259.205 65.072 259.568C64.5067 259.931 63.872 260.112 63.168 260.112C62.7947 260.112 62.4373 260.059 62.096 259.952C61.7653 259.835 61.4613 259.68 61.184 259.488C60.9067 259.296 60.6613 259.072 60.448 258.816C60.2347 258.549 60.064 258.261 59.936 257.952L60.224 257.744L60.224 262.72C60.224 262.848 60.176 262.96 60.08 263.056C59.9947 263.152 59.8827 263.2 59.744 263.2C59.6053 263.2 59.488 263.152 59.392 263.056C59.3067 262.96 59.264 262.848 59.264 262.72L59.264 252.288C59.264 252.149 59.3067 252.032 59.392 251.936C59.4773 251.84 59.5947 251.792 59.744 251.792C59.8827 251.792 59.9947 251.84 60.08 251.936C60.176 252.032 60.224 252.149 60.224 252.288L60.224 254.016L60 253.888C60.1067 253.557 60.2613 253.264 60.464 253.008C60.6773 252.741 60.9227 252.517 61.2 252.336C61.4773 252.144 61.7813 252 62.112 251.904C62.4427 251.808 62.7893 251.76 63.152 251.76ZM63.072 252.656C62.496 252.656 61.9893 252.8 61.552 253.088C61.1147 253.365 60.768 253.749 60.512 254.24C60.2667 254.72 60.144 255.28 60.144 255.92C60.144 256.549 60.2667 257.115 60.512 257.616C60.768 258.117 61.1147 258.512 61.552 258.8C61.9893 259.077 62.496 259.216 63.072 259.216C63.6373 259.216 64.1333 259.077 64.56 258.8C64.9973 258.512 65.344 258.117 65.6 257.616C65.856 257.115 65.984 256.549 65.984 255.92C65.984 255.291 65.856 254.731 65.6 254.24C65.344 253.749 64.9973 253.365 64.56 253.088C64.1333 252.8 63.6373 252.656 63.072 252.656ZM69.1271 260C68.9778 260 68.8605 259.952 68.7751 259.856C68.6898 259.76 68.6471 259.648 68.6471 259.52L68.6471 252.352C68.6471 252.224 68.6898 252.112 68.7751 252.016C68.8711 251.92 68.9885 251.872 69.1271 251.872C69.2658 251.872 69.3778 251.92 69.4631 252.016C69.5591 252.112 69.6071 252.224 69.6071 252.352L69.6071 254.752L69.3671 254.8C69.3991 254.427 69.4898 254.059 69.6391 253.696C69.7991 253.323 70.0125 252.981 70.2791 252.672C70.5458 252.363 70.8605 252.112 71.2231 251.92C71.5965 251.728 72.0125 251.632 72.4711 251.632C72.6631 251.632 72.8498 251.675 73.0311 251.76C73.2125 251.835 73.3031 251.963 73.3031 252.144C73.3031 252.304 73.2605 252.427 73.1751 252.512C73.0898 252.597 72.9885 252.64 72.8711 252.64C72.7751 252.64 72.6685 252.613 72.5511 252.56C72.4445 252.507 72.3005 252.48 72.1191 252.48C71.8205 252.48 71.5218 252.571 71.2231 252.752C70.9245 252.923 70.6525 253.157 70.4071 253.456C70.1618 253.755 69.9645 254.091 69.8151 254.464C69.6765 254.827 69.6071 255.195 69.6071 255.568L69.6071 259.52C69.6071 259.648 69.5591 259.76 69.4631 259.856C69.3671 259.952 69.2551 260 69.1271 260ZM81.74 255.904C81.74 256.715 81.564 257.445 81.212 258.096C80.86 258.736 80.38 259.243 79.772 259.616C79.164 259.979 78.4707 260.16 77.692 260.16C76.9347 260.16 76.2467 259.979 75.628 259.616C75.02 259.243 74.5347 258.736 74.172 258.096C73.82 257.445 73.644 256.715 73.644 255.904C73.644 255.083 73.82 254.352 74.172 253.712C74.5347 253.072 75.02 252.565 75.628 252.192C76.2467 251.819 76.9347 251.632 77.692 251.632C78.4707 251.632 79.164 251.819 79.772 252.192C80.38 252.565 80.86 253.072 81.212 253.712C81.564 254.352 81.74 255.083 81.74 255.904ZM80.78 255.904C80.78 255.253 80.6467 254.677 80.38 254.176C80.1133 253.664 79.7453 253.264 79.276 252.976C78.8173 252.677 78.2893 252.528 77.692 252.528C77.116 252.528 76.5933 252.677 76.124 252.976C75.6547 253.264 75.2813 253.664 75.004 254.176C74.7373 254.677 74.604 255.253 74.604 255.904C74.604 256.555 74.7373 257.131 75.004 257.632C75.2813 258.133 75.6547 258.533 76.124 258.832C76.5933 259.12 77.116 259.264 77.692 259.264C78.2893 259.264 78.8173 259.12 79.276 258.832C79.7453 258.533 80.1133 258.133 80.38 257.632C80.6467 257.131 80.78 256.555 80.78 255.904ZM82.9323 251.856L86.6603 251.856C86.7883 251.856 86.8949 251.904 86.9803 252C87.0656 252.085 87.1083 252.192 87.1083 252.32C87.1083 252.437 87.0656 252.539 86.9803 252.624C86.8949 252.709 86.7883 252.752 86.6603 252.752L82.9323 252.752C82.8043 252.752 82.6923 252.709 82.5963 252.624C82.5109 252.528 82.4683 252.421 82.4683 252.304C82.4683 252.176 82.5109 252.069 82.5963 251.984C82.6923 251.899 82.8043 251.856 82.9323 251.856ZM84.5803 249.6C84.7189 249.6 84.8309 249.648 84.9163 249.744C85.0123 249.84 85.0603 249.952 85.0603 250.08L85.0603 258.112C85.0603 258.411 85.0976 258.635 85.1723 258.784C85.2576 258.933 85.3643 259.035 85.4923 259.088C85.6203 259.131 85.7483 259.152 85.8763 259.152C85.9616 259.152 86.0363 259.141 86.1003 259.12C86.1749 259.088 86.2549 259.072 86.3403 259.072C86.4363 259.072 86.5163 259.109 86.5803 259.184C86.6549 259.259 86.6923 259.355 86.6923 259.472C86.6923 259.621 86.6069 259.749 86.4363 259.856C86.2656 259.952 86.0629 260 85.8283 260C85.7323 260 85.5883 259.995 85.3963 259.984C85.2043 259.963 85.0069 259.904 84.8043 259.808C84.6016 259.701 84.4309 259.52 84.2923 259.264C84.1643 259.008 84.1003 258.64 84.1003 258.16L84.1003 250.08C84.1003 249.952 84.1429 249.84 84.2283 249.744C84.3243 249.648 84.4416 249.6 84.5803 249.6ZM96.1781 255.904C96.1781 256.715 96.0021 257.445 95.6501 258.096C95.2981 258.736 94.8181 259.243 94.2101 259.616C93.6021 259.979 92.9088 260.16 92.1301 260.16C91.3728 260.16 90.6848 259.979 90.0661 259.616C89.4581 259.243 88.9728 258.736 88.6101 258.096C88.2581 257.445 88.0821 256.715 88.0821 255.904C88.0821 255.083 88.2581 254.352 88.6101 253.712C88.9728 253.072 89.4581 252.565 90.0661 252.192C90.6848 251.819 91.3728 251.632 92.1301 251.632C92.9088 251.632 93.6021 251.819 94.2101 252.192C94.8181 252.565 95.2981 253.072 95.6501 253.712C96.0021 254.352 96.1781 255.083 96.1781 255.904ZM95.2181 255.904C95.2181 255.253 95.0848 254.677 94.8181 254.176C94.5515 253.664 94.1835 253.264 93.7141 252.976C93.2555 252.677 92.7275 252.528 92.1301 252.528C91.5541 252.528 91.0315 252.677 90.5621 252.976C90.0928 253.264 89.7195 253.664 89.4421 254.176C89.1755 254.677 89.0421 255.253 89.0421 255.904C89.0421 256.555 89.1755 257.131 89.4421 257.632C89.7195 258.133 90.0928 258.533 90.5621 258.832C91.0315 259.12 91.5541 259.264 92.1301 259.264C92.7275 259.264 93.2555 259.12 93.7141 258.832C94.1835 258.533 94.5515 258.133 94.8181 257.632C95.0848 257.131 95.2181 256.555 95.2181 255.904ZM91.9381 251.056C91.8848 251.056 91.8261 251.029 91.7621 250.976C91.7088 250.912 91.6821 250.843 91.6821 250.768C91.6821 250.704 91.7088 250.629 91.7621 250.544L92.7381 249.024C92.7915 248.939 92.8608 248.859 92.9461 248.784C93.0421 248.709 93.1541 248.672 93.2821 248.672C93.4421 248.672 93.5701 248.715 93.6661 248.8C93.7621 248.885 93.8048 249.008 93.7941 249.168C93.7941 249.243 93.7781 249.312 93.7461 249.376C93.7248 249.429 93.6875 249.483 93.6341 249.536L92.4341 250.8C92.3701 250.875 92.2955 250.939 92.2101 250.992C92.1248 251.035 92.0341 251.056 91.9381 251.056ZM97.3704 251.856L101.098 251.856C101.226 251.856 101.333 251.904 101.418 252C101.504 252.085 101.546 252.192 101.546 252.32C101.546 252.437 101.504 252.539 101.418 252.624C101.333 252.709 101.226 252.752 101.098 252.752L97.3704 252.752C97.2424 252.752 97.1304 252.709 97.0344 252.624C96.949 252.528 96.9064 252.421 96.9064 252.304C96.9064 252.176 96.949 252.069 97.0344 251.984C97.1304 251.899 97.2424 251.856 97.3704 251.856ZM99.0184 249.6C99.157 249.6 99.269 249.648 99.3544 249.744C99.4504 249.84 99.4984 249.952 99.4984 250.08L99.4984 258.112C99.4984 258.411 99.5357 258.635 99.6104 258.784C99.6957 258.933 99.8024 259.035 99.9304 259.088C100.058 259.131 100.186 259.152 100.314 259.152C100.4 259.152 100.474 259.141 100.538 259.12C100.613 259.088 100.693 259.072 100.778 259.072C100.874 259.072 100.954 259.109 101.018 259.184C101.093 259.259 101.13 259.355 101.13 259.472C101.13 259.621 101.045 259.749 100.874 259.856C100.704 259.952 100.501 260 100.266 260C100.17 260 100.026 259.995 99.8344 259.984C99.6424 259.963 99.445 259.904 99.2424 259.808C99.0397 259.701 98.869 259.52 98.7304 259.264C98.6024 259.008 98.5384 258.64 98.5384 258.16L98.5384 250.08C98.5384 249.952 98.581 249.84 98.6664 249.744C98.7624 249.648 98.8797 249.6 99.0184 249.6ZM103.928 259.52C103.928 259.648 103.88 259.76 103.784 259.856C103.688 259.952 103.576 260 103.448 260C103.31 260 103.192 259.952 103.096 259.856C103.011 259.76 102.968 259.648 102.968 259.52L102.968 252.16C102.968 252.032 103.011 251.92 103.096 251.824C103.192 251.728 103.31 251.68 103.448 251.68C103.587 251.68 103.699 251.728 103.784 251.824C103.88 251.92 103.928 252.032 103.928 252.16L103.928 259.52ZM103.448 250.608C103.224 250.608 103.054 250.56 102.936 250.464C102.83 250.357 102.776 250.208 102.776 250.016L102.776 249.856C102.776 249.664 102.835 249.52 102.952 249.424C103.08 249.317 103.251 249.264 103.464 249.264C103.667 249.264 103.822 249.317 103.928 249.424C104.046 249.52 104.104 249.664 104.104 249.856L104.104 250.016C104.104 250.208 104.046 250.357 103.928 250.464C103.822 250.56 103.662 250.608 103.448 250.608ZM109.99 251.76C110.715 251.76 111.355 251.941 111.91 252.304C112.475 252.656 112.923 253.147 113.254 253.776C113.585 254.395 113.75 255.109 113.75 255.92C113.75 256.731 113.585 257.451 113.254 258.08C112.923 258.709 112.475 259.205 111.91 259.568C111.345 259.931 110.71 260.112 110.006 260.112C109.633 260.112 109.275 260.059 108.934 259.952C108.603 259.835 108.299 259.68 108.022 259.488C107.745 259.296 107.499 259.072 107.286 258.816C107.073 258.549 106.902 258.261 106.774 257.952L107.062 257.744L107.062 262.72C107.062 262.848 107.014 262.96 106.918 263.056C106.833 263.152 106.721 263.2 106.582 263.2C106.443 263.2 106.326 263.152 106.23 263.056C106.145 262.96 106.102 262.848 106.102 262.72L106.102 252.288C106.102 252.149 106.145 252.032 106.23 251.936C106.315 251.84 106.433 251.792 106.582 251.792C106.721 251.792 106.833 251.84 106.918 251.936C107.014 252.032 107.062 252.149 107.062 252.288L107.062 254.016L106.838 253.888C106.945 253.557 107.099 253.264 107.302 253.008C107.515 252.741 107.761 252.517 108.038 252.336C108.315 252.144 108.619 252 108.95 251.904C109.281 251.808 109.627 251.76 109.99 251.76ZM109.91 252.656C109.334 252.656 108.827 252.8 108.39 253.088C107.953 253.365 107.606 253.749 107.35 254.24C107.105 254.72 106.982 255.28 106.982 255.92C106.982 256.549 107.105 257.115 107.35 257.616C107.606 258.117 107.953 258.512 108.39 258.8C108.827 259.077 109.334 259.216 109.91 259.216C110.475 259.216 110.971 259.077 111.398 258.8C111.835 258.512 112.182 258.117 112.438 257.616C112.694 257.115 112.822 256.549 112.822 255.92C112.822 255.291 112.694 254.731 112.438 254.24C112.182 253.749 111.835 253.365 111.398 253.088C110.971 252.8 110.475 252.656 109.91 252.656ZM123.101 255.904C123.101 256.715 122.925 257.445 122.573 258.096C122.221 258.736 121.741 259.243 121.133 259.616C120.525 259.979 119.832 260.16 119.053 260.16C118.296 260.16 117.608 259.979 116.989 259.616C116.381 259.243 115.896 258.736 115.533 258.096C115.181 257.445 115.005 256.715 115.005 255.904C115.005 255.083 115.181 254.352 115.533 253.712C115.896 253.072 116.381 252.565 116.989 252.192C117.608 251.819 118.296 251.632 119.053 251.632C119.832 251.632 120.525 251.819 121.133 252.192C121.741 252.565 122.221 253.072 122.573 253.712C122.925 254.352 123.101 255.083 123.101 255.904ZM122.141 255.904C122.141 255.253 122.008 254.677 121.741 254.176C121.475 253.664 121.107 253.264 120.637 252.976C120.179 252.677 119.651 252.528 119.053 252.528C118.477 252.528 117.955 252.677 117.485 252.976C117.016 253.264 116.643 253.664 116.365 254.176C116.099 254.677 115.965 255.253 115.965 255.904C115.965 256.555 116.099 257.131 116.365 257.632C116.643 258.133 117.016 258.533 117.485 258.832C117.955 259.12 118.477 259.264 119.053 259.264C119.651 259.264 120.179 259.12 120.637 258.832C121.107 258.533 121.475 258.133 121.741 257.632C122.008 257.131 122.141 256.555 122.141 255.904ZM124.358 258.704C124.272 258.576 124.23 258.453 124.23 258.336C124.24 258.208 124.31 258.107 124.438 258.032C124.523 257.957 124.619 257.925 124.726 257.936C124.843 257.947 124.95 258 125.046 258.096C125.334 258.469 125.68 258.773 126.086 259.008C126.502 259.232 126.992 259.344 127.558 259.344C127.856 259.344 128.15 259.296 128.438 259.2C128.736 259.093 128.982 258.939 129.174 258.736C129.366 258.523 129.462 258.256 129.462 257.936C129.462 257.605 129.366 257.339 129.174 257.136C128.982 256.933 128.731 256.773 128.422 256.656C128.123 256.539 127.803 256.437 127.462 256.352C127.099 256.256 126.747 256.149 126.406 256.032C126.064 255.904 125.76 255.749 125.494 255.568C125.238 255.376 125.03 255.147 124.87 254.88C124.71 254.613 124.63 254.288 124.63 253.904C124.63 253.456 124.752 253.061 124.998 252.72C125.243 252.379 125.574 252.112 125.99 251.92C126.416 251.728 126.896 251.632 127.43 251.632C127.696 251.632 127.984 251.669 128.294 251.744C128.603 251.808 128.907 251.92 129.206 252.08C129.504 252.24 129.771 252.459 130.006 252.736C130.102 252.832 130.15 252.944 130.15 253.072C130.15 253.189 130.096 253.296 129.99 253.392C129.904 253.456 129.803 253.488 129.686 253.488C129.579 253.488 129.488 253.445 129.414 253.36C129.158 253.072 128.854 252.853 128.502 252.704C128.15 252.555 127.771 252.48 127.366 252.48C127.056 252.48 126.763 252.533 126.486 252.64C126.219 252.736 125.995 252.885 125.814 253.088C125.632 253.291 125.542 253.557 125.542 253.888C125.563 254.197 125.67 254.448 125.862 254.64C126.064 254.832 126.326 254.992 126.646 255.12C126.976 255.248 127.344 255.365 127.75 255.472C128.091 255.557 128.416 255.659 128.726 255.776C129.046 255.893 129.323 256.043 129.558 256.224C129.803 256.395 129.995 256.613 130.134 256.88C130.283 257.147 130.358 257.483 130.358 257.888C130.358 258.357 130.224 258.763 129.958 259.104C129.702 259.445 129.355 259.707 128.918 259.888C128.48 260.069 127.995 260.16 127.462 260.16C126.886 260.16 126.326 260.048 125.782 259.824C125.248 259.6 124.774 259.227 124.358 258.704ZM139.945 251.76C140.67 251.76 141.31 251.941 141.865 252.304C142.43 252.656 142.878 253.147 143.209 253.776C143.539 254.395 143.705 255.109 143.705 255.92C143.705 256.731 143.539 257.451 143.209 258.08C142.878 258.709 142.43 259.205 141.865 259.568C141.299 259.931 140.665 260.112 139.961 260.112C139.587 260.112 139.23 260.059 138.889 259.952C138.558 259.835 138.254 259.68 137.977 259.488C137.699 259.296 137.454 259.072 137.241 258.816C137.027 258.549 136.857 258.261 136.729 257.952L137.017 257.744L137.017 262.72C137.017 262.848 136.969 262.96 136.873 263.056C136.787 263.152 136.675 263.2 136.537 263.2C136.398 263.2 136.281 263.152 136.185 263.056C136.099 262.96 136.057 262.848 136.057 262.72L136.057 252.288C136.057 252.149 136.099 252.032 136.185 251.936C136.27 251.84 136.387 251.792 136.537 251.792C136.675 251.792 136.787 251.84 136.873 251.936C136.969 252.032 137.017 252.149 137.017 252.288L137.017 254.016L136.793 253.888C136.899 253.557 137.054 253.264 137.257 253.008C137.47 252.741 137.715 252.517 137.993 252.336C138.27 252.144 138.574 252 138.905 251.904C139.235 251.808 139.582 251.76 139.945 251.76ZM139.865 252.656C139.289 252.656 138.782 252.8 138.345 253.088C137.907 253.365 137.561 253.749 137.305 254.24C137.059 254.72 136.937 255.28 136.937 255.92C136.937 256.549 137.059 257.115 137.305 257.616C137.561 258.117 137.907 258.512 138.345 258.8C138.782 259.077 139.289 259.216 139.865 259.216C140.43 259.216 140.926 259.077 141.353 258.8C141.79 258.512 142.137 258.117 142.393 257.616C142.649 257.115 142.777 256.549 142.777 255.92C142.777 255.291 142.649 254.731 142.393 254.24C142.137 253.749 141.79 253.365 141.353 253.088C140.926 252.8 140.43 252.656 139.865 252.656ZM145.92 260C145.77 260 145.653 259.952 145.568 259.856C145.482 259.76 145.44 259.648 145.44 259.52L145.44 252.352C145.44 252.224 145.482 252.112 145.568 252.016C145.664 251.92 145.781 251.872 145.92 251.872C146.058 251.872 146.17 251.92 146.256 252.016C146.352 252.112 146.4 252.224 146.4 252.352L146.4 254.752L146.16 254.8C146.192 254.427 146.282 254.059 146.432 253.696C146.592 253.323 146.805 252.981 147.072 252.672C147.338 252.363 147.653 252.112 148.016 251.92C148.389 251.728 148.805 251.632 149.264 251.632C149.456 251.632 149.642 251.675 149.824 251.76C150.005 251.835 150.096 251.963 150.096 252.144C150.096 252.304 150.053 252.427 149.968 252.512C149.882 252.597 149.781 252.64 149.664 252.64C149.568 252.64 149.461 252.613 149.344 252.56C149.237 252.507 149.093 252.48 148.912 252.48C148.613 252.48 148.314 252.571 148.016 252.752C147.717 252.923 147.445 253.157 147.2 253.456C146.954 253.755 146.757 254.091 146.608 254.464C146.469 254.827 146.4 255.195 146.4 255.568L146.4 259.52C146.4 259.648 146.352 259.76 146.256 259.856C146.16 259.952 146.048 260 145.92 260ZM158.532 255.904C158.532 256.715 158.356 257.445 158.004 258.096C157.652 258.736 157.172 259.243 156.564 259.616C155.956 259.979 155.263 260.16 154.484 260.16C153.727 260.16 153.039 259.979 152.42 259.616C151.812 259.243 151.327 258.736 150.964 258.096C150.612 257.445 150.436 256.715 150.436 255.904C150.436 255.083 150.612 254.352 150.964 253.712C151.327 253.072 151.812 252.565 152.42 252.192C153.039 251.819 153.727 251.632 154.484 251.632C155.263 251.632 155.956 251.819 156.564 252.192C157.172 252.565 157.652 253.072 158.004 253.712C158.356 254.352 158.532 255.083 158.532 255.904ZM157.572 255.904C157.572 255.253 157.439 254.677 157.172 254.176C156.906 253.664 156.538 253.264 156.068 252.976C155.61 252.677 155.082 252.528 154.484 252.528C153.908 252.528 153.386 252.677 152.916 252.976C152.447 253.264 152.074 253.664 151.796 254.176C151.53 254.677 151.396 255.253 151.396 255.904C151.396 256.555 151.53 257.131 151.796 257.632C152.074 258.133 152.447 258.533 152.916 258.832C153.386 259.12 153.908 259.264 154.484 259.264C155.082 259.264 155.61 259.12 156.068 258.832C156.538 258.533 156.906 258.133 157.172 257.632C157.439 257.131 157.572 256.555 157.572 255.904ZM164.109 251.632C164.813 251.632 165.373 251.776 165.789 252.064C166.215 252.341 166.519 252.725 166.701 253.216C166.893 253.696 166.989 254.229 166.989 254.816L166.989 259.52C166.989 259.648 166.941 259.76 166.845 259.856C166.749 259.952 166.637 260 166.509 260C166.359 260 166.242 259.952 166.157 259.856C166.071 259.76 166.029 259.648 166.029 259.52L166.029 254.864C166.029 254.437 165.959 254.048 165.821 253.696C165.682 253.344 165.453 253.061 165.133 252.848C164.823 252.635 164.413 252.528 163.901 252.528C163.442 252.528 163.005 252.635 162.589 252.848C162.183 253.061 161.853 253.344 161.597 253.696C161.341 254.048 161.213 254.437 161.213 254.864L161.213 259.52C161.213 259.648 161.165 259.76 161.069 259.856C160.973 259.952 160.861 260 160.733 260C160.583 260 160.466 259.952 160.381 259.856C160.295 259.76 160.253 259.648 160.253 259.52L160.253 252.352C160.253 252.224 160.295 252.112 160.381 252.016C160.477 251.92 160.594 251.872 160.733 251.872C160.871 251.872 160.983 251.92 161.069 252.016C161.165 252.112 161.213 252.224 161.213 252.352L161.213 253.696L160.845 254.272C160.866 253.931 160.973 253.605 161.165 253.296C161.367 252.976 161.623 252.693 161.933 252.448C162.242 252.192 162.583 251.995 162.957 251.856C163.341 251.707 163.725 251.632 164.109 251.632ZM168.655 251.856L172.383 251.856C172.511 251.856 172.617 251.904 172.703 252C172.788 252.085 172.831 252.192 172.831 252.32C172.831 252.437 172.788 252.539 172.703 252.624C172.617 252.709 172.511 252.752 172.383 252.752L168.655 252.752C168.527 252.752 168.415 252.709 168.319 252.624C168.233 252.528 168.191 252.421 168.191 252.304C168.191 252.176 168.233 252.069 168.319 251.984C168.415 251.899 168.527 251.856 168.655 251.856ZM170.303 249.6C170.441 249.6 170.553 249.648 170.639 249.744C170.735 249.84 170.783 249.952 170.783 250.08L170.783 258.112C170.783 258.411 170.82 258.635 170.895 258.784C170.98 258.933 171.087 259.035 171.215 259.088C171.343 259.131 171.471 259.152 171.599 259.152C171.684 259.152 171.759 259.141 171.823 259.12C171.897 259.088 171.977 259.072 172.063 259.072C172.159 259.072 172.239 259.109 172.303 259.184C172.377 259.259 172.415 259.355 172.415 259.472C172.415 259.621 172.329 259.749 172.159 259.856C171.988 259.952 171.785 260 171.551 260C171.455 260 171.311 259.995 171.119 259.984C170.927 259.963 170.729 259.904 170.527 259.808C170.324 259.701 170.153 259.52 170.015 259.264C169.887 259.008 169.823 258.64 169.823 258.16L169.823 250.08C169.823 249.952 169.865 249.84 169.951 249.744C170.047 249.648 170.164 249.6 170.303 249.6ZM181.822 255.904C181.822 256.715 181.646 257.445 181.294 258.096C180.942 258.736 180.462 259.243 179.854 259.616C179.246 259.979 178.553 260.16 177.774 260.16C177.017 260.16 176.329 259.979 175.71 259.616C175.102 259.243 174.617 258.736 174.254 258.096C173.902 257.445 173.726 256.715 173.726 255.904C173.726 255.083 173.902 254.352 174.254 253.712C174.617 253.072 175.102 252.565 175.71 252.192C176.329 251.819 177.017 251.632 177.774 251.632C178.553 251.632 179.246 251.819 179.854 252.192C180.462 252.565 180.942 253.072 181.294 253.712C181.646 254.352 181.822 255.083 181.822 255.904ZM180.862 255.904C180.862 255.253 180.729 254.677 180.462 254.176C180.196 253.664 179.828 253.264 179.358 252.976C178.9 252.677 178.372 252.528 177.774 252.528C177.198 252.528 176.676 252.677 176.206 252.976C175.737 253.264 175.364 253.664 175.086 254.176C174.82 254.677 174.686 255.253 174.686 255.904C174.686 256.555 174.82 257.131 175.086 257.632C175.364 258.133 175.737 258.533 176.206 258.832C176.676 259.12 177.198 259.264 177.774 259.264C178.372 259.264 178.9 259.12 179.358 258.832C179.828 258.533 180.196 258.133 180.462 257.632C180.729 257.131 180.862 256.555 180.862 255.904ZM183.079 258.704C182.993 258.576 182.951 258.453 182.951 258.336C182.961 258.208 183.031 258.107 183.159 258.032C183.244 257.957 183.34 257.925 183.447 257.936C183.564 257.947 183.671 258 183.767 258.096C184.055 258.469 184.401 258.773 184.807 259.008C185.223 259.232 185.713 259.344 186.279 259.344C186.577 259.344 186.871 259.296 187.159 259.2C187.457 259.093 187.703 258.939 187.895 258.736C188.087 258.523 188.183 258.256 188.183 257.936C188.183 257.605 188.087 257.339 187.895 257.136C187.703 256.933 187.452 256.773 187.143 256.656C186.844 256.539 186.524 256.437 186.183 256.352C185.82 256.256 185.468 256.149 185.127 256.032C184.785 255.904 184.481 255.749 184.215 255.568C183.959 255.376 183.751 255.147 183.591 254.88C183.431 254.613 183.351 254.288 183.351 253.904C183.351 253.456 183.473 253.061 183.719 252.72C183.964 252.379 184.295 252.112 184.711 251.92C185.137 251.728 185.617 251.632 186.151 251.632C186.417 251.632 186.705 251.669 187.015 251.744C187.324 251.808 187.628 251.92 187.927 252.08C188.225 252.24 188.492 252.459 188.727 252.736C188.823 252.832 188.871 252.944 188.871 253.072C188.871 253.189 188.817 253.296 188.711 253.392C188.625 253.456 188.524 253.488 188.407 253.488C188.3 253.488 188.209 253.445 188.135 253.36C187.879 253.072 187.575 252.853 187.223 252.704C186.871 252.555 186.492 252.48 186.087 252.48C185.777 252.48 185.484 252.533 185.207 252.64C184.94 252.736 184.716 252.885 184.535 253.088C184.353 253.291 184.263 253.557 184.263 253.888C184.284 254.197 184.391 254.448 184.583 254.64C184.785 254.832 185.047 254.992 185.367 255.12C185.697 255.248 186.065 255.365 186.471 255.472C186.812 255.557 187.137 255.659 187.447 255.776C187.767 255.893 188.044 256.043 188.279 256.224C188.524 256.395 188.716 256.613 188.855 256.88C189.004 257.147 189.079 257.483 189.079 257.888C189.079 258.357 188.945 258.763 188.679 259.104C188.423 259.445 188.076 259.707 187.639 259.888C187.201 260.069 186.716 260.16 186.183 260.16C185.607 260.16 185.047 260.048 184.503 259.824C183.969 259.6 183.495 259.227 183.079 258.704ZM198.474 260.16C197.652 260.16 196.927 259.984 196.298 259.632C195.668 259.28 195.178 258.789 194.826 258.16C194.474 257.531 194.298 256.795 194.298 255.952C194.298 255.045 194.474 254.272 194.826 253.632C195.188 252.992 195.652 252.501 196.218 252.16C196.794 251.808 197.402 251.632 198.042 251.632C198.511 251.632 198.964 251.717 199.402 251.888C199.85 252.048 200.244 252.293 200.586 252.624C200.938 252.944 201.215 253.339 201.418 253.808C201.631 254.277 201.748 254.821 201.77 255.44C201.759 255.568 201.706 255.68 201.61 255.776C201.514 255.861 201.402 255.904 201.274 255.904L194.858 255.904L194.666 255.04L200.97 255.04L200.762 255.232L200.762 254.912C200.719 254.411 200.559 253.984 200.282 253.632C200.004 253.28 199.668 253.013 199.274 252.832C198.879 252.651 198.468 252.56 198.042 252.56C197.722 252.56 197.391 252.624 197.05 252.752C196.719 252.88 196.415 253.083 196.138 253.36C195.871 253.627 195.652 253.973 195.482 254.4C195.311 254.816 195.226 255.312 195.226 255.888C195.226 256.517 195.354 257.088 195.61 257.6C195.866 258.112 196.234 258.517 196.714 258.816C197.204 259.115 197.786 259.264 198.458 259.264C198.831 259.264 199.167 259.211 199.466 259.104C199.764 258.997 200.026 258.859 200.25 258.688C200.474 258.507 200.66 258.32 200.81 258.128C200.927 258.032 201.044 257.984 201.162 257.984C201.268 257.984 201.359 258.027 201.434 258.112C201.519 258.197 201.562 258.293 201.562 258.4C201.562 258.528 201.508 258.64 201.402 258.736C201.082 259.12 200.666 259.456 200.154 259.744C199.642 260.021 199.082 260.16 198.474 260.16ZM211.416 251.632C212.12 251.632 212.68 251.776 213.096 252.064C213.522 252.341 213.826 252.725 214.008 253.216C214.2 253.696 214.296 254.229 214.296 254.816L214.296 259.52C214.296 259.648 214.248 259.76 214.152 259.856C214.056 259.952 213.944 260 213.816 260C213.666 260 213.549 259.952 213.464 259.856C213.378 259.76 213.336 259.648 213.336 259.52L213.336 254.864C213.336 254.437 213.266 254.048 213.128 253.696C212.989 253.344 212.76 253.061 212.44 252.848C212.13 252.635 211.72 252.528 211.208 252.528C210.749 252.528 210.312 252.635 209.896 252.848C209.49 253.061 209.16 253.344 208.904 253.696C208.648 254.048 208.52 254.437 208.52 254.864L208.52 259.52C208.52 259.648 208.472 259.76 208.376 259.856C208.28 259.952 208.168 260 208.04 260C207.89 260 207.773 259.952 207.688 259.856C207.602 259.76 207.56 259.648 207.56 259.52L207.56 252.352C207.56 252.224 207.602 252.112 207.688 252.016C207.784 251.92 207.901 251.872 208.04 251.872C208.178 251.872 208.29 251.92 208.376 252.016C208.472 252.112 208.52 252.224 208.52 252.352L208.52 253.696L208.152 254.272C208.173 253.931 208.28 253.605 208.472 253.296C208.674 252.976 208.93 252.693 209.24 252.448C209.549 252.192 209.89 251.995 210.264 251.856C210.648 251.707 211.032 251.632 211.416 251.632ZM223.194 251.824C223.332 251.824 223.444 251.872 223.53 251.968C223.626 252.064 223.674 252.181 223.674 252.32L223.674 259.52C223.674 259.648 223.626 259.76 223.53 259.856C223.434 259.952 223.322 260 223.194 260C223.055 260 222.938 259.952 222.842 259.856C222.756 259.76 222.714 259.648 222.714 259.52L222.714 257.616L222.986 257.488C222.986 257.787 222.9 258.091 222.73 258.4C222.57 258.709 222.346 258.997 222.058 259.264C221.77 259.531 221.428 259.749 221.034 259.92C220.65 260.08 220.234 260.16 219.786 260.16C219.06 260.16 218.41 259.973 217.834 259.6C217.268 259.227 216.82 258.715 216.49 258.064C216.17 257.413 216.01 256.683 216.01 255.872C216.01 255.04 216.175 254.309 216.506 253.68C216.836 253.04 217.284 252.539 217.85 252.176C218.415 251.813 219.055 251.632 219.77 251.632C220.228 251.632 220.655 251.712 221.05 251.872C221.455 252.032 221.807 252.251 222.106 252.528C222.404 252.805 222.634 253.125 222.794 253.488C222.964 253.84 223.05 254.208 223.05 254.592L222.714 254.352L222.714 252.32C222.714 252.181 222.756 252.064 222.842 251.968C222.938 251.872 223.055 251.824 223.194 251.824ZM219.866 259.264C220.431 259.264 220.932 259.12 221.37 258.832C221.807 258.533 222.148 258.128 222.394 257.616C222.65 257.093 222.778 256.512 222.778 255.872C222.778 255.243 222.65 254.677 222.394 254.176C222.148 253.675 221.807 253.275 221.37 252.976C220.932 252.677 220.431 252.528 219.866 252.528C219.311 252.528 218.81 252.672 218.362 252.96C217.924 253.248 217.578 253.643 217.322 254.144C217.076 254.645 216.954 255.221 216.954 255.872C216.954 256.512 217.076 257.093 217.322 257.616C217.578 258.128 217.924 258.533 218.362 258.832C218.799 259.12 219.3 259.264 219.866 259.264ZM62.864 271.632C63.376 271.632 63.8453 271.691 64.272 271.808C64.6987 271.915 65.04 272.064 65.296 272.256C65.5627 272.448 65.696 272.656 65.696 272.88C65.696 272.987 65.6587 273.093 65.584 273.2C65.5093 273.296 65.408 273.344 65.28 273.344C65.152 273.344 65.0453 273.312 64.96 273.248C64.8853 273.184 64.8053 273.109 64.72 273.024C64.6453 272.939 64.5333 272.859 64.384 272.784C64.2453 272.72 64.048 272.661 63.792 272.608C63.536 272.555 63.2427 272.528 62.912 272.528C62.3147 272.528 61.776 272.677 61.296 272.976C60.816 273.275 60.4373 273.68 60.16 274.192C59.8827 274.693 59.744 275.259 59.744 275.888C59.744 276.528 59.8773 277.104 60.144 277.616C60.4107 278.128 60.7787 278.533 61.248 278.832C61.7173 279.12 62.2667 279.264 62.896 279.264C63.3227 279.264 63.6533 279.227 63.888 279.152C64.1227 279.077 64.3253 278.992 64.496 278.896C64.6987 278.779 64.8427 278.667 64.928 278.56C65.024 278.443 65.1467 278.384 65.296 278.384C65.4347 278.384 65.536 278.427 65.6 278.512C65.6747 278.587 65.712 278.688 65.712 278.816C65.712 278.987 65.584 279.179 65.328 279.392C65.0827 279.595 64.7413 279.776 64.304 279.936C63.8667 280.085 63.3653 280.16 62.8 280.16C62 280.16 61.296 279.973 60.688 279.6C60.0907 279.227 59.6213 278.72 59.28 278.08C58.9493 277.429 58.784 276.699 58.784 275.888C58.784 275.109 58.9547 274.4 59.296 273.76C59.6373 273.12 60.112 272.608 60.72 272.224C61.3387 271.829 62.0533 271.632 62.864 271.632ZM74.8412 275.904C74.8412 276.715 74.6652 277.445 74.3133 278.096C73.9613 278.736 73.4813 279.243 72.8733 279.616C72.2653 279.979 71.5719 280.16 70.7933 280.16C70.0359 280.16 69.3479 279.979 68.7292 279.616C68.1212 279.243 67.6359 278.736 67.2732 278.096C66.9212 277.445 66.7452 276.715 66.7452 275.904C66.7452 275.083 66.9212 274.352 67.2732 273.712C67.6359 273.072 68.1212 272.565 68.7292 272.192C69.3479 271.819 70.0359 271.632 70.7933 271.632C71.5719 271.632 72.2653 271.819 72.8733 272.192C73.4813 272.565 73.9613 273.072 74.3133 273.712C74.6652 274.352 74.8412 275.083 74.8412 275.904ZM73.8813 275.904C73.8813 275.253 73.7479 274.677 73.4813 274.176C73.2146 273.664 72.8466 273.264 72.3773 272.976C71.9186 272.677 71.3906 272.528 70.7933 272.528C70.2173 272.528 69.6946 272.677 69.2253 272.976C68.7559 273.264 68.3826 273.664 68.1052 274.176C67.8386 274.677 67.7052 275.253 67.7052 275.904C67.7052 276.555 67.8386 277.131 68.1052 277.632C68.3826 278.133 68.7559 278.533 69.2253 278.832C69.6946 279.12 70.2173 279.264 70.7933 279.264C71.3906 279.264 71.9186 279.12 72.3773 278.832C72.8466 278.533 73.2146 278.133 73.4813 277.632C73.7479 277.131 73.8813 276.555 73.8813 275.904ZM80.4175 271.632C81.1215 271.632 81.6815 271.776 82.0975 272.064C82.5242 272.341 82.8282 272.725 83.0095 273.216C83.2015 273.696 83.2975 274.229 83.2975 274.816L83.2975 279.52C83.2975 279.648 83.2495 279.76 83.1535 279.856C83.0575 279.952 82.9455 280 82.8175 280C82.6682 280 82.5508 279.952 82.4655 279.856C82.3802 279.76 82.3375 279.648 82.3375 279.52L82.3375 274.864C82.3375 274.437 82.2682 274.048 82.1295 273.696C81.9908 273.344 81.7615 273.061 81.4415 272.848C81.1322 272.635 80.7215 272.528 80.2095 272.528C79.7508 272.528 79.3135 272.635 78.8975 272.848C78.4922 273.061 78.1615 273.344 77.9055 273.696C77.6495 274.048 77.5215 274.437 77.5215 274.864L77.5215 279.52C77.5215 279.648 77.4735 279.76 77.3775 279.856C77.2815 279.952 77.1695 280 77.0415 280C76.8922 280 76.7748 279.952 76.6895 279.856C76.6042 279.76 76.5615 279.648 76.5615 279.52L76.5615 272.352C76.5615 272.224 76.6042 272.112 76.6895 272.016C76.7855 271.92 76.9028 271.872 77.0415 271.872C77.1802 271.872 77.2922 271.92 77.3775 272.016C77.4735 272.112 77.5215 272.224 77.5215 272.352L77.5215 273.696L77.1535 274.272C77.1748 273.931 77.2815 273.605 77.4735 273.296C77.6762 272.976 77.9322 272.693 78.2415 272.448C78.5508 272.192 78.8922 271.995 79.2655 271.856C79.6495 271.707 80.0335 271.632 80.4175 271.632ZM85.0275 278.704C84.9422 278.576 84.8995 278.453 84.8995 278.336C84.9102 278.208 84.9795 278.107 85.1075 278.032C85.1928 277.957 85.2888 277.925 85.3955 277.936C85.5128 277.947 85.6195 278 85.7155 278.096C86.0035 278.469 86.3502 278.773 86.7555 279.008C87.1715 279.232 87.6622 279.344 88.2275 279.344C88.5262 279.344 88.8195 279.296 89.1075 279.2C89.4062 279.093 89.6515 278.939 89.8435 278.736C90.0355 278.523 90.1315 278.256 90.1315 277.936C90.1315 277.605 90.0355 277.339 89.8435 277.136C89.6515 276.933 89.4008 276.773 89.0915 276.656C88.7928 276.539 88.4728 276.437 88.1315 276.352C87.7688 276.256 87.4168 276.149 87.0755 276.032C86.7342 275.904 86.4302 275.749 86.1635 275.568C85.9075 275.376 85.6995 275.147 85.5395 274.88C85.3795 274.613 85.2995 274.288 85.2995 273.904C85.2995 273.456 85.4222 273.061 85.6675 272.72C85.9128 272.379 86.2435 272.112 86.6595 271.92C87.0862 271.728 87.5662 271.632 88.0995 271.632C88.3662 271.632 88.6542 271.669 88.9635 271.744C89.2728 271.808 89.5768 271.92 89.8755 272.08C90.1742 272.24 90.4408 272.459 90.6755 272.736C90.7715 272.832 90.8195 272.944 90.8195 273.072C90.8195 273.189 90.7662 273.296 90.6595 273.392C90.5742 273.456 90.4728 273.488 90.3555 273.488C90.2488 273.488 90.1582 273.445 90.0835 273.36C89.8275 273.072 89.5235 272.853 89.1715 272.704C88.8195 272.555 88.4408 272.48 88.0355 272.48C87.7262 272.48 87.4328 272.533 87.1555 272.64C86.8888 272.736 86.6648 272.885 86.4835 273.088C86.3022 273.291 86.2115 273.557 86.2115 273.888C86.2328 274.197 86.3395 274.448 86.5315 274.64C86.7342 274.832 86.9955 274.992 87.3155 275.12C87.6462 275.248 88.0142 275.365 88.4195 275.472C88.7608 275.557 89.0862 275.659 89.3955 275.776C89.7155 275.893 89.9928 276.043 90.2275 276.224C90.4728 276.395 90.6648 276.613 90.8035 276.88C90.9528 277.147 91.0275 277.483 91.0275 277.888C91.0275 278.357 90.8942 278.763 90.6275 279.104C90.3715 279.445 90.0248 279.707 89.5875 279.888C89.1502 280.069 88.6648 280.16 88.1315 280.16C87.5555 280.16 86.9955 280.048 86.4515 279.824C85.9182 279.6 85.4435 279.227 85.0275 278.704ZM92.1435 271.856L95.8715 271.856C95.9995 271.856 96.1062 271.904 96.1915 272C96.2768 272.085 96.3195 272.192 96.3195 272.32C96.3195 272.437 96.2768 272.539 96.1915 272.624C96.1062 272.709 95.9995 272.752 95.8715 272.752L92.1435 272.752C92.0155 272.752 91.9035 272.709 91.8075 272.624C91.7222 272.528 91.6795 272.421 91.6795 272.304C91.6795 272.176 91.7222 272.069 91.8075 271.984C91.9035 271.899 92.0155 271.856 92.1435 271.856ZM93.7915 269.6C93.9302 269.6 94.0422 269.648 94.1275 269.744C94.2235 269.84 94.2715 269.952 94.2715 270.08L94.2715 278.112C94.2715 278.411 94.3088 278.635 94.3835 278.784C94.4688 278.933 94.5755 279.035 94.7035 279.088C94.8315 279.131 94.9595 279.152 95.0875 279.152C95.1728 279.152 95.2475 279.141 95.3115 279.12C95.3862 279.088 95.4662 279.072 95.5515 279.072C95.6475 279.072 95.7275 279.109 95.7915 279.184C95.8662 279.259 95.9035 279.355 95.9035 279.472C95.9035 279.621 95.8182 279.749 95.6475 279.856C95.4768 279.952 95.2742 280 95.0395 280C94.9435 280 94.7995 279.995 94.6075 279.984C94.4155 279.963 94.2182 279.904 94.0155 279.808C93.8128 279.701 93.6422 279.52 93.5035 279.264C93.3755 279.008 93.3115 278.64 93.3115 278.16L93.3115 270.08C93.3115 269.952 93.3542 269.84 93.4395 269.744C93.5355 269.648 93.6528 269.6 93.7915 269.6ZM98.2534 280C98.104 280 97.9867 279.952 97.9014 279.856C97.816 279.76 97.7734 279.648 97.7734 279.52L97.7734 272.352C97.7734 272.224 97.816 272.112 97.9014 272.016C97.9974 271.92 98.1147 271.872 98.2534 271.872C98.392 271.872 98.504 271.92 98.5894 272.016C98.6854 272.112 98.7334 272.224 98.7334 272.352L98.7334 274.752L98.4934 274.8C98.5254 274.427 98.616 274.059 98.7654 273.696C98.9254 273.323 99.1387 272.981 99.4054 272.672C99.672 272.363 99.9867 272.112 100.349 271.92C100.723 271.728 101.139 271.632 101.597 271.632C101.789 271.632 101.976 271.675 102.157 271.76C102.339 271.835 102.429 271.963 102.429 272.144C102.429 272.304 102.387 272.427 102.301 272.512C102.216 272.597 102.115 272.64 101.997 272.64C101.901 272.64 101.795 272.613 101.677 272.56C101.571 272.507 101.427 272.48 101.245 272.48C100.947 272.48 100.648 272.571 100.349 272.752C100.051 272.923 99.7787 273.157 99.5334 273.456C99.288 273.755 99.0907 274.091 98.9414 274.464C98.8027 274.827 98.7334 275.195 98.7334 275.568L98.7334 279.52C98.7334 279.648 98.6854 279.76 98.5894 279.856C98.4934 279.952 98.3814 280 98.2534 280ZM109.722 271.872C109.86 271.872 109.972 271.92 110.058 272.016C110.154 272.112 110.202 272.224 110.202 272.352L110.202 276.864C110.202 277.92 109.903 278.725 109.306 279.28C108.708 279.835 107.903 280.112 106.89 280.112C105.887 280.112 105.087 279.835 104.49 279.28C103.903 278.725 103.61 277.92 103.61 276.864L103.61 272.352C103.61 272.224 103.652 272.112 103.738 272.016C103.834 271.92 103.951 271.872 104.09 271.872C104.228 271.872 104.34 271.92 104.426 272.016C104.522 272.112 104.57 272.224 104.57 272.352L104.57 276.864C104.57 277.632 104.772 278.219 105.178 278.624C105.594 279.019 106.164 279.216 106.89 279.216C107.626 279.216 108.202 279.019 108.618 278.624C109.034 278.219 109.242 277.632 109.242 276.864L109.242 272.352C109.242 272.224 109.284 272.112 109.37 272.016C109.455 271.92 109.572 271.872 109.722 271.872ZM115.999 271.632C116.511 271.632 116.98 271.691 117.407 271.808C117.834 271.915 118.175 272.064 118.431 272.256C118.698 272.448 118.831 272.656 118.831 272.88C118.831 272.987 118.794 273.093 118.719 273.2C118.644 273.296 118.543 273.344 118.415 273.344C118.287 273.344 118.18 273.312 118.095 273.248C118.02 273.184 117.94 273.109 117.855 273.024C117.78 272.939 117.668 272.859 117.519 272.784C117.38 272.72 117.183 272.661 116.927 272.608C116.671 272.555 116.378 272.528 116.047 272.528C115.45 272.528 114.911 272.677 114.431 272.976C113.951 273.275 113.572 273.68 113.295 274.192C113.018 274.693 112.879 275.259 112.879 275.888C112.879 276.528 113.012 277.104 113.279 277.616C113.546 278.128 113.914 278.533 114.383 278.832C114.852 279.12 115.402 279.264 116.031 279.264C116.458 279.264 116.788 279.227 117.023 279.152C117.258 279.077 117.46 278.992 117.631 278.896C117.834 278.779 117.978 278.667 118.063 278.56C118.159 278.443 118.282 278.384 118.431 278.384C118.57 278.384 118.671 278.427 118.735 278.512C118.81 278.587 118.847 278.688 118.847 278.816C118.847 278.987 118.719 279.179 118.463 279.392C118.218 279.595 117.876 279.776 117.439 279.936C117.002 280.085 116.5 280.16 115.935 280.16C115.135 280.16 114.431 279.973 113.823 279.6C113.226 279.227 112.756 278.72 112.415 278.08C112.084 277.429 111.919 276.699 111.919 275.888C111.919 275.109 112.09 274.4 112.431 273.76C112.772 273.12 113.247 272.608 113.855 272.224C114.474 271.829 115.188 271.632 115.999 271.632ZM114.959 282.288C114.884 282.288 114.794 282.267 114.687 282.224C114.58 282.181 114.484 282.123 114.399 282.048C114.314 281.973 114.271 281.888 114.271 281.792C114.271 281.675 114.308 281.579 114.383 281.504L115.775 279.76L116.399 279.76L115.375 281.984C115.279 282.187 115.14 282.288 114.959 282.288ZM127.064 271.824C127.203 271.824 127.315 271.872 127.4 271.968C127.496 272.064 127.544 272.181 127.544 272.32L127.544 279.52C127.544 279.648 127.496 279.76 127.4 279.856C127.304 279.952 127.192 280 127.064 280C126.926 280 126.808 279.952 126.712 279.856C126.627 279.76 126.584 279.648 126.584 279.52L126.584 277.616L126.856 277.488C126.856 277.787 126.771 278.091 126.6 278.4C126.44 278.709 126.216 278.997 125.928 279.264C125.64 279.531 125.299 279.749 124.904 279.92C124.52 280.08 124.104 280.16 123.656 280.16C122.931 280.16 122.28 279.973 121.704 279.6C121.139 279.227 120.691 278.715 120.36 278.064C120.04 277.413 119.88 276.683 119.88 275.872C119.88 275.04 120.046 274.309 120.376 273.68C120.707 273.04 121.155 272.539 121.72 272.176C122.286 271.813 122.926 271.632 123.64 271.632C124.099 271.632 124.526 271.712 124.92 271.872C125.326 272.032 125.678 272.251 125.976 272.528C126.275 272.805 126.504 273.125 126.664 273.488C126.835 273.84 126.92 274.208 126.92 274.592L126.584 274.352L126.584 272.32C126.584 272.181 126.627 272.064 126.712 271.968C126.808 271.872 126.926 271.824 127.064 271.824ZM123.736 279.264C124.302 279.264 124.803 279.12 125.24 278.832C125.678 278.533 126.019 278.128 126.264 277.616C126.52 277.093 126.648 276.512 126.648 275.872C126.648 275.243 126.52 274.677 126.264 274.176C126.019 273.675 125.678 273.275 125.24 272.976C124.803 272.677 124.302 272.528 123.736 272.528C123.182 272.528 122.68 272.672 122.232 272.96C121.795 273.248 121.448 273.643 121.192 274.144C120.947 274.645 120.824 275.221 120.824 275.872C120.824 276.512 120.947 277.093 121.192 277.616C121.448 278.128 121.795 278.533 122.232 278.832C122.67 279.12 123.171 279.264 123.736 279.264ZM121.768 270.688C121.598 270.688 121.486 270.629 121.432 270.512C121.39 270.395 121.384 270.224 121.416 270C121.48 269.648 121.646 269.381 121.912 269.2C122.179 269.008 122.494 268.912 122.856 268.912C123.048 268.912 123.24 268.96 123.432 269.056C123.635 269.152 123.832 269.259 124.024 269.376C124.216 269.493 124.392 269.6 124.552 269.696C124.723 269.792 124.878 269.84 125.016 269.84C125.166 269.84 125.283 269.787 125.368 269.68C125.464 269.573 125.518 269.424 125.528 269.232C125.518 269.115 125.55 269.019 125.624 268.944C125.699 268.869 125.79 268.832 125.896 268.832C126.078 268.832 126.195 268.896 126.248 269.024C126.302 269.141 126.318 269.301 126.296 269.504C126.254 269.739 126.168 269.941 126.04 270.112C125.923 270.283 125.768 270.416 125.576 270.512C125.384 270.597 125.16 270.64 124.904 270.64C124.744 270.64 124.563 270.597 124.36 270.512C124.168 270.416 123.976 270.309 123.784 270.192C123.592 270.075 123.406 269.973 123.224 269.888C123.054 269.792 122.894 269.744 122.744 269.744C122.606 269.744 122.483 269.792 122.376 269.888C122.27 269.973 122.19 270.123 122.136 270.336C122.147 270.443 122.11 270.528 122.024 270.592C121.95 270.656 121.864 270.688 121.768 270.688ZM137.359 275.904C137.359 276.715 137.183 277.445 136.831 278.096C136.479 278.736 135.999 279.243 135.391 279.616C134.783 279.979 134.09 280.16 133.311 280.16C132.554 280.16 131.866 279.979 131.247 279.616C130.639 279.243 130.154 278.736 129.791 278.096C129.439 277.445 129.263 276.715 129.263 275.904C129.263 275.083 129.439 274.352 129.791 273.712C130.154 273.072 130.639 272.565 131.247 272.192C131.866 271.819 132.554 271.632 133.311 271.632C134.09 271.632 134.783 271.819 135.391 272.192C135.999 272.565 136.479 273.072 136.831 273.712C137.183 274.352 137.359 275.083 137.359 275.904ZM136.399 275.904C136.399 275.253 136.266 274.677 135.999 274.176C135.733 273.664 135.365 273.264 134.895 272.976C134.437 272.677 133.909 272.528 133.311 272.528C132.735 272.528 132.213 272.677 131.743 272.976C131.274 273.264 130.901 273.664 130.623 274.176C130.357 274.677 130.223 275.253 130.223 275.904C130.223 276.555 130.357 277.131 130.623 277.632C130.901 278.133 131.274 278.533 131.743 278.832C132.213 279.12 132.735 279.264 133.311 279.264C133.909 279.264 134.437 279.12 134.895 278.832C135.365 278.533 135.733 278.133 135.999 277.632C136.266 277.131 136.399 276.555 136.399 275.904ZM149.839 268.16C149.977 268.16 150.089 268.208 150.175 268.304C150.271 268.389 150.319 268.501 150.319 268.64L150.319 279.52C150.319 279.648 150.271 279.76 150.175 279.856C150.079 279.952 149.967 280 149.839 280C149.7 280 149.583 279.952 149.487 279.856C149.401 279.76 149.359 279.648 149.359 279.52L149.359 277.616L149.631 277.392C149.631 277.691 149.551 278.005 149.391 278.336C149.231 278.656 149.001 278.955 148.703 279.232C148.415 279.509 148.073 279.733 147.679 279.904C147.295 280.075 146.879 280.16 146.431 280.16C145.716 280.16 145.071 279.973 144.495 279.6C143.929 279.227 143.481 278.72 143.151 278.08C142.82 277.44 142.655 276.709 142.655 275.888C142.655 275.077 142.82 274.352 143.151 273.712C143.481 273.061 143.929 272.555 144.495 272.192C145.06 271.819 145.7 271.632 146.415 271.632C146.852 271.632 147.268 271.712 147.663 271.872C148.057 272.032 148.404 272.251 148.703 272.528C149.012 272.805 149.252 273.125 149.423 273.488C149.604 273.84 149.695 274.208 149.695 274.592L149.359 274.352L149.359 268.64C149.359 268.512 149.401 268.4 149.487 268.304C149.583 268.208 149.7 268.16 149.839 268.16ZM146.511 279.264C147.087 279.264 147.588 279.12 148.015 278.832C148.452 278.533 148.793 278.133 149.039 277.632C149.295 277.12 149.423 276.539 149.423 275.888C149.423 275.248 149.295 274.677 149.039 274.176C148.793 273.664 148.452 273.264 148.015 272.976C147.577 272.677 147.076 272.528 146.511 272.528C145.956 272.528 145.455 272.677 145.007 272.976C144.569 273.264 144.223 273.664 143.967 274.176C143.721 274.677 143.599 275.248 143.599 275.888C143.599 276.528 143.721 277.104 143.967 277.616C144.223 278.128 144.569 278.533 145.007 278.832C145.455 279.12 145.956 279.264 146.511 279.264ZM156.214 280.16C155.392 280.16 154.667 279.984 154.038 279.632C153.408 279.28 152.918 278.789 152.566 278.16C152.214 277.531 152.038 276.795 152.038 275.952C152.038 275.045 152.214 274.272 152.566 273.632C152.928 272.992 153.392 272.501 153.958 272.16C154.534 271.808 155.142 271.632 155.782 271.632C156.251 271.632 156.704 271.717 157.142 271.888C157.59 272.048 157.984 272.293 158.326 272.624C158.678 272.944 158.955 273.339 159.158 273.808C159.371 274.277 159.488 274.821 159.51 275.44C159.499 275.568 159.446 275.68 159.35 275.776C159.254 275.861 159.142 275.904 159.014 275.904L152.598 275.904L152.406 275.04L158.71 275.04L158.502 275.232L158.502 274.912C158.459 274.411 158.299 273.984 158.022 273.632C157.744 273.28 157.408 273.013 157.014 272.832C156.619 272.651 156.208 272.56 155.782 272.56C155.462 272.56 155.131 272.624 154.79 272.752C154.459 272.88 154.155 273.083 153.878 273.36C153.611 273.627 153.392 273.973 153.222 274.4C153.051 274.816 152.966 275.312 152.966 275.888C152.966 276.517 153.094 277.088 153.35 277.6C153.606 278.112 153.974 278.517 154.454 278.816C154.944 279.115 155.526 279.264 156.198 279.264C156.571 279.264 156.907 279.211 157.206 279.104C157.504 278.997 157.766 278.859 157.99 278.688C158.214 278.507 158.4 278.32 158.55 278.128C158.667 278.032 158.784 277.984 158.902 277.984C159.008 277.984 159.099 278.027 159.174 278.112C159.259 278.197 159.302 278.293 159.302 278.4C159.302 278.528 159.248 278.64 159.142 278.736C158.822 279.12 158.406 279.456 157.894 279.744C157.382 280.021 156.822 280.16 156.214 280.16ZM169.156 271.632C169.86 271.632 170.42 271.776 170.836 272.064C171.262 272.341 171.566 272.725 171.748 273.216C171.94 273.696 172.036 274.229 172.036 274.816L172.036 279.52C172.036 279.648 171.988 279.76 171.892 279.856C171.796 279.952 171.684 280 171.556 280C171.406 280 171.289 279.952 171.204 279.856C171.118 279.76 171.076 279.648 171.076 279.52L171.076 274.864C171.076 274.437 171.006 274.048 170.868 273.696C170.729 273.344 170.5 273.061 170.18 272.848C169.87 272.635 169.46 272.528 168.948 272.528C168.489 272.528 168.052 272.635 167.636 272.848C167.23 273.061 166.9 273.344 166.644 273.696C166.388 274.048 166.26 274.437 166.26 274.864L166.26 279.52C166.26 279.648 166.212 279.76 166.116 279.856C166.02 279.952 165.908 280 165.78 280C165.63 280 165.513 279.952 165.428 279.856C165.342 279.76 165.3 279.648 165.3 279.52L165.3 272.352C165.3 272.224 165.342 272.112 165.428 272.016C165.524 271.92 165.641 271.872 165.78 271.872C165.918 271.872 166.03 271.92 166.116 272.016C166.212 272.112 166.26 272.224 166.26 272.352L166.26 273.696L165.892 274.272C165.913 273.931 166.02 273.605 166.212 273.296C166.414 272.976 166.67 272.693 166.98 272.448C167.289 272.192 167.63 271.995 168.004 271.856C168.388 271.707 168.772 271.632 169.156 271.632ZM181.846 275.904C181.846 276.715 181.67 277.445 181.318 278.096C180.966 278.736 180.486 279.243 179.878 279.616C179.27 279.979 178.576 280.16 177.798 280.16C177.04 280.16 176.352 279.979 175.734 279.616C175.126 279.243 174.64 278.736 174.278 278.096C173.926 277.445 173.75 276.715 173.75 275.904C173.75 275.083 173.926 274.352 174.278 273.712C174.64 273.072 175.126 272.565 175.734 272.192C176.352 271.819 177.04 271.632 177.798 271.632C178.576 271.632 179.27 271.819 179.878 272.192C180.486 272.565 180.966 273.072 181.318 273.712C181.67 274.352 181.846 275.083 181.846 275.904ZM180.886 275.904C180.886 275.253 180.752 274.677 180.486 274.176C180.219 273.664 179.851 273.264 179.382 272.976C178.923 272.677 178.395 272.528 177.798 272.528C177.222 272.528 176.699 272.677 176.23 272.976C175.76 273.264 175.387 273.664 175.11 274.176C174.843 274.677 174.71 275.253 174.71 275.904C174.71 276.555 174.843 277.131 175.11 277.632C175.387 278.133 175.76 278.533 176.23 278.832C176.699 279.12 177.222 279.264 177.798 279.264C178.395 279.264 178.923 279.12 179.382 278.832C179.851 278.533 180.219 278.133 180.486 277.632C180.752 277.131 180.886 276.555 180.886 275.904ZM183.296 271.648C183.381 271.648 183.466 271.675 183.552 271.728C183.637 271.781 183.701 271.861 183.744 271.968L186.544 278.624L186.336 278.752L189.2 271.968C189.285 271.755 189.44 271.653 189.664 271.664C189.77 271.664 189.872 271.701 189.968 271.776C190.064 271.84 190.112 271.936 190.112 272.064C190.112 272.128 190.101 272.181 190.08 272.224C190.069 272.256 190.058 272.293 190.048 272.336L186.912 279.696C186.826 279.888 186.682 279.989 186.48 280C186.384 280.011 186.288 279.989 186.192 279.936C186.106 279.872 186.042 279.792 186 279.696L182.848 272.336C182.837 272.315 182.826 272.283 182.816 272.24C182.805 272.197 182.8 272.155 182.8 272.112C182.8 271.995 182.842 271.888 182.928 271.792C183.013 271.696 183.136 271.648 183.296 271.648ZM199.174 275.904C199.174 276.715 198.998 277.445 198.646 278.096C198.294 278.736 197.814 279.243 197.206 279.616C196.598 279.979 195.905 280.16 195.126 280.16C194.369 280.16 193.681 279.979 193.062 279.616C192.454 279.243 191.969 278.736 191.606 278.096C191.254 277.445 191.078 276.715 191.078 275.904C191.078 275.083 191.254 274.352 191.606 273.712C191.969 273.072 192.454 272.565 193.062 272.192C193.681 271.819 194.369 271.632 195.126 271.632C195.905 271.632 196.598 271.819 197.206 272.192C197.814 272.565 198.294 273.072 198.646 273.712C198.998 274.352 199.174 275.083 199.174 275.904ZM198.214 275.904C198.214 275.253 198.081 274.677 197.814 274.176C197.548 273.664 197.18 273.264 196.71 272.976C196.252 272.677 195.724 272.528 195.126 272.528C194.55 272.528 194.028 272.677 193.558 272.976C193.089 273.264 192.716 273.664 192.438 274.176C192.172 274.677 192.038 275.253 192.038 275.904C192.038 276.555 192.172 277.131 192.438 277.632C192.716 278.133 193.089 278.533 193.558 278.832C194.028 279.12 194.55 279.264 195.126 279.264C195.724 279.264 196.252 279.12 196.71 278.832C197.18 278.533 197.548 278.133 197.814 277.632C198.081 277.131 198.214 276.555 198.214 275.904ZM200.431 278.704C200.345 278.576 200.303 278.453 200.303 278.336C200.313 278.208 200.383 278.107 200.511 278.032C200.596 277.957 200.692 277.925 200.799 277.936C200.916 277.947 201.023 278 201.119 278.096C201.407 278.469 201.753 278.773 202.159 279.008C202.575 279.232 203.065 279.344 203.631 279.344C203.929 279.344 204.223 279.296 204.511 279.2C204.809 279.093 205.055 278.939 205.247 278.736C205.439 278.523 205.535 278.256 205.535 277.936C205.535 277.605 205.439 277.339 205.247 277.136C205.055 276.933 204.804 276.773 204.495 276.656C204.196 276.539 203.876 276.437 203.535 276.352C203.172 276.256 202.82 276.149 202.479 276.032C202.137 275.904 201.833 275.749 201.567 275.568C201.311 275.376 201.103 275.147 200.943 274.88C200.783 274.613 200.703 274.288 200.703 273.904C200.703 273.456 200.825 273.061 201.071 272.72C201.316 272.379 201.647 272.112 202.063 271.92C202.489 271.728 202.969 271.632 203.503 271.632C203.769 271.632 204.057 271.669 204.367 271.744C204.676 271.808 204.98 271.92 205.279 272.08C205.577 272.24 205.844 272.459 206.079 272.736C206.175 272.832 206.223 272.944 206.223 273.072C206.223 273.189 206.169 273.296 206.063 273.392C205.977 273.456 205.876 273.488 205.759 273.488C205.652 273.488 205.561 273.445 205.487 273.36C205.231 273.072 204.927 272.853 204.575 272.704C204.223 272.555 203.844 272.48 203.439 272.48C203.129 272.48 202.836 272.533 202.559 272.64C202.292 272.736 202.068 272.885 201.887 273.088C201.705 273.291 201.615 273.557 201.615 273.888C201.636 274.197 201.743 274.448 201.935 274.64C202.137 274.832 202.399 274.992 202.719 275.12C203.049 275.248 203.417 275.365 203.823 275.472C204.164 275.557 204.489 275.659 204.799 275.776C205.119 275.893 205.396 276.043 205.631 276.224C205.876 276.395 206.068 276.613 206.207 276.88C206.356 277.147 206.431 277.483 206.431 277.888C206.431 278.357 206.297 278.763 206.031 279.104C205.775 279.445 205.428 279.707 204.991 279.888C204.553 280.069 204.068 280.16 203.535 280.16C202.959 280.16 202.399 280.048 201.855 279.824C201.321 279.6 200.847 279.227 200.431 278.704ZM213.186 279.52C213.186 279.648 213.138 279.76 213.042 279.856C212.946 279.952 212.834 280 212.706 280C212.567 280 212.45 279.952 212.354 279.856C212.268 279.76 212.226 279.648 212.226 279.52L212.226 268.64C212.226 268.512 212.274 268.4 212.37 268.304C212.466 268.208 212.578 268.16 212.706 268.16C212.844 268.16 212.956 268.208 213.042 268.304C213.138 268.4 213.186 268.512 213.186 268.64L213.186 279.52ZM222.201 271.824C222.34 271.824 222.452 271.872 222.537 271.968C222.633 272.064 222.681 272.181 222.681 272.32L222.681 279.52C222.681 279.648 222.633 279.76 222.537 279.856C222.441 279.952 222.329 280 222.201 280C222.062 280 221.945 279.952 221.849 279.856C221.764 279.76 221.721 279.648 221.721 279.52L221.721 277.616L221.993 277.488C221.993 277.787 221.908 278.091 221.737 278.4C221.577 278.709 221.353 278.997 221.065 279.264C220.777 279.531 220.436 279.749 220.041 279.92C219.657 280.08 219.241 280.16 218.793 280.16C218.068 280.16 217.417 279.973 216.841 279.6C216.276 279.227 215.828 278.715 215.497 278.064C215.177 277.413 215.017 276.683 215.017 275.872C215.017 275.04 215.182 274.309 215.513 273.68C215.844 273.04 216.292 272.539 216.857 272.176C217.422 271.813 218.062 271.632 218.777 271.632C219.236 271.632 219.662 271.712 220.057 271.872C220.462 272.032 220.814 272.251 221.113 272.528C221.412 272.805 221.641 273.125 221.801 273.488C221.972 273.84 222.057 274.208 222.057 274.592L221.721 274.352L221.721 272.32C221.721 272.181 221.764 272.064 221.849 271.968C221.945 271.872 222.062 271.824 222.201 271.824ZM218.873 279.264C219.438 279.264 219.94 279.12 220.377 278.832C220.814 278.533 221.156 278.128 221.401 277.616C221.657 277.093 221.785 276.512 221.785 275.872C221.785 275.243 221.657 274.677 221.401 274.176C221.156 273.675 220.814 273.275 220.377 272.976C219.94 272.677 219.438 272.528 218.873 272.528C218.318 272.528 217.817 272.672 217.369 272.96C216.932 273.248 216.585 273.643 216.329 274.144C216.084 274.645 215.961 275.221 215.961 275.872C215.961 276.512 216.084 277.093 216.329 277.616C216.585 278.128 216.932 278.533 217.369 278.832C217.806 279.12 218.308 279.264 218.873 279.264ZM230.976 271.68C231.115 271.68 231.227 271.728 231.312 271.824C231.408 271.92 231.456 272.032 231.456 272.16L231.456 279.216C231.456 280.08 231.286 280.805 230.944 281.392C230.603 281.989 230.144 282.437 229.568 282.736C228.992 283.045 228.336 283.2 227.6 283.2C227.142 283.2 226.715 283.147 226.32 283.04C225.936 282.944 225.622 282.816 225.376 282.656C225.248 282.581 225.152 282.491 225.088 282.384C225.024 282.277 225.019 282.165 225.072 282.048C225.126 281.899 225.206 281.797 225.312 281.744C225.43 281.701 225.547 281.707 225.664 281.76C225.846 281.856 226.107 281.973 226.448 282.112C226.79 282.251 227.179 282.32 227.616 282.32C228.203 282.32 228.71 282.197 229.136 281.952C229.574 281.707 229.91 281.349 230.144 280.88C230.379 280.421 230.496 279.872 230.496 279.232L230.496 278.08L230.608 278.464C230.448 278.795 230.219 279.088 229.92 279.344C229.632 279.6 229.296 279.803 228.912 279.952C228.539 280.091 228.139 280.16 227.712 280.16C227.072 280.16 226.539 280.032 226.112 279.776C225.696 279.509 225.387 279.147 225.184 278.688C224.982 278.229 224.88 277.691 224.88 277.072L224.88 272.16C224.88 272.032 224.923 271.92 225.008 271.824C225.094 271.728 225.211 271.68 225.36 271.68C225.499 271.68 225.611 271.728 225.696 271.824C225.792 271.92 225.84 272.032 225.84 272.16L225.84 276.928C225.84 277.675 226 278.251 226.32 278.656C226.651 279.061 227.184 279.264 227.92 279.264C228.379 279.264 228.8 279.157 229.184 278.944C229.568 278.72 229.883 278.432 230.128 278.08C230.374 277.717 230.496 277.333 230.496 276.928L230.496 272.16C230.496 272.032 230.539 271.92 230.624 271.824C230.72 271.728 230.838 271.68 230.976 271.68ZM241.192 275.904C241.192 276.715 241.016 277.445 240.664 278.096C240.312 278.736 239.832 279.243 239.224 279.616C238.616 279.979 237.923 280.16 237.144 280.16C236.387 280.16 235.699 279.979 235.08 279.616C234.472 279.243 233.987 278.736 233.624 278.096C233.272 277.445 233.096 276.715 233.096 275.904C233.096 275.083 233.272 274.352 233.624 273.712C233.987 273.072 234.472 272.565 235.08 272.192C235.699 271.819 236.387 271.632 237.144 271.632C237.923 271.632 238.616 271.819 239.224 272.192C239.832 272.565 240.312 273.072 240.664 273.712C241.016 274.352 241.192 275.083 241.192 275.904ZM240.232 275.904C240.232 275.253 240.099 274.677 239.832 274.176C239.565 273.664 239.197 273.264 238.728 272.976C238.269 272.677 237.741 272.528 237.144 272.528C236.568 272.528 236.045 272.677 235.576 272.976C235.107 273.264 234.733 273.664 234.456 274.176C234.189 274.677 234.056 275.253 234.056 275.904C234.056 276.555 234.189 277.131 234.456 277.632C234.733 278.133 235.107 278.533 235.576 278.832C236.045 279.12 236.568 279.264 237.144 279.264C237.741 279.264 238.269 279.12 238.728 278.832C239.197 278.533 239.565 278.133 239.832 277.632C240.099 277.131 240.232 276.555 240.232 275.904ZM249.024 271.872C249.163 271.872 249.275 271.92 249.36 272.016C249.456 272.112 249.504 272.224 249.504 272.352L249.504 276.864C249.504 277.92 249.205 278.725 248.608 279.28C248.011 279.835 247.205 280.112 246.192 280.112C245.189 280.112 244.389 279.835 243.792 279.28C243.205 278.725 242.912 277.92 242.912 276.864L242.912 272.352C242.912 272.224 242.955 272.112 243.04 272.016C243.136 271.92 243.253 271.872 243.392 271.872C243.531 271.872 243.643 271.92 243.728 272.016C243.824 272.112 243.872 272.224 243.872 272.352L243.872 276.864C243.872 277.632 244.075 278.219 244.48 278.624C244.896 279.019 245.467 279.216 246.192 279.216C246.928 279.216 247.504 279.019 247.92 278.624C248.336 278.219 248.544 277.632 248.544 276.864L248.544 272.352C248.544 272.224 248.587 272.112 248.672 272.016C248.757 271.92 248.875 271.872 249.024 271.872ZM251.174 271.856L254.902 271.856C255.03 271.856 255.136 271.904 255.222 272C255.307 272.085 255.35 272.192 255.35 272.32C255.35 272.437 255.307 272.539 255.222 272.624C255.136 272.709 255.03 272.752 254.902 272.752L251.174 272.752C251.046 272.752 250.934 272.709 250.838 272.624C250.752 272.528 250.71 272.421 250.71 272.304C250.71 272.176 250.752 272.069 250.838 271.984C250.934 271.899 251.046 271.856 251.174 271.856ZM252.822 269.6C252.96 269.6 253.072 269.648 253.158 269.744C253.254 269.84 253.302 269.952 253.302 270.08L253.302 278.112C253.302 278.411 253.339 278.635 253.414 278.784C253.499 278.933 253.606 279.035 253.734 279.088C253.862 279.131 253.99 279.152 254.118 279.152C254.203 279.152 254.278 279.141 254.342 279.12C254.416 279.088 254.496 279.072 254.582 279.072C254.678 279.072 254.758 279.109 254.822 279.184C254.896 279.259 254.934 279.355 254.934 279.472C254.934 279.621 254.848 279.749 254.678 279.856C254.507 279.952 254.304 280 254.07 280C253.974 280 253.83 279.995 253.638 279.984C253.446 279.963 253.248 279.904 253.046 279.808C252.843 279.701 252.672 279.52 252.534 279.264C252.406 279.008 252.342 278.64 252.342 278.16L252.342 270.08C252.342 269.952 252.384 269.84 252.47 269.744C252.566 269.648 252.683 269.6 252.822 269.6ZM256.652 278.704C256.567 278.576 256.524 278.453 256.524 278.336C256.535 278.208 256.604 278.107 256.732 278.032C256.817 277.957 256.913 277.925 257.02 277.936C257.137 277.947 257.244 278 257.34 278.096C257.628 278.469 257.975 278.773 258.38 279.008C258.796 279.232 259.287 279.344 259.852 279.344C260.151 279.344 260.444 279.296 260.732 279.2C261.031 279.093 261.276 278.939 261.468 278.736C261.66 278.523 261.756 278.256 261.756 277.936C261.756 277.605 261.66 277.339 261.468 277.136C261.276 276.933 261.025 276.773 260.716 276.656C260.417 276.539 260.097 276.437 259.756 276.352C259.393 276.256 259.041 276.149 258.7 276.032C258.359 275.904 258.055 275.749 257.788 275.568C257.532 275.376 257.324 275.147 257.164 274.88C257.004 274.613 256.924 274.288 256.924 273.904C256.924 273.456 257.047 273.061 257.292 272.72C257.537 272.379 257.868 272.112 258.284 271.92C258.711 271.728 259.191 271.632 259.724 271.632C259.991 271.632 260.279 271.669 260.588 271.744C260.897 271.808 261.201 271.92 261.5 272.08C261.799 272.24 262.065 272.459 262.3 272.736C262.396 272.832 262.444 272.944 262.444 273.072C262.444 273.189 262.391 273.296 262.284 273.392C262.199 273.456 262.097 273.488 261.98 273.488C261.873 273.488 261.783 273.445 261.708 273.36C261.452 273.072 261.148 272.853 260.796 272.704C260.444 272.555 260.065 272.48 259.66 272.48C259.351 272.48 259.057 272.533 258.78 272.64C258.513 272.736 258.289 272.885 258.108 273.088C257.927 273.291 257.836 273.557 257.836 273.888C257.857 274.197 257.964 274.448 258.156 274.64C258.359 274.832 258.62 274.992 258.94 275.12C259.271 275.248 259.639 275.365 260.044 275.472C260.385 275.557 260.711 275.659 261.02 275.776C261.34 275.893 261.617 276.043 261.852 276.224C262.097 276.395 262.289 276.613 262.428 276.88C262.577 277.147 262.652 277.483 262.652 277.888C262.652 278.357 262.519 278.763 262.252 279.104C261.996 279.445 261.649 279.707 261.212 279.888C260.775 280.069 260.289 280.16 259.756 280.16C259.18 280.16 258.62 280.048 258.076 279.824C257.543 279.6 257.068 279.227 256.652 278.704ZM264.424 280C264.243 280 264.104 279.941 264.008 279.824C263.912 279.707 263.864 279.557 263.864 279.376L263.864 279.04C263.864 278.848 263.912 278.699 264.008 278.592C264.104 278.485 264.243 278.432 264.424 278.432L264.536 278.432C264.717 278.432 264.856 278.485 264.952 278.592C265.048 278.699 265.096 278.848 265.096 279.04L265.096 279.376C265.096 279.557 265.048 279.707 264.952 279.824C264.856 279.941 264.717 280 264.536 280L264.424 280Z"
    fill="#363636" />
  <path
    d="M76.64 178.72L76.64 175.16L65.28 175.16L65.28 165.68L78.8 165.68L78.8 162.08L61.36 162.08L61.36 191L65.28 191L65.28 178.72L76.64 178.72ZM85.5475 166.8C86.9075 166.8 88.0275 165.68 88.0275 164.32C88.0275 162.92 86.9075 161.84 85.5475 161.84C84.1875 161.84 83.0675 162.92 83.0675 164.32C83.0675 165.68 84.1875 166.8 85.5475 166.8ZM83.7075 191L87.4675 191L87.4675 171.44L83.7075 171.44L83.7075 191ZM92.4862 180.72C92.4862 186.2 96.0062 190.48 101.566 190.48C104.646 190.48 107.206 189.12 108.486 186.84L108.486 190.76C108.486 194.48 106.086 196.88 102.406 196.88C99.1262 196.88 96.9662 195.2 96.4862 192.32L92.7262 192.32C93.4462 197.28 97.0862 200.28 102.406 200.28C108.406 200.28 112.206 196.36 112.206 190.2L112.206 171.44L108.846 171.44L108.566 174.76C107.326 172.32 104.886 170.88 101.726 170.88C96.0462 170.88 92.4862 175.2 92.4862 180.72ZM96.2462 180.64C96.2462 177.04 98.4862 174.16 102.246 174.16C106.086 174.16 108.326 176.88 108.326 180.64C108.326 184.48 106.006 187.2 102.206 187.2C98.5262 187.2 96.2462 184.32 96.2462 180.64ZM122.193 191L122.193 179.4C122.193 176.28 124.073 174.32 126.913 174.32C129.553 174.32 131.233 176 131.233 179.08L131.233 191L134.953 191L134.953 179.4C134.953 176.28 136.833 174.28 139.673 174.28C142.313 174.28 144.033 176.04 144.033 179.12L144.033 191L147.713 191L147.713 178.2C147.713 173.68 144.993 170.88 140.513 170.88C137.473 170.88 135.113 172.4 134.193 174.84C133.193 172.4 131.033 170.88 127.993 170.88C125.233 170.88 123.153 172.16 122.153 174L121.793 171.44L118.433 171.44L118.433 191L122.193 191ZM159.445 191.48C162.605 191.48 165.285 190.08 166.285 187.84L166.685 191L169.885 191L169.885 178.72C169.885 173.44 166.605 170.88 161.765 170.88C156.725 170.88 153.365 173.56 153.365 177.64L156.645 177.64C156.645 175.28 158.445 173.88 161.605 173.88C164.245 173.88 166.205 175.04 166.205 178.32L166.205 178.88L160.045 179.36C155.445 179.72 152.765 181.96 152.765 185.56C152.765 189.12 155.245 191.48 159.445 191.48ZM160.525 188.56C158.085 188.56 156.565 187.52 156.565 185.44C156.565 183.52 157.925 182.24 161.245 181.92L166.245 181.52L166.245 182.56C166.245 186.24 164.085 188.56 160.525 188.56Z"
    fill="#3C2A56" />
  <g clip-path="url(#clip0_104_608)">
    <path
      d="M203.297 9.03869e-09L133.703 2.76695e-09C116.746 1.2388e-09 103 13.7463 103 30.7031L103 100.297C103 117.254 116.746 131 133.703 131L203.297 131C220.254 131 234 117.254 234 100.297L234 30.7031C234 13.7463 220.254 1.05668e-08 203.297 9.03869e-09Z"
      fill="#242938" />
    <mask id="mask0_104_608" style="mask-type:luminance" maskUnits="userSpaceOnUse" x="134" y="14"
      width="69" height="103">
      <path d="M134.215 14.3281L202.458 14.3281L202.458 116.672L134.215 116.672L134.215 14.3281Z"
        fill="white" />
    </mask>
    <g mask="url(#mask0_104_608)">
      <path
        d="M151.279 116.672C160.695 116.672 168.336 109.03 168.336 99.6148L168.336 82.5571L151.279 82.5571C141.864 82.5571 134.221 90.1991 134.221 99.6148C134.221 109.03 141.864 116.672 151.279 116.672Z"
        fill="#0ACF83" />
      <path
        d="M134.221 65.5C134.221 56.0844 141.864 48.4429 151.279 48.4429L168.336 48.4429L168.336 82.5571L151.279 82.5571C141.864 82.5571 134.221 74.9156 134.221 65.5Z"
        fill="#A259FF" />
      <path
        d="M134.221 31.3852C134.221 21.9696 141.864 14.3281 151.279 14.3281L168.336 14.3281L168.336 48.4429L151.279 48.4429C141.864 48.4429 134.221 40.8009 134.221 31.3852Z"
        fill="#F24E1E" />
      <path
        d="M168.336 14.3281L185.393 14.3281C194.809 14.3281 202.451 21.9696 202.451 31.3852C202.451 40.8009 194.809 48.4429 185.393 48.4429L168.336 48.4429L168.336 14.3281Z"
        fill="#FF7262" />
      <path
        d="M202.451 65.5C202.451 74.9156 194.809 82.5571 185.393 82.5571C175.978 82.5571 168.336 74.9156 168.336 65.5C168.336 56.0844 175.978 48.4429 185.393 48.4429C194.809 48.4429 202.451 56.0844 202.451 65.5Z"
        fill="#1ABCFE" />
    </g>
  </g>
  <defs>
    <filter id="filter0_d_104_608" x="0.0748291" y="27.9167" width="341" height="360"
      filterUnits="userSpaceOnUse" color-interpolation-filters="sRGB">
      <feFlood flood-opacity="0" result="BackgroundImageFix" />
      <feColorMatrix in="SourceAlpha" type="matrix"
        values="0 0 0 0 0 0 0 0 0 0 0 0 0 0 0 0 0 0 127 0" result="hardAlpha" />
      <feOffset dy="9" />
      <feGaussianBlur stdDeviation="13.5" />
      <feColorMatrix type="matrix" values="0 0 0 0 0 0 0 0 0 0 0 0 0 0 0 0 0 0 0.1 0" />
      <feBlend mode="normal" in2="BackgroundImageFix" result="effect1_dropShadow_104_608" />
      <feBlend mode="normal" in="SourceGraphic" in2="effect1_dropShadow_104_608" result="shape" />
    </filter>
    <clipPath id="clip0_104_608">
      <rect width="131" height="131" fill="white" transform="translate(103)" />
    </clipPath>
  </defs>
</svg>