<svg width="131" height="172" viewBox="0 0 131 172" fill="none" xmlns="http://www.w3.org/2000/svg">
<g clip-path="url(#clip0_276_366)">
<path d="M44.2637 91.4271C44.4911 91.0859 44.4058 90.7164 44.0078 90.3184C43.4961 89.9204 43.0981 89.8635 42.8138 90.1478C42.5864 90.4889 42.6717 90.8585 43.0697 91.2565C43.5814 91.6545 43.9794 91.7114 44.2637 91.4271ZM41.8757 87.9303C41.5914 87.5323 41.2502 87.4186 40.8522 87.5892C40.5111 87.8166 40.5111 88.1578 40.8522 88.6126C41.2502 89.0675 41.5914 89.2096 41.8757 89.0391C42.2168 88.8116 42.2168 88.4421 41.8757 87.9303ZM38.3789 84.5189C38.4926 84.2915 38.3505 84.064 37.9525 83.8366C37.5545 83.7229 37.327 83.7797 37.2702 84.0072C37.0996 84.2915 37.2133 84.5189 37.6113 84.6895C38.0662 84.8032 38.322 84.7463 38.3789 84.5189ZM40.1699 86.4805C40.2836 86.4236 40.3263 86.2957 40.2979 86.0967C40.2694 85.8977 40.1699 85.7413 39.9994 85.6276C39.6582 85.2296 39.3739 85.1443 39.1465 85.3717C38.9191 85.5992 38.9475 85.9119 39.2318 86.3099C39.5729 86.651 39.8856 86.7079 40.1699 86.4805ZM47.5046 92.877C47.6183 92.479 47.3624 92.1662 46.737 91.9388C46.2253 91.7682 45.8557 91.882 45.6283 92.28C45.5145 92.678 45.7704 92.9907 46.3958 93.2181C46.9076 93.3887 47.2771 93.275 47.5046 92.877ZM51.0866 93.1328C51.0866 92.678 50.7454 92.4505 50.0632 92.4505C49.4946 92.4505 49.2103 92.678 49.2103 93.1328C49.2103 93.5877 49.523 93.8151 50.1484 93.8151C50.7739 93.8151 51.0866 93.5877 51.0866 93.1328ZM54.4128 92.5358C54.299 92.1378 53.9295 91.9957 53.304 92.1094C52.6786 92.2231 52.4227 92.479 52.5365 92.877C52.6502 93.3318 52.9913 93.5024 53.5599 93.3887C54.1285 93.275 54.4128 92.9907 54.4128 92.5358ZM109.167 65.5C109.167 53.4462 104.902 43.1549 96.3737 34.6263C87.8451 26.0977 77.5538 21.8333 65.5 21.8333C53.4462 21.8333 43.1549 26.0977 34.6263 34.6263C26.0977 43.1549 21.8333 53.4462 21.8333 65.5C21.8333 74.9952 24.6194 83.5381 30.1914 91.1286C35.7635 98.7191 42.9275 103.993 51.6836 106.949C52.707 107.12 53.4604 106.978 53.9437 106.523C54.427 106.068 54.6686 105.499 54.6686 104.817C54.6686 101.86 54.6402 99.1597 54.5833 96.7148C54.2422 96.7717 53.8015 96.8428 53.2614 96.9281C52.7212 97.0134 51.712 97.0702 50.2337 97.0986C48.7554 97.1271 47.3908 97.0134 46.14 96.7575C44.8891 96.5016 43.6525 95.9331 42.43 95.0518C41.2076 94.1705 40.3689 92.9907 39.9141 91.5124C38.6063 88.1578 36.9859 86.054 35.0527 85.2012C34.939 85.1443 34.8111 85.0448 34.6689 84.9027L33.9867 84.2204L33.3896 83.4102L33.7308 82.7705L35.3939 82.472C35.735 82.472 36.1615 82.5289 36.6732 82.6426C37.1849 82.7563 38.0378 83.1969 39.2318 83.9645C40.4258 84.7321 41.3639 85.7413 42.0462 86.9922C42.9559 88.5842 44.022 89.7782 45.2445 90.5742C46.4669 91.3702 47.7036 91.7682 48.9544 91.7682C50.2053 91.7682 51.2856 91.6687 52.1953 91.4697C53.105 91.2707 53.9579 91.0007 54.7539 90.6595C55.1519 87.9872 56.0901 86.0256 57.5684 84.7747C54.7823 84.4336 52.3375 83.9077 50.2337 83.1969C48.13 82.4862 46.0547 81.3775 44.0078 79.8708C41.9609 78.364 40.3831 76.2035 39.2744 73.389C38.1657 70.5745 37.6113 67.1773 37.6113 63.1973C37.6113 58.7055 39.1181 54.8108 42.1315 51.513C40.7669 47.9879 40.9091 44.1215 42.5579 39.9141C43.6382 39.5729 45.1876 39.7861 47.2061 40.5537C49.2245 41.3213 50.9444 42.1599 52.3659 43.0697L54.5833 44.4342C57.8811 43.4677 61.52 42.9844 65.5 42.9844C69.48 42.9844 73.1189 43.4677 76.4167 44.4342C77.0421 44.0362 77.8523 43.5245 78.8473 42.8991C79.8423 42.2737 81.4201 41.5345 83.5807 40.6816C85.7413 39.8288 87.3618 39.5729 88.4421 39.9141C90.0909 44.1215 90.2331 47.9879 88.8685 51.513C91.882 54.8108 93.3887 58.7055 93.3887 63.1973C93.3887 66.4382 92.9907 69.2952 92.1947 71.7686C91.3987 74.2419 90.3894 76.2319 89.167 77.7386C87.9446 79.2453 86.4236 80.5104 84.6042 81.5339C82.7847 82.5573 81.0079 83.2964 79.2738 83.7513C77.5396 84.2062 75.5922 84.5473 73.4316 84.7747C75.4217 86.5373 76.4167 89.2381 76.4167 92.877C76.4167 95.1513 76.4025 97.6814 76.374 100.467C76.3456 103.253 76.3314 104.703 76.3314 104.817C76.3314 105.499 76.573 106.068 77.0563 106.523C77.5396 106.978 78.293 107.12 79.3164 106.949C88.0725 103.993 95.2365 98.7191 100.809 91.1286C106.381 83.5381 109.167 74.9952 109.167 65.5ZM131 24.5625V106.438C131 113.204 128.598 118.989 123.793 123.793C118.989 128.598 113.204 131 106.438 131H24.5625C17.7964 131 12.0112 128.598 7.20671 123.793C2.40224 118.989 0 113.204 0 106.438V24.5625C0 17.7964 2.40224 12.0112 7.20671 7.20671C12.0112 2.40224 17.7964 0 24.5625 0H106.438C113.204 0 118.989 2.40224 123.793 7.20671C128.598 12.0112 131 17.7964 131 24.5625Z" fill="black"/>
</g>
<path d="M38.792 166.24C37.56 166.24 36.416 166.024 35.36 165.592C34.304 165.16 33.384 164.56 32.6 163.792C31.832 163.008 31.232 162.088 30.8 161.032C30.368 159.976 30.152 158.832 30.152 157.6C30.152 156.368 30.368 155.224 30.8 154.168C31.232 153.112 31.832 152.2 32.6 151.432C33.384 150.648 34.304 150.04 35.36 149.608C36.416 149.176 37.56 148.96 38.792 148.96C39.64 148.96 40.456 149.064 41.24 149.272C42.04 149.464 42.752 149.76 43.376 150.16C43.488 150.24 43.568 150.336 43.616 150.448C43.68 150.544 43.712 150.648 43.712 150.76C43.712 150.984 43.64 151.168 43.496 151.312C43.352 151.44 43.2 151.504 43.04 151.504C42.96 151.504 42.88 151.496 42.8 151.48C42.736 151.448 42.672 151.416 42.608 151.384C42.064 151.08 41.472 150.84 40.832 150.664C40.192 150.488 39.512 150.4 38.792 150.4C37.416 150.4 36.192 150.712 35.12 151.336C34.048 151.96 33.208 152.816 32.6 153.904C31.992 154.992 31.688 156.224 31.688 157.6C31.688 158.976 31.992 160.208 32.6 161.296C33.208 162.384 34.048 163.24 35.12 163.864C36.192 164.488 37.416 164.8 38.792 164.8C39.512 164.8 40.232 164.696 40.952 164.488C41.688 164.28 42.32 164 42.848 163.648L42.728 164.152V158.632L43.088 158.968H38.936C38.728 158.968 38.552 158.896 38.408 158.752C38.264 158.608 38.192 158.44 38.192 158.248C38.192 158.024 38.264 157.848 38.408 157.72C38.552 157.592 38.728 157.528 38.936 157.528H43.52C43.728 157.528 43.896 157.6 44.024 157.744C44.168 157.872 44.24 158.04 44.24 158.248V164.032C44.24 164.16 44.208 164.28 44.144 164.392C44.08 164.504 43.992 164.6 43.88 164.68C43.176 165.16 42.384 165.544 41.504 165.832C40.64 166.104 39.736 166.24 38.792 166.24ZM48.9755 165.28C48.9755 165.472 48.9035 165.64 48.7595 165.784C48.6155 165.928 48.4475 166 48.2555 166C48.0475 166 47.8715 165.928 47.7275 165.784C47.5995 165.64 47.5355 165.472 47.5355 165.28V154.24C47.5355 154.048 47.5995 153.88 47.7275 153.736C47.8715 153.592 48.0475 153.52 48.2555 153.52C48.4635 153.52 48.6315 153.592 48.7595 153.736C48.9035 153.88 48.9755 154.048 48.9755 154.24V165.28ZM48.2555 151.912C47.9195 151.912 47.6635 151.84 47.4875 151.696C47.3275 151.536 47.2475 151.312 47.2475 151.024V150.784C47.2475 150.496 47.3355 150.28 47.5115 150.136C47.7035 149.976 47.9595 149.896 48.2795 149.896C48.5835 149.896 48.8155 149.976 48.9755 150.136C49.1515 150.28 49.2395 150.496 49.2395 150.784V151.024C49.2395 151.312 49.1515 151.536 48.9755 151.696C48.8155 151.84 48.5755 151.912 48.2555 151.912ZM51.9243 153.784H57.5163C57.7083 153.784 57.8683 153.856 57.9963 154C58.1243 154.128 58.1883 154.288 58.1883 154.48C58.1883 154.656 58.1243 154.808 57.9963 154.936C57.8683 155.064 57.7083 155.128 57.5163 155.128H51.9243C51.7323 155.128 51.5643 155.064 51.4203 154.936C51.2923 154.792 51.2283 154.632 51.2283 154.456C51.2283 154.264 51.2923 154.104 51.4203 153.976C51.5643 153.848 51.7323 153.784 51.9243 153.784ZM54.3963 150.4C54.6043 150.4 54.7723 150.472 54.9003 150.616C55.0443 150.76 55.1163 150.928 55.1163 151.12V163.168C55.1163 163.616 55.1723 163.952 55.2843 164.176C55.4123 164.4 55.5723 164.552 55.7643 164.632C55.9563 164.696 56.1483 164.728 56.3403 164.728C56.4683 164.728 56.5803 164.712 56.6763 164.68C56.7883 164.632 56.9083 164.608 57.0363 164.608C57.1803 164.608 57.3003 164.664 57.3963 164.776C57.5083 164.888 57.5643 165.032 57.5643 165.208C57.5643 165.432 57.4363 165.624 57.1803 165.784C56.9243 165.928 56.6203 166 56.2683 166C56.1243 166 55.9083 165.992 55.6203 165.976C55.3323 165.944 55.0363 165.856 54.7323 165.712C54.4283 165.552 54.1723 165.28 53.9643 164.896C53.7723 164.512 53.6763 163.96 53.6763 163.24V151.12C53.6763 150.928 53.7403 150.76 53.8683 150.616C54.0123 150.472 54.1883 150.4 54.3963 150.4ZM61.9771 149.2C62.1691 149.2 62.3371 149.272 62.4811 149.416C62.6411 149.56 62.7211 149.736 62.7211 149.944V165.256C62.7051 165.464 62.6171 165.64 62.4571 165.784C62.3131 165.928 62.1451 166 61.9531 166C61.7291 166 61.5451 165.928 61.4011 165.784C61.2731 165.64 61.2091 165.464 61.2091 165.256V149.944C61.2091 149.736 61.2811 149.56 61.4251 149.416C61.5691 149.272 61.7531 149.2 61.9771 149.2ZM73.2331 149.2C73.4571 149.2 73.6331 149.272 73.7611 149.416C73.9051 149.56 73.9771 149.736 73.9771 149.944V165.256C73.9611 165.464 73.8811 165.64 73.7371 165.784C73.6091 165.928 73.4331 166 73.2091 166C73.0011 166 72.8251 165.928 72.6811 165.784C72.5371 165.64 72.4651 165.464 72.4651 165.256V149.944C72.4651 149.736 72.5371 149.56 72.6811 149.416C72.8411 149.272 73.0251 149.2 73.2331 149.2ZM61.8571 156.712H73.2571L73.2331 158.104H61.7611L61.8571 156.712ZM87.2906 153.808C87.4986 153.808 87.6666 153.88 87.7946 154.024C87.9386 154.168 88.0106 154.336 88.0106 154.528V161.296C88.0106 162.88 87.5626 164.088 86.6666 164.92C85.7706 165.752 84.5626 166.168 83.0426 166.168C81.5386 166.168 80.3386 165.752 79.4426 164.92C78.5626 164.088 78.1226 162.88 78.1226 161.296V154.528C78.1226 154.336 78.1866 154.168 78.3146 154.024C78.4586 153.88 78.6346 153.808 78.8426 153.808C79.0506 153.808 79.2186 153.88 79.3466 154.024C79.4906 154.168 79.5626 154.336 79.5626 154.528V161.296C79.5626 162.448 79.8666 163.328 80.4746 163.936C81.0986 164.528 81.9546 164.824 83.0426 164.824C84.1466 164.824 85.0106 164.528 85.6346 163.936C86.2586 163.328 86.5706 162.448 86.5706 161.296V154.528C86.5706 154.336 86.6346 154.168 86.7626 154.024C86.8906 153.88 87.0666 153.808 87.2906 153.808ZM97.6186 153.448C98.7066 153.448 99.6666 153.72 100.499 154.264C101.347 154.808 102.019 155.56 102.515 156.52C103.011 157.464 103.259 158.56 103.259 159.808C103.259 161.024 103.011 162.12 102.515 163.096C102.019 164.072 101.347 164.84 100.499 165.4C99.6506 165.96 98.6986 166.24 97.6426 166.24C97.0826 166.24 96.5466 166.152 96.0346 165.976C95.5386 165.8 95.0826 165.568 94.6666 165.28C94.2506 164.976 93.8826 164.624 93.5626 164.224C93.2426 163.824 92.9866 163.392 92.7946 162.928L93.2266 162.616V165.328C93.2266 165.536 93.1546 165.712 93.0106 165.856C92.8826 165.984 92.7146 166.048 92.5066 166.048C92.2986 166.048 92.1226 165.984 91.9786 165.856C91.8506 165.712 91.7866 165.536 91.7866 165.328V148.984C91.7866 148.776 91.8506 148.608 91.9786 148.48C92.1066 148.336 92.2826 148.264 92.5066 148.264C92.7146 148.264 92.8826 148.336 93.0106 148.48C93.1546 148.608 93.2266 148.776 93.2266 148.984V157.024L92.8906 156.832C93.0506 156.336 93.2826 155.888 93.5866 155.488C93.9066 155.072 94.2746 154.712 94.6906 154.408C95.1066 154.104 95.5626 153.872 96.0586 153.712C96.5546 153.536 97.0746 153.448 97.6186 153.448ZM97.4986 154.792C96.6346 154.792 95.8746 155.008 95.2186 155.44C94.5626 155.872 94.0426 156.464 93.6586 157.216C93.2906 157.968 93.1066 158.832 93.1066 159.808C93.1066 160.768 93.2906 161.64 93.6586 162.424C94.0426 163.192 94.5626 163.8 95.2186 164.248C95.8746 164.68 96.6346 164.896 97.4986 164.896C98.3466 164.896 99.0906 164.672 99.7306 164.224C100.387 163.776 100.907 163.168 101.291 162.4C101.675 161.616 101.867 160.752 101.867 159.808C101.867 158.832 101.675 157.968 101.291 157.216C100.907 156.464 100.387 155.872 99.7306 155.44C99.0906 155.008 98.3466 154.792 97.4986 154.792Z" fill="black"/>
<defs>
<clipPath id="clip0_276_366">
<rect width="131" height="131" fill="white"/>
</clipPath>
</defs>
</svg>
