<svg width="342" height="388" viewBox="0 0 342 388" fill="none" xmlns="http://www.w3.org/2000/svg">
<g filter="url(#filter0_d_404_421)">
<rect x="27.0748" y="45.9167" width="287" height="306" rx="20" fill="white"/>
</g>
<path d="M65.7761 250.8C66.3735 250.8 66.9015 250.939 67.3601 251.216C67.8188 251.483 68.1815 251.856 68.4481 252.336C68.7148 252.816 68.8481 253.365 68.8481 253.984C68.8481 254.603 68.7148 255.163 68.4481 255.664C68.1815 256.155 67.8188 256.544 67.3601 256.832C66.9015 257.12 66.3735 257.264 65.7761 257.264L62.3841 257.264L62.4641 257.104L62.4641 261.52C62.4641 261.648 62.4161 261.76 62.3201 261.856C62.2241 261.952 62.1121 262 61.9841 262C61.8348 262 61.7175 261.952 61.6321 261.856C61.5468 261.76 61.5041 261.648 61.5041 261.52L61.5041 251.28C61.5041 251.152 61.5521 251.04 61.6481 250.944C61.7441 250.848 61.8561 250.8 61.9841 250.8L65.7761 250.8ZM65.7761 256.336C66.1921 256.336 66.5548 256.235 66.8641 256.032C67.1735 255.819 67.4135 255.536 67.5841 255.184C67.7655 254.821 67.8561 254.421 67.8561 253.984C67.8561 253.547 67.7655 253.163 67.5841 252.832C67.4135 252.491 67.1735 252.224 66.8641 252.032C66.5548 251.84 66.1921 251.744 65.7761 251.744L62.3841 251.744L62.4641 251.6L62.4641 256.432L62.3681 256.336L65.7761 256.336ZM77.1012 253.824C77.2399 253.824 77.3519 253.872 77.4372 253.968C77.5332 254.064 77.5812 254.181 77.5812 254.32L77.5812 261.52C77.5812 261.648 77.5332 261.76 77.4372 261.856C77.3412 261.952 77.2292 262 77.1012 262C76.9626 262 76.8452 261.952 76.7492 261.856C76.6639 261.76 76.6212 261.648 76.6212 261.52L76.6212 259.616L76.8932 259.488C76.8932 259.787 76.8079 260.091 76.6372 260.4C76.4772 260.709 76.2532 260.997 75.9652 261.264C75.6772 261.531 75.3359 261.749 74.9412 261.92C74.5572 262.08 74.1412 262.16 73.6932 262.16C72.9679 262.16 72.3172 261.973 71.7412 261.6C71.1759 261.227 70.7279 260.715 70.3972 260.064C70.0772 259.413 69.9172 258.683 69.9172 257.872C69.9172 257.04 70.0826 256.309 70.4132 255.68C70.7439 255.04 71.1919 254.539 71.7572 254.176C72.3226 253.813 72.9626 253.632 73.6772 253.632C74.1359 253.632 74.5626 253.712 74.9572 253.872C75.3626 254.032 75.7146 254.251 76.0132 254.528C76.3119 254.805 76.5412 255.125 76.7012 255.488C76.8719 255.84 76.9572 256.208 76.9572 256.592L76.6212 256.352L76.6212 254.32C76.6212 254.181 76.6639 254.064 76.7492 253.968C76.8452 253.872 76.9626 253.824 77.1012 253.824ZM73.7732 261.264C74.3386 261.264 74.8399 261.12 75.2772 260.832C75.7146 260.533 76.0559 260.128 76.3012 259.616C76.5572 259.093 76.6852 258.512 76.6852 257.872C76.6852 257.243 76.5572 256.677 76.3012 256.176C76.0559 255.675 75.7146 255.275 75.2772 254.976C74.8399 254.677 74.3386 254.528 73.7732 254.528C73.2186 254.528 72.7172 254.672 72.2692 254.96C71.8319 255.248 71.4852 255.643 71.2292 256.144C70.9839 256.645 70.8612 257.221 70.8612 257.872C70.8612 258.512 70.9839 259.093 71.2292 259.616C71.4852 260.128 71.8319 260.533 72.2692 260.832C72.7066 261.12 73.2079 261.264 73.7732 261.264ZM80.2604 262C80.111 262 79.9937 261.952 79.9084 261.856C79.823 261.76 79.7804 261.648 79.7804 261.52L79.7804 254.352C79.7804 254.224 79.823 254.112 79.9084 254.016C80.0044 253.92 80.1217 253.872 80.2604 253.872C80.399 253.872 80.511 253.92 80.5964 254.016C80.6924 254.112 80.7404 254.224 80.7404 254.352L80.7404 256.752L80.5004 256.8C80.5324 256.427 80.623 256.059 80.7724 255.696C80.9324 255.323 81.1457 254.981 81.4124 254.672C81.679 254.363 81.9937 254.112 82.3564 253.92C82.7297 253.728 83.1457 253.632 83.6044 253.632C83.7964 253.632 83.983 253.675 84.1644 253.76C84.3457 253.835 84.4364 253.963 84.4364 254.144C84.4364 254.304 84.3937 254.427 84.3084 254.512C84.223 254.597 84.1217 254.64 84.0044 254.64C83.9084 254.64 83.8017 254.613 83.6844 254.56C83.5777 254.507 83.4337 254.48 83.2524 254.48C82.9537 254.48 82.655 254.571 82.3564 254.752C82.0577 254.923 81.7857 255.157 81.5404 255.456C81.295 255.755 81.0977 256.091 80.9484 256.464C80.8097 256.827 80.7404 257.195 80.7404 257.568L80.7404 261.52C80.7404 261.648 80.6924 261.76 80.5964 261.856C80.5004 261.952 80.3884 262 80.2604 262ZM92.1331 253.824C92.2718 253.824 92.3838 253.872 92.4691 253.968C92.5651 254.064 92.6131 254.181 92.6131 254.32L92.6131 261.52C92.6131 261.648 92.5651 261.76 92.4691 261.856C92.3731 261.952 92.2611 262 92.1331 262C91.9945 262 91.8771 261.952 91.7811 261.856C91.6958 261.76 91.6531 261.648 91.6531 261.52L91.6531 259.616L91.9251 259.488C91.9251 259.787 91.8398 260.091 91.6691 260.4C91.5091 260.709 91.2851 260.997 90.9971 261.264C90.7091 261.531 90.3678 261.749 89.9731 261.92C89.5891 262.08 89.1731 262.16 88.7251 262.16C87.9998 262.16 87.3491 261.973 86.7731 261.6C86.2078 261.227 85.7598 260.715 85.4291 260.064C85.1091 259.413 84.9491 258.683 84.9491 257.872C84.9491 257.04 85.1145 256.309 85.4451 255.68C85.7758 255.04 86.2238 254.539 86.7891 254.176C87.3545 253.813 87.9945 253.632 88.7091 253.632C89.1678 253.632 89.5945 253.712 89.9891 253.872C90.3945 254.032 90.7465 254.251 91.0451 254.528C91.3438 254.805 91.5731 255.125 91.7331 255.488C91.9038 255.84 91.9891 256.208 91.9891 256.592L91.6531 256.352L91.6531 254.32C91.6531 254.181 91.6958 254.064 91.7811 253.968C91.8771 253.872 91.9945 253.824 92.1331 253.824ZM88.8051 261.264C89.3705 261.264 89.8718 261.12 90.3091 260.832C90.7465 260.533 91.0878 260.128 91.3331 259.616C91.5891 259.093 91.7171 258.512 91.7171 257.872C91.7171 257.243 91.5891 256.677 91.3331 256.176C91.0878 255.675 90.7465 255.275 90.3091 254.976C89.8718 254.677 89.3705 254.528 88.8051 254.528C88.2505 254.528 87.7491 254.672 87.3011 254.96C86.8638 255.248 86.5171 255.643 86.2611 256.144C86.0158 256.645 85.8931 257.221 85.8931 257.872C85.8931 258.512 86.0158 259.093 86.2611 259.616C86.5171 260.128 86.8638 260.533 87.3011 260.832C87.7385 261.12 88.2398 261.264 88.8051 261.264ZM102.467 253.632C102.979 253.632 103.449 253.691 103.875 253.808C104.302 253.915 104.643 254.064 104.899 254.256C105.166 254.448 105.299 254.656 105.299 254.88C105.299 254.987 105.262 255.093 105.187 255.2C105.113 255.296 105.011 255.344 104.883 255.344C104.755 255.344 104.649 255.312 104.563 255.248C104.489 255.184 104.409 255.109 104.323 255.024C104.249 254.939 104.137 254.859 103.987 254.784C103.849 254.72 103.651 254.661 103.395 254.608C103.139 254.555 102.846 254.528 102.515 254.528C101.918 254.528 101.379 254.677 100.899 254.976C100.419 255.275 100.041 255.68 99.7632 256.192C99.4859 256.693 99.3472 257.259 99.3472 257.888C99.3472 258.528 99.4806 259.104 99.7472 259.616C100.014 260.128 100.382 260.533 100.851 260.832C101.321 261.12 101.87 261.264 102.499 261.264C102.926 261.264 103.257 261.227 103.491 261.152C103.726 261.077 103.929 260.992 104.099 260.896C104.302 260.779 104.446 260.667 104.531 260.56C104.627 260.443 104.75 260.384 104.899 260.384C105.038 260.384 105.139 260.427 105.203 260.512C105.278 260.587 105.315 260.688 105.315 260.816C105.315 260.987 105.187 261.179 104.931 261.392C104.686 261.595 104.345 261.776 103.907 261.936C103.47 262.085 102.969 262.16 102.403 262.16C101.603 262.16 100.899 261.973 100.291 261.6C99.6939 261.227 99.2246 260.72 98.8832 260.08C98.5526 259.429 98.3872 258.699 98.3872 257.888C98.3872 257.109 98.5579 256.4 98.8992 255.76C99.2406 255.12 99.7152 254.608 100.323 254.224C100.942 253.829 101.657 253.632 102.467 253.632ZM114.444 257.904C114.444 258.715 114.268 259.445 113.916 260.096C113.564 260.736 113.084 261.243 112.476 261.616C111.868 261.979 111.175 262.16 110.396 262.16C109.639 262.16 108.951 261.979 108.332 261.616C107.724 261.243 107.239 260.736 106.876 260.096C106.524 259.445 106.348 258.715 106.348 257.904C106.348 257.083 106.524 256.352 106.876 255.712C107.239 255.072 107.724 254.565 108.332 254.192C108.951 253.819 109.639 253.632 110.396 253.632C111.175 253.632 111.868 253.819 112.476 254.192C113.084 254.565 113.564 255.072 113.916 255.712C114.268 256.352 114.444 257.083 114.444 257.904ZM113.484 257.904C113.484 257.253 113.351 256.677 113.084 256.176C112.818 255.664 112.45 255.264 111.98 254.976C111.522 254.677 110.994 254.528 110.396 254.528C109.82 254.528 109.298 254.677 108.828 254.976C108.359 255.264 107.986 255.664 107.708 256.176C107.442 256.677 107.308 257.253 107.308 257.904C107.308 258.555 107.442 259.131 107.708 259.632C107.986 260.133 108.359 260.533 108.828 260.832C109.298 261.12 109.82 261.264 110.396 261.264C110.994 261.264 111.522 261.12 111.98 260.832C112.45 260.533 112.818 260.133 113.084 259.632C113.351 259.131 113.484 258.555 113.484 257.904ZM119.845 253.76C120.506 253.76 121.071 253.936 121.541 254.288C122.01 254.629 122.33 255.141 122.501 255.824L122.277 255.888L122.373 255.6C122.511 255.28 122.741 254.981 123.061 254.704C123.391 254.416 123.765 254.187 124.181 254.016C124.597 253.845 125.018 253.76 125.445 253.76C126.117 253.76 126.655 253.904 127.061 254.192C127.477 254.48 127.775 254.869 127.957 255.36C128.149 255.84 128.245 256.384 128.245 256.992L128.245 261.52C128.245 261.648 128.197 261.76 128.101 261.856C128.015 261.952 127.903 262 127.765 262C127.626 262 127.509 261.952 127.413 261.856C127.327 261.76 127.285 261.648 127.285 261.52L127.285 257.04C127.285 256.603 127.215 256.203 127.077 255.84C126.938 255.477 126.719 255.189 126.421 254.976C126.122 254.763 125.722 254.656 125.221 254.656C124.783 254.656 124.362 254.763 123.957 254.976C123.562 255.189 123.237 255.477 122.981 255.84C122.735 256.203 122.613 256.603 122.613 257.04L122.613 261.52C122.613 261.648 122.565 261.76 122.469 261.856C122.383 261.952 122.271 262 122.133 262C121.994 262 121.877 261.952 121.781 261.856C121.695 261.76 121.653 261.648 121.653 261.52L121.653 256.992C121.653 256.555 121.589 256.16 121.461 255.808C121.333 255.456 121.125 255.179 120.837 254.976C120.549 254.763 120.159 254.656 119.669 254.656C119.231 254.656 118.815 254.763 118.421 254.976C118.037 255.179 117.722 255.456 117.477 255.808C117.242 256.16 117.125 256.555 117.125 256.992L117.125 261.52C117.125 261.648 117.077 261.76 116.981 261.856C116.885 261.952 116.773 262 116.645 262C116.495 262 116.378 261.952 116.293 261.856C116.207 261.76 116.165 261.648 116.165 261.52L116.165 254.352C116.165 254.224 116.207 254.112 116.293 254.016C116.389 253.92 116.506 253.872 116.645 253.872C116.783 253.872 116.895 253.92 116.981 254.016C117.077 254.112 117.125 254.224 117.125 254.352L117.125 255.84L116.693 256.432C116.725 256.112 116.826 255.792 116.997 255.472C117.178 255.152 117.413 254.864 117.701 254.608C117.989 254.352 118.314 254.149 118.677 254C119.05 253.84 119.439 253.76 119.845 253.76ZM134.326 253.76C135.052 253.76 135.692 253.941 136.247 254.304C136.812 254.656 137.26 255.147 137.59 255.776C137.921 256.395 138.087 257.109 138.087 257.92C138.087 258.731 137.921 259.451 137.59 260.08C137.26 260.709 136.812 261.205 136.247 261.568C135.681 261.931 135.046 262.112 134.342 262.112C133.969 262.112 133.612 262.059 133.27 261.952C132.94 261.835 132.636 261.68 132.358 261.488C132.081 261.296 131.836 261.072 131.622 260.816C131.409 260.549 131.238 260.261 131.11 259.952L131.398 259.744L131.398 264.72C131.398 264.848 131.35 264.96 131.254 265.056C131.169 265.152 131.057 265.2 130.918 265.2C130.78 265.2 130.662 265.152 130.566 265.056C130.481 264.96 130.438 264.848 130.438 264.72L130.438 254.288C130.438 254.149 130.481 254.032 130.566 253.936C130.652 253.84 130.769 253.792 130.918 253.792C131.057 253.792 131.169 253.84 131.254 253.936C131.35 254.032 131.398 254.149 131.398 254.288L131.398 256.016L131.174 255.888C131.281 255.557 131.436 255.264 131.638 255.008C131.852 254.741 132.097 254.517 132.374 254.336C132.652 254.144 132.956 254 133.286 253.904C133.617 253.808 133.964 253.76 134.326 253.76ZM134.246 254.656C133.67 254.656 133.164 254.8 132.726 255.088C132.289 255.365 131.942 255.749 131.686 256.24C131.441 256.72 131.318 257.28 131.318 257.92C131.318 258.549 131.441 259.115 131.686 259.616C131.942 260.117 132.289 260.512 132.726 260.8C133.164 261.077 133.67 261.216 134.246 261.216C134.812 261.216 135.308 261.077 135.734 260.8C136.172 260.512 136.519 260.117 136.774 259.616C137.03 259.115 137.158 258.549 137.158 257.92C137.158 257.291 137.03 256.731 136.774 256.24C136.519 255.749 136.172 255.365 135.734 255.088C135.308 254.8 134.812 254.656 134.246 254.656ZM146.526 253.824C146.664 253.824 146.776 253.872 146.862 253.968C146.958 254.064 147.006 254.181 147.006 254.32L147.006 261.52C147.006 261.648 146.958 261.76 146.862 261.856C146.766 261.952 146.654 262 146.526 262C146.387 262 146.27 261.952 146.174 261.856C146.088 261.76 146.046 261.648 146.046 261.52L146.046 259.616L146.318 259.488C146.318 259.787 146.232 260.091 146.062 260.4C145.902 260.709 145.678 260.997 145.39 261.264C145.102 261.531 144.76 261.749 144.366 261.92C143.982 262.08 143.566 262.16 143.118 262.16C142.392 262.16 141.742 261.973 141.166 261.6C140.6 261.227 140.152 260.715 139.822 260.064C139.502 259.413 139.342 258.683 139.342 257.872C139.342 257.04 139.507 256.309 139.838 255.68C140.168 255.04 140.616 254.539 141.182 254.176C141.747 253.813 142.387 253.632 143.102 253.632C143.56 253.632 143.987 253.712 144.382 253.872C144.787 254.032 145.139 254.251 145.438 254.528C145.736 254.805 145.966 255.125 146.126 255.488C146.296 255.84 146.382 256.208 146.382 256.592L146.046 256.352L146.046 254.32C146.046 254.181 146.088 254.064 146.174 253.968C146.27 253.872 146.387 253.824 146.526 253.824ZM143.198 261.264C143.763 261.264 144.264 261.12 144.702 260.832C145.139 260.533 145.48 260.128 145.726 259.616C145.982 259.093 146.11 258.512 146.11 257.872C146.11 257.243 145.982 256.677 145.726 256.176C145.48 255.675 145.139 255.275 144.702 254.976C144.264 254.677 143.763 254.528 143.198 254.528C142.643 254.528 142.142 254.672 141.694 254.96C141.256 255.248 140.91 255.643 140.654 256.144C140.408 256.645 140.286 257.221 140.286 257.872C140.286 258.512 140.408 259.093 140.654 259.616C140.91 260.128 141.256 260.533 141.694 260.832C142.131 261.12 142.632 261.264 143.198 261.264ZM149.685 262C149.535 262 149.418 261.952 149.333 261.856C149.247 261.76 149.205 261.648 149.205 261.52L149.205 254.352C149.205 254.224 149.247 254.112 149.333 254.016C149.429 253.92 149.546 253.872 149.685 253.872C149.823 253.872 149.935 253.92 150.021 254.016C150.117 254.112 150.165 254.224 150.165 254.352L150.165 256.752L149.925 256.8C149.957 256.427 150.047 256.059 150.197 255.696C150.357 255.323 150.57 254.981 150.837 254.672C151.103 254.363 151.418 254.112 151.781 253.92C152.154 253.728 152.57 253.632 153.029 253.632C153.221 253.632 153.407 253.675 153.589 253.76C153.77 253.835 153.861 253.963 153.861 254.144C153.861 254.304 153.818 254.427 153.733 254.512C153.647 254.597 153.546 254.64 153.429 254.64C153.333 254.64 153.226 254.613 153.109 254.56C153.002 254.507 152.858 254.48 152.677 254.48C152.378 254.48 152.079 254.571 151.781 254.752C151.482 254.923 151.21 255.157 150.965 255.456C150.719 255.755 150.522 256.091 150.373 256.464C150.234 256.827 150.165 257.195 150.165 257.568L150.165 261.52C150.165 261.648 150.117 261.76 150.021 261.856C149.925 261.952 149.813 262 149.685 262ZM154.513 253.856L158.241 253.856C158.369 253.856 158.476 253.904 158.561 254C158.646 254.085 158.689 254.192 158.689 254.32C158.689 254.437 158.646 254.539 158.561 254.624C158.476 254.709 158.369 254.752 158.241 254.752L154.513 254.752C154.385 254.752 154.273 254.709 154.177 254.624C154.092 254.528 154.049 254.421 154.049 254.304C154.049 254.176 154.092 254.069 154.177 253.984C154.273 253.899 154.385 253.856 154.513 253.856ZM156.161 251.6C156.3 251.6 156.412 251.648 156.497 251.744C156.593 251.84 156.641 251.952 156.641 252.08L156.641 260.112C156.641 260.411 156.678 260.635 156.753 260.784C156.838 260.933 156.945 261.035 157.073 261.088C157.201 261.131 157.329 261.152 157.457 261.152C157.542 261.152 157.617 261.141 157.681 261.12C157.756 261.088 157.836 261.072 157.921 261.072C158.017 261.072 158.097 261.109 158.161 261.184C158.236 261.259 158.273 261.355 158.273 261.472C158.273 261.621 158.188 261.749 158.017 261.856C157.846 261.952 157.644 262 157.409 262C157.313 262 157.169 261.995 156.977 261.984C156.785 261.963 156.588 261.904 156.385 261.808C156.182 261.701 156.012 261.52 155.873 261.264C155.745 261.008 155.681 260.64 155.681 260.16L155.681 252.08C155.681 251.952 155.724 251.84 155.809 251.744C155.905 251.648 156.022 251.6 156.161 251.6ZM161.071 261.52C161.071 261.648 161.023 261.76 160.927 261.856C160.831 261.952 160.719 262 160.591 262C160.452 262 160.335 261.952 160.239 261.856C160.154 261.76 160.111 261.648 160.111 261.52L160.111 254.16C160.111 254.032 160.154 253.92 160.239 253.824C160.335 253.728 160.452 253.68 160.591 253.68C160.73 253.68 160.842 253.728 160.927 253.824C161.023 253.92 161.071 254.032 161.071 254.16L161.071 261.52ZM160.591 252.608C160.367 252.608 160.196 252.56 160.079 252.464C159.972 252.357 159.919 252.208 159.919 252.016L159.919 251.856C159.919 251.664 159.978 251.52 160.095 251.424C160.223 251.317 160.394 251.264 160.607 251.264C160.81 251.264 160.964 251.317 161.071 251.424C161.188 251.52 161.247 251.664 161.247 251.856L161.247 252.016C161.247 252.208 161.188 252.357 161.071 252.464C160.964 252.56 160.804 252.608 160.591 252.608ZM164.301 261.52C164.301 261.648 164.253 261.76 164.157 261.856C164.061 261.952 163.949 262 163.821 262C163.682 262 163.565 261.952 163.469 261.856C163.383 261.76 163.341 261.648 163.341 261.52L163.341 250.64C163.341 250.512 163.389 250.4 163.485 250.304C163.581 250.208 163.693 250.16 163.821 250.16C163.959 250.16 164.071 250.208 164.157 250.304C164.253 250.4 164.301 250.512 164.301 250.64L164.301 261.52ZM170.34 253.76C171.012 253.76 171.556 253.904 171.972 254.192C172.388 254.48 172.692 254.869 172.884 255.36C173.087 255.851 173.188 256.395 173.188 256.992L173.188 261.52C173.188 261.648 173.14 261.76 173.044 261.856C172.948 261.952 172.836 262 172.708 262C172.559 262 172.442 261.952 172.356 261.856C172.271 261.76 172.228 261.648 172.228 261.52L172.228 256.992C172.228 256.555 172.159 256.16 172.02 255.808C171.892 255.456 171.679 255.179 171.38 254.976C171.082 254.763 170.682 254.656 170.18 254.656C169.732 254.656 169.306 254.763 168.9 254.976C168.506 255.179 168.186 255.456 167.94 255.808C167.695 256.16 167.572 256.555 167.572 256.992L167.572 261.52C167.572 261.648 167.524 261.76 167.428 261.856C167.332 261.952 167.22 262 167.092 262C166.943 262 166.826 261.952 166.74 261.856C166.655 261.76 166.612 261.648 166.612 261.52L166.612 250.64C166.612 250.512 166.655 250.4 166.74 250.304C166.836 250.208 166.954 250.16 167.092 250.16C167.231 250.16 167.343 250.208 167.428 250.304C167.524 250.4 167.572 250.512 167.572 250.64L167.572 255.824L167.204 256.384C167.226 256.053 167.327 255.733 167.508 255.424C167.7 255.104 167.946 254.821 168.244 254.576C168.543 254.32 168.874 254.123 169.236 253.984C169.599 253.835 169.967 253.76 170.34 253.76ZM182.09 253.824C182.229 253.824 182.341 253.872 182.426 253.968C182.522 254.064 182.57 254.181 182.57 254.32L182.57 261.52C182.57 261.648 182.522 261.76 182.426 261.856C182.33 261.952 182.218 262 182.09 262C181.951 262 181.834 261.952 181.738 261.856C181.653 261.76 181.61 261.648 181.61 261.52L181.61 259.616L181.882 259.488C181.882 259.787 181.797 260.091 181.626 260.4C181.466 260.709 181.242 260.997 180.954 261.264C180.666 261.531 180.325 261.749 179.93 261.92C179.546 262.08 179.13 262.16 178.682 262.16C177.957 262.16 177.306 261.973 176.73 261.6C176.165 261.227 175.717 260.715 175.386 260.064C175.066 259.413 174.906 258.683 174.906 257.872C174.906 257.04 175.071 256.309 175.402 255.68C175.733 255.04 176.181 254.539 176.746 254.176C177.311 253.813 177.951 253.632 178.666 253.632C179.125 253.632 179.551 253.712 179.946 253.872C180.351 254.032 180.703 254.251 181.002 254.528C181.301 254.805 181.53 255.125 181.69 255.488C181.861 255.84 181.946 256.208 181.946 256.592L181.61 256.352L181.61 254.32C181.61 254.181 181.653 254.064 181.738 253.968C181.834 253.872 181.951 253.824 182.09 253.824ZM178.762 261.264C179.327 261.264 179.829 261.12 180.266 260.832C180.703 260.533 181.045 260.128 181.29 259.616C181.546 259.093 181.674 258.512 181.674 257.872C181.674 257.243 181.546 256.677 181.29 256.176C181.045 255.675 180.703 255.275 180.266 254.976C179.829 254.677 179.327 254.528 178.762 254.528C178.207 254.528 177.706 254.672 177.258 254.96C176.821 255.248 176.474 255.643 176.218 256.144C175.973 256.645 175.85 257.221 175.85 257.872C175.85 258.512 175.973 259.093 176.218 259.616C176.474 260.128 176.821 260.533 177.258 260.832C177.695 261.12 178.197 261.264 178.762 261.264ZM188.449 253.76C189.11 253.76 189.676 253.936 190.145 254.288C190.614 254.629 190.934 255.141 191.105 255.824L190.881 255.888L190.977 255.6C191.116 255.28 191.345 254.981 191.665 254.704C191.996 254.416 192.369 254.187 192.785 254.016C193.201 253.845 193.622 253.76 194.049 253.76C194.721 253.76 195.26 253.904 195.665 254.192C196.081 254.48 196.38 254.869 196.561 255.36C196.753 255.84 196.849 256.384 196.849 256.992L196.849 261.52C196.849 261.648 196.801 261.76 196.705 261.856C196.62 261.952 196.508 262 196.369 262C196.23 262 196.113 261.952 196.017 261.856C195.932 261.76 195.889 261.648 195.889 261.52L195.889 257.04C195.889 256.603 195.82 256.203 195.681 255.84C195.542 255.477 195.324 255.189 195.025 254.976C194.726 254.763 194.326 254.656 193.825 254.656C193.388 254.656 192.966 254.763 192.561 254.976C192.166 255.189 191.841 255.477 191.585 255.84C191.34 256.203 191.217 256.603 191.217 257.04L191.217 261.52C191.217 261.648 191.169 261.76 191.073 261.856C190.988 261.952 190.876 262 190.737 262C190.598 262 190.481 261.952 190.385 261.856C190.3 261.76 190.257 261.648 190.257 261.52L190.257 256.992C190.257 256.555 190.193 256.16 190.065 255.808C189.937 255.456 189.729 255.179 189.441 254.976C189.153 254.763 188.764 254.656 188.273 254.656C187.836 254.656 187.42 254.763 187.025 254.976C186.641 255.179 186.326 255.456 186.081 255.808C185.846 256.16 185.729 256.555 185.729 256.992L185.729 261.52C185.729 261.648 185.681 261.76 185.585 261.856C185.489 261.952 185.377 262 185.249 262C185.1 262 184.982 261.952 184.897 261.856C184.812 261.76 184.769 261.648 184.769 261.52L184.769 254.352C184.769 254.224 184.812 254.112 184.897 254.016C184.993 253.92 185.11 253.872 185.249 253.872C185.388 253.872 185.5 253.92 185.585 254.016C185.681 254.112 185.729 254.224 185.729 254.352L185.729 255.84L185.297 256.432C185.329 256.112 185.43 255.792 185.601 255.472C185.782 255.152 186.017 254.864 186.305 254.608C186.593 254.352 186.918 254.149 187.281 254C187.654 253.84 188.044 253.76 188.449 253.76ZM202.739 262.16C201.918 262.16 201.192 261.984 200.563 261.632C199.934 261.28 199.443 260.789 199.091 260.16C198.739 259.531 198.563 258.795 198.563 257.952C198.563 257.045 198.739 256.272 199.091 255.632C199.454 254.992 199.918 254.501 200.483 254.16C201.059 253.808 201.667 253.632 202.307 253.632C202.776 253.632 203.23 253.717 203.667 253.888C204.115 254.048 204.51 254.293 204.851 254.624C205.203 254.944 205.48 255.339 205.683 255.808C205.896 256.277 206.014 256.821 206.035 257.44C206.024 257.568 205.971 257.68 205.875 257.776C205.779 257.861 205.667 257.904 205.539 257.904L199.123 257.904L198.931 257.04L205.235 257.04L205.027 257.232L205.027 256.912C204.984 256.411 204.824 255.984 204.547 255.632C204.27 255.28 203.934 255.013 203.539 254.832C203.144 254.651 202.734 254.56 202.307 254.56C201.987 254.56 201.656 254.624 201.315 254.752C200.984 254.88 200.68 255.083 200.403 255.36C200.136 255.627 199.918 255.973 199.747 256.4C199.576 256.816 199.491 257.312 199.491 257.888C199.491 258.517 199.619 259.088 199.875 259.6C200.131 260.112 200.499 260.517 200.979 260.816C201.47 261.115 202.051 261.264 202.723 261.264C203.096 261.264 203.432 261.211 203.731 261.104C204.03 260.997 204.291 260.859 204.515 260.688C204.739 260.507 204.926 260.32 205.075 260.128C205.192 260.032 205.31 259.984 205.427 259.984C205.534 259.984 205.624 260.027 205.699 260.112C205.784 260.197 205.827 260.293 205.827 260.4C205.827 260.528 205.774 260.64 205.667 260.736C205.347 261.12 204.931 261.456 204.419 261.744C203.907 262.021 203.347 262.16 202.739 262.16ZM211.626 253.632C212.33 253.632 212.89 253.776 213.306 254.064C213.732 254.341 214.036 254.725 214.218 255.216C214.41 255.696 214.506 256.229 214.506 256.816L214.506 261.52C214.506 261.648 214.458 261.76 214.362 261.856C214.266 261.952 214.154 262 214.026 262C213.876 262 213.759 261.952 213.674 261.856C213.588 261.76 213.546 261.648 213.546 261.52L213.546 256.864C213.546 256.437 213.476 256.048 213.338 255.696C213.199 255.344 212.97 255.061 212.65 254.848C212.34 254.635 211.93 254.528 211.418 254.528C210.959 254.528 210.522 254.635 210.106 254.848C209.7 255.061 209.37 255.344 209.114 255.696C208.858 256.048 208.73 256.437 208.73 256.864L208.73 261.52C208.73 261.648 208.682 261.76 208.586 261.856C208.49 261.952 208.378 262 208.25 262C208.1 262 207.983 261.952 207.898 261.856C207.812 261.76 207.77 261.648 207.77 261.52L207.77 254.352C207.77 254.224 207.812 254.112 207.898 254.016C207.994 253.92 208.111 253.872 208.25 253.872C208.388 253.872 208.5 253.92 208.586 254.016C208.682 254.112 208.73 254.224 208.73 254.352L208.73 255.696L208.362 256.272C208.383 255.931 208.49 255.605 208.682 255.296C208.884 254.976 209.14 254.693 209.45 254.448C209.759 254.192 210.1 253.995 210.474 253.856C210.858 253.707 211.242 253.632 211.626 253.632ZM216.172 253.856L219.9 253.856C220.028 253.856 220.134 253.904 220.22 254C220.305 254.085 220.348 254.192 220.348 254.32C220.348 254.437 220.305 254.539 220.22 254.624C220.134 254.709 220.028 254.752 219.9 254.752L216.172 254.752C216.044 254.752 215.932 254.709 215.836 254.624C215.75 254.528 215.708 254.421 215.708 254.304C215.708 254.176 215.75 254.069 215.836 253.984C215.932 253.899 216.044 253.856 216.172 253.856ZM217.82 251.6C217.958 251.6 218.07 251.648 218.156 251.744C218.252 251.84 218.3 251.952 218.3 252.08L218.3 260.112C218.3 260.411 218.337 260.635 218.412 260.784C218.497 260.933 218.604 261.035 218.732 261.088C218.86 261.131 218.988 261.152 219.116 261.152C219.201 261.152 219.276 261.141 219.34 261.12C219.414 261.088 219.494 261.072 219.58 261.072C219.676 261.072 219.756 261.109 219.82 261.184C219.894 261.259 219.932 261.355 219.932 261.472C219.932 261.621 219.846 261.749 219.676 261.856C219.505 261.952 219.302 262 219.068 262C218.972 262 218.828 261.995 218.636 261.984C218.444 261.963 218.246 261.904 218.044 261.808C217.841 261.701 217.67 261.52 217.532 261.264C217.404 261.008 217.34 260.64 217.34 260.16L217.34 252.08C217.34 251.952 217.382 251.84 217.468 251.744C217.564 251.648 217.681 251.6 217.82 251.6ZM229.34 257.904C229.34 258.715 229.164 259.445 228.812 260.096C228.46 260.736 227.98 261.243 227.372 261.616C226.764 261.979 226.07 262.16 225.292 262.16C224.534 262.16 223.846 261.979 223.228 261.616C222.62 261.243 222.134 260.736 221.772 260.096C221.42 259.445 221.244 258.715 221.244 257.904C221.244 257.083 221.42 256.352 221.772 255.712C222.134 255.072 222.62 254.565 223.228 254.192C223.846 253.819 224.534 253.632 225.292 253.632C226.07 253.632 226.764 253.819 227.372 254.192C227.98 254.565 228.46 255.072 228.812 255.712C229.164 256.352 229.34 257.083 229.34 257.904ZM228.38 257.904C228.38 257.253 228.246 256.677 227.98 256.176C227.713 255.664 227.345 255.264 226.876 254.976C226.417 254.677 225.889 254.528 225.292 254.528C224.716 254.528 224.193 254.677 223.724 254.976C223.254 255.264 222.881 255.664 222.604 256.176C222.337 256.677 222.204 257.253 222.204 257.904C222.204 258.555 222.337 259.131 222.604 259.632C222.881 260.133 223.254 260.533 223.724 260.832C224.193 261.12 224.716 261.264 225.292 261.264C225.889 261.264 226.417 261.12 226.876 260.832C227.345 260.533 227.713 260.133 227.98 259.632C228.246 259.131 228.38 258.555 228.38 257.904ZM238.811 262.16C237.989 262.16 237.264 261.984 236.635 261.632C236.005 261.28 235.515 260.789 235.163 260.16C234.811 259.531 234.635 258.795 234.635 257.952C234.635 257.045 234.811 256.272 235.163 255.632C235.525 254.992 235.989 254.501 236.555 254.16C237.131 253.808 237.739 253.632 238.379 253.632C238.848 253.632 239.301 253.717 239.739 253.888C240.187 254.048 240.581 254.293 240.923 254.624C241.275 254.944 241.552 255.339 241.755 255.808C241.968 256.277 242.085 256.821 242.107 257.44C242.096 257.568 242.043 257.68 241.947 257.776C241.851 257.861 241.739 257.904 241.611 257.904L235.195 257.904L235.003 257.04L241.307 257.04L241.099 257.232L241.099 256.912C241.056 256.411 240.896 255.984 240.619 255.632C240.341 255.28 240.005 255.013 239.611 254.832C239.216 254.651 238.805 254.56 238.379 254.56C238.059 254.56 237.728 254.624 237.387 254.752C237.056 254.88 236.752 255.083 236.475 255.36C236.208 255.627 235.989 255.973 235.819 256.4C235.648 256.816 235.563 257.312 235.563 257.888C235.563 258.517 235.691 259.088 235.947 259.6C236.203 260.112 236.571 260.517 237.051 260.816C237.541 261.115 238.123 261.264 238.795 261.264C239.168 261.264 239.504 261.211 239.803 261.104C240.101 260.997 240.363 260.859 240.587 260.688C240.811 260.507 240.997 260.32 241.147 260.128C241.264 260.032 241.381 259.984 241.499 259.984C241.605 259.984 241.696 260.027 241.771 260.112C241.856 260.197 241.899 260.293 241.899 260.4C241.899 260.528 241.845 260.64 241.739 260.736C241.419 261.12 241.003 261.456 240.491 261.744C239.979 262.021 239.419 262.16 238.811 262.16ZM64.8641 273.632C65.3761 273.632 65.8455 273.691 66.2721 273.808C66.6988 273.915 67.0401 274.064 67.2961 274.256C67.5628 274.448 67.6961 274.656 67.6961 274.88C67.6961 274.987 67.6588 275.093 67.5841 275.2C67.5095 275.296 67.4081 275.344 67.2801 275.344C67.1521 275.344 67.0455 275.312 66.9601 275.248C66.8855 275.184 66.8055 275.109 66.7201 275.024C66.6455 274.939 66.5335 274.859 66.3841 274.784C66.2455 274.72 66.0481 274.661 65.7921 274.608C65.5361 274.555 65.2428 274.528 64.9121 274.528C64.3148 274.528 63.7761 274.677 63.2961 274.976C62.8161 275.275 62.4375 275.68 62.1601 276.192C61.8828 276.693 61.7441 277.259 61.7441 277.888C61.7441 278.528 61.8775 279.104 62.1441 279.616C62.4108 280.128 62.7788 280.533 63.2481 280.832C63.7175 281.12 64.2668 281.264 64.8961 281.264C65.3228 281.264 65.6535 281.227 65.8881 281.152C66.1228 281.077 66.3255 280.992 66.4961 280.896C66.6988 280.779 66.8428 280.667 66.9281 280.56C67.0241 280.443 67.1468 280.384 67.2961 280.384C67.4348 280.384 67.5361 280.427 67.6001 280.512C67.6748 280.587 67.7121 280.688 67.7121 280.816C67.7121 280.987 67.5841 281.179 67.3281 281.392C67.0828 281.595 66.7415 281.776 66.3041 281.936C65.8668 282.085 65.3655 282.16 64.8001 282.16C64.0001 282.16 63.2961 281.973 62.6881 281.6C62.0908 281.227 61.6215 280.72 61.2801 280.08C60.9495 279.429 60.7841 278.699 60.7841 277.888C60.7841 277.109 60.9548 276.4 61.2961 275.76C61.6375 275.12 62.1121 274.608 62.7201 274.224C63.3388 273.829 64.0535 273.632 64.8641 273.632ZM76.8414 277.904C76.8414 278.715 76.6654 279.445 76.3134 280.096C75.9614 280.736 75.4814 281.243 74.8734 281.616C74.2654 281.979 73.572 282.16 72.7934 282.16C72.036 282.16 71.348 281.979 70.7294 281.616C70.1214 281.243 69.636 280.736 69.2734 280.096C68.9214 279.445 68.7454 278.715 68.7454 277.904C68.7454 277.083 68.9214 276.352 69.2734 275.712C69.636 275.072 70.1214 274.565 70.7294 274.192C71.348 273.819 72.036 273.632 72.7934 273.632C73.572 273.632 74.2654 273.819 74.8734 274.192C75.4814 274.565 75.9614 275.072 76.3134 275.712C76.6654 276.352 76.8414 277.083 76.8414 277.904ZM75.8814 277.904C75.8814 277.253 75.748 276.677 75.4814 276.176C75.2147 275.664 74.8467 275.264 74.3774 274.976C73.9187 274.677 73.3907 274.528 72.7934 274.528C72.2174 274.528 71.6947 274.677 71.2254 274.976C70.756 275.264 70.3827 275.664 70.1054 276.176C69.8387 276.677 69.7054 277.253 69.7054 277.904C69.7054 278.555 69.8387 279.131 70.1054 279.632C70.3827 280.133 70.756 280.533 71.2254 280.832C71.6947 281.12 72.2174 281.264 72.7934 281.264C73.3907 281.264 73.9187 281.12 74.3774 280.832C74.8467 280.533 75.2147 280.133 75.4814 279.632C75.748 279.131 75.8814 278.555 75.8814 277.904ZM82.2416 273.76C82.903 273.76 83.4683 273.936 83.9376 274.288C84.407 274.629 84.727 275.141 84.8976 275.824L84.6736 275.888L84.7696 275.6C84.9083 275.28 85.1376 274.981 85.4576 274.704C85.7883 274.416 86.1616 274.187 86.5776 274.016C86.9936 273.845 87.415 273.76 87.8416 273.76C88.5136 273.76 89.0523 273.904 89.4576 274.192C89.8736 274.48 90.1723 274.869 90.3536 275.36C90.5456 275.84 90.6416 276.384 90.6416 276.992L90.6416 281.52C90.6416 281.648 90.5936 281.76 90.4976 281.856C90.4123 281.952 90.3003 282 90.1616 282C90.023 282 89.9056 281.952 89.8096 281.856C89.7243 281.76 89.6816 281.648 89.6816 281.52L89.6816 277.04C89.6816 276.603 89.6123 276.203 89.4736 275.84C89.335 275.477 89.1163 275.189 88.8176 274.976C88.519 274.763 88.119 274.656 87.6176 274.656C87.1803 274.656 86.759 274.763 86.3536 274.976C85.959 275.189 85.6336 275.477 85.3776 275.84C85.1323 276.203 85.0096 276.603 85.0096 277.04L85.0096 281.52C85.0096 281.648 84.9616 281.76 84.8656 281.856C84.7803 281.952 84.6683 282 84.5296 282C84.391 282 84.2736 281.952 84.1776 281.856C84.0923 281.76 84.0496 281.648 84.0496 281.52L84.0496 276.992C84.0496 276.555 83.9856 276.16 83.8576 275.808C83.7296 275.456 83.5216 275.179 83.2336 274.976C82.9456 274.763 82.5563 274.656 82.0656 274.656C81.6283 274.656 81.2123 274.763 80.8176 274.976C80.4336 275.179 80.119 275.456 79.8736 275.808C79.639 276.16 79.5216 276.555 79.5216 276.992L79.5216 281.52C79.5216 281.648 79.4736 281.76 79.3776 281.856C79.2816 281.952 79.1696 282 79.0416 282C78.8923 282 78.775 281.952 78.6896 281.856C78.6043 281.76 78.5616 281.648 78.5616 281.52L78.5616 274.352C78.5616 274.224 78.6043 274.112 78.6896 274.016C78.7856 273.92 78.903 273.872 79.0416 273.872C79.1803 273.872 79.2923 273.92 79.3776 274.016C79.4736 274.112 79.5216 274.224 79.5216 274.352L79.5216 275.84L79.0896 276.432C79.1216 276.112 79.223 275.792 79.3936 275.472C79.575 275.152 79.8096 274.864 80.0976 274.608C80.3856 274.352 80.711 274.149 81.0736 274C81.447 273.84 81.8363 273.76 82.2416 273.76ZM96.5154 273.76C97.1767 273.76 97.742 273.936 98.2114 274.288C98.6807 274.629 99.0007 275.141 99.1714 275.824L98.9474 275.888L99.0434 275.6C99.182 275.28 99.4114 274.981 99.7314 274.704C100.062 274.416 100.435 274.187 100.851 274.016C101.267 273.845 101.689 273.76 102.115 273.76C102.787 273.76 103.326 273.904 103.731 274.192C104.147 274.48 104.446 274.869 104.627 275.36C104.819 275.84 104.915 276.384 104.915 276.992L104.915 281.52C104.915 281.648 104.867 281.76 104.771 281.856C104.686 281.952 104.574 282 104.435 282C104.297 282 104.179 281.952 104.083 281.856C103.998 281.76 103.955 281.648 103.955 281.52L103.955 277.04C103.955 276.603 103.886 276.203 103.747 275.84C103.609 275.477 103.39 275.189 103.091 274.976C102.793 274.763 102.393 274.656 101.891 274.656C101.454 274.656 101.033 274.763 100.627 274.976C100.233 275.189 99.9074 275.477 99.6514 275.84C99.406 276.203 99.2834 276.603 99.2834 277.04L99.2834 281.52C99.2834 281.648 99.2354 281.76 99.1394 281.856C99.054 281.952 98.942 282 98.8034 282C98.6647 282 98.5474 281.952 98.4514 281.856C98.366 281.76 98.3234 281.648 98.3234 281.52L98.3234 276.992C98.3234 276.555 98.2594 276.16 98.1314 275.808C98.0034 275.456 97.7954 275.179 97.5074 274.976C97.2194 274.763 96.83 274.656 96.3394 274.656C95.902 274.656 95.486 274.763 95.0914 274.976C94.7074 275.179 94.3927 275.456 94.1474 275.808C93.9127 276.16 93.7954 276.555 93.7954 276.992L93.7954 281.52C93.7954 281.648 93.7474 281.76 93.6514 281.856C93.5554 281.952 93.4434 282 93.3154 282C93.166 282 93.0487 281.952 92.9634 281.856C92.878 281.76 92.8354 281.648 92.8354 281.52L92.8354 274.352C92.8354 274.224 92.878 274.112 92.9634 274.016C93.0594 273.92 93.1767 273.872 93.3154 273.872C93.454 273.872 93.566 273.92 93.6514 274.016C93.7474 274.112 93.7954 274.224 93.7954 274.352L93.7954 275.84L93.3634 276.432C93.3954 276.112 93.4967 275.792 93.6674 275.472C93.8487 275.152 94.0834 274.864 94.3714 274.608C94.6594 274.352 94.9847 274.149 95.3474 274C95.7207 273.84 96.11 273.76 96.5154 273.76ZM108.037 281.52C108.037 281.648 107.989 281.76 107.893 281.856C107.797 281.952 107.685 282 107.557 282C107.418 282 107.301 281.952 107.205 281.856C107.12 281.76 107.077 281.648 107.077 281.52L107.077 274.16C107.077 274.032 107.12 273.92 107.205 273.824C107.301 273.728 107.418 273.68 107.557 273.68C107.696 273.68 107.808 273.728 107.893 273.824C107.989 273.92 108.037 274.032 108.037 274.16L108.037 281.52ZM107.557 272.608C107.333 272.608 107.162 272.56 107.045 272.464C106.938 272.357 106.885 272.208 106.885 272.016L106.885 271.856C106.885 271.664 106.944 271.52 107.061 271.424C107.189 271.317 107.36 271.264 107.573 271.264C107.776 271.264 107.93 271.317 108.037 271.424C108.154 271.52 108.213 271.664 108.213 271.856L108.213 272.016C108.213 272.208 108.154 272.357 108.037 272.464C107.93 272.56 107.77 272.608 107.557 272.608ZM109.683 273.856L113.411 273.856C113.539 273.856 113.646 273.904 113.731 274C113.816 274.085 113.859 274.192 113.859 274.32C113.859 274.437 113.816 274.539 113.731 274.624C113.646 274.709 113.539 274.752 113.411 274.752L109.683 274.752C109.555 274.752 109.443 274.709 109.347 274.624C109.262 274.528 109.219 274.421 109.219 274.304C109.219 274.176 109.262 274.069 109.347 273.984C109.443 273.899 109.555 273.856 109.683 273.856ZM111.331 271.6C111.47 271.6 111.582 271.648 111.667 271.744C111.763 271.84 111.811 271.952 111.811 272.08L111.811 280.112C111.811 280.411 111.848 280.635 111.923 280.784C112.008 280.933 112.115 281.035 112.243 281.088C112.371 281.131 112.499 281.152 112.627 281.152C112.712 281.152 112.787 281.141 112.851 281.12C112.926 281.088 113.006 281.072 113.091 281.072C113.187 281.072 113.267 281.109 113.331 281.184C113.406 281.259 113.443 281.355 113.443 281.472C113.443 281.621 113.358 281.749 113.187 281.856C113.016 281.952 112.814 282 112.579 282C112.483 282 112.339 281.995 112.147 281.984C111.955 281.963 111.758 281.904 111.555 281.808C111.352 281.701 111.182 281.52 111.043 281.264C110.915 281.008 110.851 280.64 110.851 280.16L110.851 272.08C110.851 271.952 110.894 271.84 110.979 271.744C111.075 271.648 111.192 271.6 111.331 271.6ZM126.072 270.16C126.211 270.16 126.323 270.208 126.408 270.304C126.504 270.389 126.552 270.501 126.552 270.64L126.552 281.52C126.552 281.648 126.504 281.76 126.408 281.856C126.312 281.952 126.2 282 126.072 282C125.933 282 125.816 281.952 125.72 281.856C125.635 281.76 125.592 281.648 125.592 281.52L125.592 279.616L125.864 279.392C125.864 279.691 125.784 280.005 125.624 280.336C125.464 280.656 125.235 280.955 124.936 281.232C124.648 281.509 124.307 281.733 123.912 281.904C123.528 282.075 123.112 282.16 122.664 282.16C121.949 282.16 121.304 281.973 120.728 281.6C120.163 281.227 119.715 280.72 119.384 280.08C119.053 279.44 118.888 278.709 118.888 277.888C118.888 277.077 119.053 276.352 119.384 275.712C119.715 275.061 120.163 274.555 120.728 274.192C121.293 273.819 121.933 273.632 122.648 273.632C123.085 273.632 123.501 273.712 123.896 273.872C124.291 274.032 124.637 274.251 124.936 274.528C125.245 274.805 125.485 275.125 125.656 275.488C125.837 275.84 125.928 276.208 125.928 276.592L125.592 276.352L125.592 270.64C125.592 270.512 125.635 270.4 125.72 270.304C125.816 270.208 125.933 270.16 126.072 270.16ZM122.744 281.264C123.32 281.264 123.821 281.12 124.248 280.832C124.685 280.533 125.027 280.133 125.272 279.632C125.528 279.12 125.656 278.539 125.656 277.888C125.656 277.248 125.528 276.677 125.272 276.176C125.027 275.664 124.685 275.264 124.248 274.976C123.811 274.677 123.309 274.528 122.744 274.528C122.189 274.528 121.688 274.677 121.24 274.976C120.803 275.264 120.456 275.664 120.2 276.176C119.955 276.677 119.832 277.248 119.832 277.888C119.832 278.528 119.955 279.104 120.2 279.616C120.456 280.128 120.803 280.533 121.24 280.832C121.688 281.12 122.189 281.264 122.744 281.264ZM136.367 277.904C136.367 278.715 136.191 279.445 135.839 280.096C135.487 280.736 135.007 281.243 134.399 281.616C133.791 281.979 133.098 282.16 132.319 282.16C131.562 282.16 130.874 281.979 130.255 281.616C129.647 281.243 129.162 280.736 128.799 280.096C128.447 279.445 128.271 278.715 128.271 277.904C128.271 277.083 128.447 276.352 128.799 275.712C129.162 275.072 129.647 274.565 130.255 274.192C130.874 273.819 131.562 273.632 132.319 273.632C133.098 273.632 133.791 273.819 134.399 274.192C135.007 274.565 135.487 275.072 135.839 275.712C136.191 276.352 136.367 277.083 136.367 277.904ZM135.407 277.904C135.407 277.253 135.274 276.677 135.007 276.176C134.74 275.664 134.372 275.264 133.903 274.976C133.444 274.677 132.916 274.528 132.319 274.528C131.743 274.528 131.22 274.677 130.751 274.976C130.282 275.264 129.908 275.664 129.631 276.176C129.364 276.677 129.231 277.253 129.231 277.904C129.231 278.555 129.364 279.131 129.631 279.632C129.908 280.133 130.282 280.533 130.751 280.832C131.22 281.12 131.743 281.264 132.319 281.264C132.916 281.264 133.444 281.12 133.903 280.832C134.372 280.533 134.74 280.133 135.007 279.632C135.274 279.131 135.407 278.555 135.407 277.904ZM137.623 280.704C137.538 280.576 137.495 280.453 137.495 280.336C137.506 280.208 137.575 280.107 137.703 280.032C137.789 279.957 137.885 279.925 137.991 279.936C138.109 279.947 138.215 280 138.311 280.096C138.599 280.469 138.946 280.773 139.351 281.008C139.767 281.232 140.258 281.344 140.823 281.344C141.122 281.344 141.415 281.296 141.703 281.2C142.002 281.093 142.247 280.939 142.439 280.736C142.631 280.523 142.727 280.256 142.727 279.936C142.727 279.605 142.631 279.339 142.439 279.136C142.247 278.933 141.997 278.773 141.687 278.656C141.389 278.539 141.069 278.437 140.727 278.352C140.365 278.256 140.013 278.149 139.671 278.032C139.33 277.904 139.026 277.749 138.759 277.568C138.503 277.376 138.295 277.147 138.135 276.88C137.975 276.613 137.895 276.288 137.895 275.904C137.895 275.456 138.018 275.061 138.263 274.72C138.509 274.379 138.839 274.112 139.255 273.92C139.682 273.728 140.162 273.632 140.695 273.632C140.962 273.632 141.25 273.669 141.559 273.744C141.869 273.808 142.173 273.92 142.471 274.08C142.77 274.24 143.037 274.459 143.271 274.736C143.367 274.832 143.415 274.944 143.415 275.072C143.415 275.189 143.362 275.296 143.255 275.392C143.17 275.456 143.069 275.488 142.951 275.488C142.845 275.488 142.754 275.445 142.679 275.36C142.423 275.072 142.119 274.853 141.767 274.704C141.415 274.555 141.037 274.48 140.631 274.48C140.322 274.48 140.029 274.533 139.751 274.64C139.485 274.736 139.261 274.885 139.079 275.088C138.898 275.291 138.807 275.557 138.807 275.888C138.829 276.197 138.935 276.448 139.127 276.64C139.33 276.832 139.591 276.992 139.911 277.12C140.242 277.248 140.61 277.365 141.015 277.472C141.357 277.557 141.682 277.659 141.991 277.776C142.311 277.893 142.589 278.043 142.823 278.224C143.069 278.395 143.261 278.613 143.399 278.88C143.549 279.147 143.623 279.483 143.623 279.888C143.623 280.357 143.49 280.763 143.223 281.104C142.967 281.445 142.621 281.707 142.183 281.888C141.746 282.069 141.261 282.16 140.727 282.16C140.151 282.16 139.591 282.048 139.047 281.824C138.514 281.6 138.039 281.227 137.623 280.704ZM153.21 273.76C153.936 273.76 154.576 273.941 155.13 274.304C155.696 274.656 156.144 275.147 156.474 275.776C156.805 276.395 156.97 277.109 156.97 277.92C156.97 278.731 156.805 279.451 156.474 280.08C156.144 280.709 155.696 281.205 155.13 281.568C154.565 281.931 153.93 282.112 153.226 282.112C152.853 282.112 152.496 282.059 152.154 281.952C151.824 281.835 151.52 281.68 151.242 281.488C150.965 281.296 150.72 281.072 150.506 280.816C150.293 280.549 150.122 280.261 149.994 279.952L150.282 279.744L150.282 284.72C150.282 284.848 150.234 284.96 150.138 285.056C150.053 285.152 149.941 285.2 149.802 285.2C149.664 285.2 149.546 285.152 149.45 285.056C149.365 284.96 149.322 284.848 149.322 284.72L149.322 274.288C149.322 274.149 149.365 274.032 149.45 273.936C149.536 273.84 149.653 273.792 149.802 273.792C149.941 273.792 150.053 273.84 150.138 273.936C150.234 274.032 150.282 274.149 150.282 274.288L150.282 276.016L150.058 275.888C150.165 275.557 150.32 275.264 150.522 275.008C150.736 274.741 150.981 274.517 151.258 274.336C151.536 274.144 151.84 274 152.17 273.904C152.501 273.808 152.848 273.76 153.21 273.76ZM153.13 274.656C152.554 274.656 152.048 274.8 151.61 275.088C151.173 275.365 150.826 275.749 150.57 276.24C150.325 276.72 150.202 277.28 150.202 277.92C150.202 278.549 150.325 279.115 150.57 279.616C150.826 280.117 151.173 280.512 151.61 280.8C152.048 281.077 152.554 281.216 153.13 281.216C153.696 281.216 154.192 281.077 154.618 280.8C155.056 280.512 155.402 280.117 155.658 279.616C155.914 279.115 156.042 278.549 156.042 277.92C156.042 277.291 155.914 276.731 155.658 276.24C155.402 275.749 155.056 275.365 154.618 275.088C154.192 274.8 153.696 274.656 153.13 274.656ZM159.185 282C159.036 282 158.919 281.952 158.833 281.856C158.748 281.76 158.705 281.648 158.705 281.52L158.705 274.352C158.705 274.224 158.748 274.112 158.833 274.016C158.929 273.92 159.047 273.872 159.185 273.872C159.324 273.872 159.436 273.92 159.521 274.016C159.617 274.112 159.665 274.224 159.665 274.352L159.665 276.752L159.425 276.8C159.457 276.427 159.548 276.059 159.697 275.696C159.857 275.323 160.071 274.981 160.337 274.672C160.604 274.363 160.919 274.112 161.281 273.92C161.655 273.728 162.071 273.632 162.529 273.632C162.721 273.632 162.908 273.675 163.089 273.76C163.271 273.835 163.361 273.963 163.361 274.144C163.361 274.304 163.319 274.427 163.233 274.512C163.148 274.597 163.047 274.64 162.929 274.64C162.833 274.64 162.727 274.613 162.609 274.56C162.503 274.507 162.359 274.48 162.177 274.48C161.879 274.48 161.58 274.571 161.281 274.752C160.983 274.923 160.711 275.157 160.465 275.456C160.22 275.755 160.023 276.091 159.873 276.464C159.735 276.827 159.665 277.195 159.665 277.568L159.665 281.52C159.665 281.648 159.617 281.76 159.521 281.856C159.425 281.952 159.313 282 159.185 282ZM171.798 277.904C171.798 278.715 171.622 279.445 171.27 280.096C170.918 280.736 170.438 281.243 169.83 281.616C169.222 281.979 168.529 282.16 167.75 282.16C166.993 282.16 166.305 281.979 165.686 281.616C165.078 281.243 164.593 280.736 164.23 280.096C163.878 279.445 163.702 278.715 163.702 277.904C163.702 277.083 163.878 276.352 164.23 275.712C164.593 275.072 165.078 274.565 165.686 274.192C166.305 273.819 166.993 273.632 167.75 273.632C168.529 273.632 169.222 273.819 169.83 274.192C170.438 274.565 170.918 275.072 171.27 275.712C171.622 276.352 171.798 277.083 171.798 277.904ZM170.838 277.904C170.838 277.253 170.705 276.677 170.438 276.176C170.172 275.664 169.804 275.264 169.334 274.976C168.876 274.677 168.348 274.528 167.75 274.528C167.174 274.528 166.652 274.677 166.182 274.976C165.713 275.264 165.34 275.664 165.062 276.176C164.796 276.677 164.662 277.253 164.662 277.904C164.662 278.555 164.796 279.131 165.062 279.632C165.34 280.133 165.713 280.533 166.182 280.832C166.652 281.12 167.174 281.264 167.75 281.264C168.348 281.264 168.876 281.12 169.334 280.832C169.804 280.533 170.172 280.133 170.438 279.632C170.705 279.131 170.838 278.555 170.838 277.904ZM174.686 282.736C174.686 283.248 174.564 283.68 174.318 284.032C174.084 284.395 173.79 284.672 173.438 284.864C173.086 285.056 172.734 285.152 172.382 285.152C172.244 285.152 172.137 285.109 172.062 285.024C171.977 284.939 171.934 284.837 171.934 284.72L171.934 284.656C171.934 284.528 171.977 284.427 172.062 284.352C172.148 284.277 172.244 284.229 172.35 284.208C172.596 284.155 172.82 284.064 173.022 283.936C173.236 283.808 173.406 283.632 173.534 283.408C173.662 283.184 173.726 282.912 173.726 282.592L173.726 274.336C173.726 274.208 173.769 274.096 173.854 274C173.95 273.904 174.068 273.856 174.206 273.856C174.345 273.856 174.457 273.904 174.542 274C174.638 274.096 174.686 274.208 174.686 274.336L174.686 282.736ZM174.206 272.592C173.982 272.592 173.812 272.544 173.694 272.448C173.588 272.341 173.534 272.192 173.534 272L173.534 271.84C173.534 271.648 173.593 271.504 173.71 271.408C173.838 271.301 174.009 271.248 174.222 271.248C174.425 271.248 174.58 271.301 174.686 271.408C174.804 271.504 174.862 271.648 174.862 271.84L174.862 272C174.862 272.192 174.804 272.341 174.686 272.448C174.58 272.544 174.42 272.592 174.206 272.592ZM181.207 282.16C180.386 282.16 179.66 281.984 179.031 281.632C178.402 281.28 177.911 280.789 177.559 280.16C177.207 279.531 177.031 278.795 177.031 277.952C177.031 277.045 177.207 276.272 177.559 275.632C177.922 274.992 178.386 274.501 178.951 274.16C179.527 273.808 180.135 273.632 180.775 273.632C181.244 273.632 181.698 273.717 182.135 273.888C182.583 274.048 182.978 274.293 183.319 274.624C183.671 274.944 183.948 275.339 184.151 275.808C184.364 276.277 184.482 276.821 184.503 277.44C184.492 277.568 184.439 277.68 184.343 277.776C184.247 277.861 184.135 277.904 184.007 277.904L177.591 277.904L177.399 277.04L183.703 277.04L183.495 277.232L183.495 276.912C183.452 276.411 183.292 275.984 183.015 275.632C182.738 275.28 182.402 275.013 182.007 274.832C181.612 274.651 181.202 274.56 180.775 274.56C180.455 274.56 180.124 274.624 179.783 274.752C179.452 274.88 179.148 275.083 178.871 275.36C178.604 275.627 178.386 275.973 178.215 276.4C178.044 276.816 177.959 277.312 177.959 277.888C177.959 278.517 178.087 279.088 178.343 279.6C178.599 280.112 178.967 280.517 179.447 280.816C179.938 281.115 180.519 281.264 181.191 281.264C181.564 281.264 181.9 281.211 182.199 281.104C182.498 280.997 182.759 280.859 182.983 280.688C183.207 280.507 183.394 280.32 183.543 280.128C183.66 280.032 183.778 279.984 183.895 279.984C184.002 279.984 184.092 280.027 184.167 280.112C184.252 280.197 184.295 280.293 184.295 280.4C184.295 280.528 184.242 280.64 184.135 280.736C183.815 281.12 183.399 281.456 182.887 281.744C182.375 282.021 181.815 282.16 181.207 282.16ZM185.71 273.856L189.438 273.856C189.566 273.856 189.673 273.904 189.758 274C189.843 274.085 189.886 274.192 189.886 274.32C189.886 274.437 189.843 274.539 189.758 274.624C189.673 274.709 189.566 274.752 189.438 274.752L185.71 274.752C185.582 274.752 185.47 274.709 185.374 274.624C185.289 274.528 185.246 274.421 185.246 274.304C185.246 274.176 185.289 274.069 185.374 273.984C185.47 273.899 185.582 273.856 185.71 273.856ZM187.358 271.6C187.497 271.6 187.609 271.648 187.694 271.744C187.79 271.84 187.838 271.952 187.838 272.08L187.838 280.112C187.838 280.411 187.875 280.635 187.95 280.784C188.035 280.933 188.142 281.035 188.27 281.088C188.398 281.131 188.526 281.152 188.654 281.152C188.739 281.152 188.814 281.141 188.878 281.12C188.953 281.088 189.033 281.072 189.118 281.072C189.214 281.072 189.294 281.109 189.358 281.184C189.433 281.259 189.47 281.355 189.47 281.472C189.47 281.621 189.385 281.749 189.214 281.856C189.043 281.952 188.841 282 188.606 282C188.51 282 188.366 281.995 188.174 281.984C187.982 281.963 187.785 281.904 187.582 281.808C187.379 281.701 187.209 281.52 187.07 281.264C186.942 281.008 186.878 280.64 186.878 280.16L186.878 272.08C186.878 271.952 186.921 271.84 187.006 271.744C187.102 271.648 187.219 271.6 187.358 271.6ZM198.878 277.904C198.878 278.715 198.702 279.445 198.35 280.096C197.998 280.736 197.518 281.243 196.91 281.616C196.302 281.979 195.608 282.16 194.83 282.16C194.072 282.16 193.384 281.979 192.766 281.616C192.158 281.243 191.672 280.736 191.31 280.096C190.958 279.445 190.782 278.715 190.782 277.904C190.782 277.083 190.958 276.352 191.31 275.712C191.672 275.072 192.158 274.565 192.766 274.192C193.384 273.819 194.072 273.632 194.83 273.632C195.608 273.632 196.302 273.819 196.91 274.192C197.518 274.565 197.998 275.072 198.35 275.712C198.702 276.352 198.878 277.083 198.878 277.904ZM197.918 277.904C197.918 277.253 197.784 276.677 197.518 276.176C197.251 275.664 196.883 275.264 196.414 274.976C195.955 274.677 195.427 274.528 194.83 274.528C194.254 274.528 193.731 274.677 193.262 274.976C192.792 275.264 192.419 275.664 192.142 276.176C191.875 276.677 191.742 277.253 191.742 277.904C191.742 278.555 191.875 279.131 192.142 279.632C192.419 280.133 192.792 280.533 193.262 280.832C193.731 281.12 194.254 281.264 194.83 281.264C195.427 281.264 195.955 281.12 196.414 280.832C196.883 280.533 197.251 280.133 197.518 279.632C197.784 279.131 197.918 278.555 197.918 277.904ZM200.134 280.704C200.049 280.576 200.006 280.453 200.006 280.336C200.017 280.208 200.086 280.107 200.214 280.032C200.299 279.957 200.395 279.925 200.502 279.936C200.619 279.947 200.726 280 200.822 280.096C201.11 280.469 201.457 280.773 201.862 281.008C202.278 281.232 202.769 281.344 203.334 281.344C203.633 281.344 203.926 281.296 204.214 281.2C204.513 281.093 204.758 280.939 204.95 280.736C205.142 280.523 205.238 280.256 205.238 279.936C205.238 279.605 205.142 279.339 204.95 279.136C204.758 278.933 204.507 278.773 204.198 278.656C203.899 278.539 203.579 278.437 203.238 278.352C202.875 278.256 202.523 278.149 202.182 278.032C201.841 277.904 201.537 277.749 201.27 277.568C201.014 277.376 200.806 277.147 200.646 276.88C200.486 276.613 200.406 276.288 200.406 275.904C200.406 275.456 200.529 275.061 200.774 274.72C201.019 274.379 201.35 274.112 201.766 273.92C202.193 273.728 202.673 273.632 203.206 273.632C203.473 273.632 203.761 273.669 204.07 273.744C204.379 273.808 204.683 273.92 204.982 274.08C205.281 274.24 205.547 274.459 205.782 274.736C205.878 274.832 205.926 274.944 205.926 275.072C205.926 275.189 205.873 275.296 205.766 275.392C205.681 275.456 205.579 275.488 205.462 275.488C205.355 275.488 205.265 275.445 205.19 275.36C204.934 275.072 204.63 274.853 204.278 274.704C203.926 274.555 203.547 274.48 203.142 274.48C202.833 274.48 202.539 274.533 202.262 274.64C201.995 274.736 201.771 274.885 201.59 275.088C201.409 275.291 201.318 275.557 201.318 275.888C201.339 276.197 201.446 276.448 201.638 276.64C201.841 276.832 202.102 276.992 202.422 277.12C202.753 277.248 203.121 277.365 203.526 277.472C203.867 277.557 204.193 277.659 204.502 277.776C204.822 277.893 205.099 278.043 205.334 278.224C205.579 278.395 205.771 278.613 205.91 278.88C206.059 279.147 206.134 279.483 206.134 279.888C206.134 280.357 206.001 280.763 205.734 281.104C205.478 281.445 205.131 281.707 204.694 281.888C204.257 282.069 203.771 282.16 203.238 282.16C202.662 282.16 202.102 282.048 201.558 281.824C201.025 281.6 200.55 281.227 200.134 280.704ZM207.906 282C207.725 282 207.586 281.941 207.49 281.824C207.394 281.707 207.346 281.557 207.346 281.376L207.346 281.04C207.346 280.848 207.394 280.699 207.49 280.592C207.586 280.485 207.725 280.432 207.906 280.432L208.018 280.432C208.199 280.432 208.338 280.485 208.434 280.592C208.53 280.699 208.578 280.848 208.578 281.04L208.578 281.376C208.578 281.557 208.53 281.707 208.434 281.824C208.338 281.941 208.199 282 208.018 282L207.906 282Z" fill="#363636"/>
<path d="M75.7601 188.28C79.6001 188.28 82.8001 190.12 83.8801 193.8L88.0401 193.8C87.0801 188.24 82.1601 184.6 75.8401 184.6C67.3201 184.6 61.6401 190.84 61.6401 199.64C61.6401 208.56 67.2801 214.48 75.4801 214.48C79.7201 214.48 83.2401 212.64 84.8001 210.12L85.0801 214.04L88.3601 214.04L88.3601 198.08L75.0001 198.08L75.0001 201.56L84.6801 201.56L84.6801 202.4C84.6801 208.24 80.7201 210.76 75.8001 210.76C69.8401 210.76 65.7601 206.72 65.7601 199.72C65.7601 192.88 69.5201 188.28 75.7601 188.28ZM95.9461 189.8C97.3061 189.8 98.4261 188.68 98.4261 187.32C98.4261 185.92 97.3061 184.84 95.9461 184.84C94.5861 184.84 93.4661 185.92 93.4661 187.32C93.4661 188.68 94.5861 189.8 95.9461 189.8ZM94.1061 214L97.8661 214L97.8661 194.44L94.1061 194.44L94.1061 214ZM109.645 214L109.645 197.6L113.485 197.6L113.485 194.44L109.645 194.44L109.645 188.32L105.885 188.32L105.885 194.44L102.045 194.44L102.045 197.6L105.885 197.6L105.885 214L109.645 214ZM122.219 214L122.219 201.16L136.539 201.16L136.539 214L140.459 214L140.459 185.08L136.539 185.08L136.539 197.52L122.219 197.52L122.219 185.08L118.299 185.08L118.299 214L122.219 214ZM160.846 194.44L160.846 204.76C160.846 208.96 158.966 211.16 155.526 211.16C152.646 211.16 150.846 209.56 150.846 205.36L150.846 194.44L147.086 194.44L147.086 206.6C147.086 211.4 149.646 214.48 154.206 214.48C157.086 214.48 159.686 213.08 160.806 211.04L161.206 214L164.566 214L164.566 194.44L160.846 194.44ZM174.222 214L174.502 210.44C175.782 213.12 178.382 214.48 181.462 214.48C187.142 214.48 190.662 210.24 190.662 204.32C190.662 198.28 187.302 193.88 181.702 193.88C178.502 193.88 175.862 195.24 174.582 197.8L174.582 184.56L170.822 184.56L170.822 214L174.222 214ZM174.622 204.16C174.622 200.16 176.942 197.28 180.782 197.28C184.622 197.28 186.902 200.16 186.902 204.16C186.902 208.2 184.622 211.08 180.782 211.08C176.942 211.08 174.622 208.24 174.622 204.16Z" fill="#3C2A56"/>
<g clip-path="url(#clip0_404_421)">
<path d="M205.297 9.03869e-09L135.703 2.76695e-09C118.746 1.2388e-09 105 13.7463 105 30.7031L105 100.297C105 117.254 118.746 131 135.703 131L205.297 131C222.254 131 236 117.254 236 100.297L236 30.7031C236 13.7463 222.254 1.05668e-08 205.297 9.03869e-09Z" fill="#242938"/>
<path d="M170.501 15.3516C142.242 15.3516 119.328 38.2612 119.328 66.524C119.328 89.1332 133.99 108.314 154.323 115.081C156.88 115.555 157.819 113.971 157.819 112.62C157.819 111.399 157.772 107.368 157.75 103.092C143.513 106.188 140.51 97.0546 140.51 97.0546C138.181 91.1397 134.828 89.5672 134.828 89.5672C130.185 86.3909 135.178 86.4564 135.178 86.4564C140.316 86.8172 143.022 91.7297 143.022 91.7297C147.586 99.5528 154.993 97.291 157.913 95.9836C158.373 92.6758 159.699 90.4187 161.162 89.1409C149.796 87.8468 137.848 83.4588 137.848 63.8512C137.848 58.2643 139.847 53.6993 143.12 50.1157C142.589 48.8267 140.837 43.622 143.616 36.5736C143.616 36.5736 147.913 35.1981 157.692 41.8187C161.774 40.6852 166.151 40.1167 170.501 40.0973C174.849 40.1167 179.23 40.6852 183.32 41.8192C193.087 35.1981 197.378 36.5741 197.378 36.5741C200.163 43.622 198.411 48.8272 197.88 50.1157C201.161 53.6993 203.146 58.2643 203.146 63.8512C203.146 83.5058 191.175 87.8335 179.78 89.1C181.616 90.6883 183.251 93.8021 183.251 98.5765C183.251 105.423 183.192 110.934 183.192 112.62C183.192 113.981 184.113 115.577 186.707 115.074C207.028 108.3 221.672 89.1255 221.672 66.524C221.672 38.2617 198.761 15.3516 170.501 15.3516ZM138.494 88.2474C138.381 88.5018 137.981 88.578 137.617 88.4035C137.245 88.2367 137.037 87.8897 137.157 87.6349C137.267 87.3729 137.669 87.3002 138.039 87.4758C138.411 87.6426 138.622 87.9926 138.494 88.2474ZM141.011 90.4934C140.767 90.7201 140.29 90.6146 139.966 90.257C139.632 89.9003 139.569 89.4234 139.816 89.1936C140.068 88.9674 140.531 89.0733 140.866 89.43C141.201 89.7913 141.266 90.2646 141.011 90.4934ZM142.738 93.3672C142.424 93.5852 141.911 93.381 141.595 92.9256C141.281 92.4706 141.281 91.9252 141.601 91.7061C141.919 91.4876 142.424 91.6841 142.745 92.136C143.058 92.5986 143.058 93.1446 142.738 93.3672ZM145.658 96.6954C145.378 97.0045 144.781 96.9216 144.343 96.4994C143.896 96.087 143.771 95.5016 144.052 95.192C144.336 94.8819 144.937 94.9694 145.378 95.388C145.822 95.7994 145.957 96.3894 145.658 96.6954ZM149.433 97.8186C149.309 98.2198 148.734 98.402 148.154 98.2316C147.576 98.0561 147.196 97.5868 147.314 97.1815C147.434 96.7783 148.011 96.5884 148.595 96.7706C149.174 96.9451 149.553 97.4113 149.433 97.8186ZM153.728 98.2955C153.742 98.7172 153.251 99.0672 152.643 99.0749C152.031 99.0887 151.536 98.7469 151.529 98.3319C151.529 97.9056 152.01 97.5592 152.621 97.549C153.23 97.5372 153.728 97.8759 153.728 98.2955ZM157.948 98.1338C158.021 98.5453 157.598 98.9685 156.994 99.081C156.4 99.1895 155.849 98.9352 155.774 98.5268C155.701 98.1047 156.131 97.682 156.724 97.5725C157.329 97.4676 157.871 97.7152 157.948 98.1338Z" fill="white"/>
</g>
<defs>
<filter id="filter0_d_404_421" x="0.0748291" y="27.9167" width="341" height="360" filterUnits="userSpaceOnUse" color-interpolation-filters="sRGB">
<feFlood flood-opacity="0" result="BackgroundImageFix"/>
<feColorMatrix in="SourceAlpha" type="matrix" values="0 0 0 0 0 0 0 0 0 0 0 0 0 0 0 0 0 0 127 0" result="hardAlpha"/>
<feOffset dy="9"/>
<feGaussianBlur stdDeviation="13.5"/>
<feColorMatrix type="matrix" values="0 0 0 0 0 0 0 0 0 0 0 0 0 0 0 0 0 0 0.1 0"/>
<feBlend mode="normal" in2="BackgroundImageFix" result="effect1_dropShadow_404_421"/>
<feBlend mode="normal" in="SourceGraphic" in2="effect1_dropShadow_404_421" result="shape"/>
</filter>
<clipPath id="clip0_404_421">
<rect width="131" height="131" fill="white" transform="translate(105)"/>
</clipPath>
</defs>
</svg>
