<svg width="131" height="131" viewBox="0 0 131 131" fill="none" xmlns="http://www.w3.org/2000/svg">
<g clip-path="url(#clip0_36_142)">
<path d="M44.2637 91.4271C44.4911 91.0859 44.4058 90.7164 44.0078 90.3184C43.4961 89.9204 43.0981 89.8635 42.8138 90.1478C42.5864 90.4889 42.6717 90.8585 43.0697 91.2565C43.5814 91.6545 43.9794 91.7114 44.2637 91.4271ZM41.8757 87.9303C41.5914 87.5323 41.2502 87.4186 40.8522 87.5892C40.5111 87.8166 40.5111 88.1578 40.8522 88.6126C41.2502 89.0675 41.5914 89.2096 41.8757 89.0391C42.2168 88.8116 42.2168 88.4421 41.8757 87.9303ZM38.3789 84.5189C38.4926 84.2915 38.3505 84.064 37.9525 83.8366C37.5545 83.7229 37.327 83.7797 37.2702 84.0072C37.0996 84.2915 37.2133 84.5189 37.6113 84.6895C38.0662 84.8032 38.322 84.7463 38.3789 84.5189ZM40.1699 86.4805C40.2836 86.4236 40.3263 86.2957 40.2979 86.0967C40.2694 85.8977 40.1699 85.7413 39.9994 85.6276C39.6582 85.2296 39.3739 85.1443 39.1465 85.3717C38.9191 85.5992 38.9475 85.9119 39.2318 86.3099C39.5729 86.651 39.8856 86.7079 40.1699 86.4805ZM47.5046 92.877C47.6183 92.479 47.3624 92.1662 46.737 91.9388C46.2253 91.7682 45.8557 91.882 45.6283 92.28C45.5145 92.678 45.7704 92.9907 46.3958 93.2181C46.9076 93.3887 47.2771 93.275 47.5046 92.877ZM51.0866 93.1328C51.0866 92.678 50.7454 92.4505 50.0632 92.4505C49.4946 92.4505 49.2103 92.678 49.2103 93.1328C49.2103 93.5877 49.523 93.8151 50.1484 93.8151C50.7739 93.8151 51.0866 93.5877 51.0866 93.1328ZM54.4128 92.5358C54.299 92.1378 53.9295 91.9957 53.304 92.1094C52.6786 92.2231 52.4227 92.479 52.5365 92.877C52.6502 93.3318 52.9913 93.5024 53.5599 93.3887C54.1285 93.275 54.4128 92.9907 54.4128 92.5358ZM109.167 65.5C109.167 53.4462 104.902 43.1549 96.3737 34.6263C87.8451 26.0977 77.5538 21.8333 65.5 21.8333C53.4462 21.8333 43.1549 26.0977 34.6263 34.6263C26.0977 43.1549 21.8333 53.4462 21.8333 65.5C21.8333 74.9952 24.6194 83.5381 30.1914 91.1286C35.7635 98.7191 42.9275 103.993 51.6836 106.949C52.707 107.12 53.4604 106.978 53.9437 106.523C54.427 106.068 54.6686 105.499 54.6686 104.817C54.6686 101.86 54.6402 99.1597 54.5833 96.7148C54.2422 96.7717 53.8015 96.8428 53.2614 96.9281C52.7212 97.0134 51.712 97.0702 50.2337 97.0986C48.7554 97.1271 47.3908 97.0134 46.14 96.7575C44.8891 96.5016 43.6525 95.9331 42.43 95.0518C41.2076 94.1705 40.3689 92.9907 39.9141 91.5124C38.6063 88.1578 36.9859 86.054 35.0527 85.2012C34.939 85.1443 34.8111 85.0448 34.6689 84.9027L33.9867 84.2204L33.3896 83.4102L33.7308 82.7705L35.3939 82.472C35.735 82.472 36.1615 82.5289 36.6732 82.6426C37.1849 82.7563 38.0378 83.1969 39.2318 83.9645C40.4258 84.7321 41.3639 85.7413 42.0462 86.9922C42.9559 88.5842 44.022 89.7782 45.2445 90.5742C46.4669 91.3702 47.7036 91.7682 48.9544 91.7682C50.2053 91.7682 51.2856 91.6687 52.1953 91.4697C53.105 91.2707 53.9579 91.0007 54.7539 90.6595C55.1519 87.9872 56.0901 86.0256 57.5684 84.7747C54.7823 84.4336 52.3375 83.9077 50.2337 83.1969C48.13 82.4862 46.0547 81.3775 44.0078 79.8708C41.9609 78.364 40.3831 76.2035 39.2744 73.389C38.1657 70.5745 37.6113 67.1773 37.6113 63.1973C37.6113 58.7055 39.1181 54.8108 42.1315 51.513C40.7669 47.9879 40.9091 44.1215 42.5579 39.9141C43.6382 39.5729 45.1876 39.7861 47.2061 40.5537C49.2245 41.3213 50.9444 42.1599 52.3659 43.0697L54.5833 44.4342C57.8811 43.4677 61.52 42.9844 65.5 42.9844C69.48 42.9844 73.1189 43.4677 76.4167 44.4342C77.0421 44.0362 77.8523 43.5245 78.8473 42.8991C79.8423 42.2737 81.4201 41.5345 83.5807 40.6816C85.7413 39.8288 87.3618 39.5729 88.4421 39.9141C90.0909 44.1215 90.2331 47.9879 88.8685 51.513C91.882 54.8108 93.3887 58.7055 93.3887 63.1973C93.3887 66.4382 92.9907 69.2952 92.1947 71.7686C91.3987 74.2419 90.3894 76.2319 89.167 77.7386C87.9446 79.2453 86.4236 80.5104 84.6042 81.5339C82.7847 82.5573 81.0079 83.2964 79.2738 83.7513C77.5396 84.2062 75.5922 84.5473 73.4316 84.7747C75.4217 86.5373 76.4167 89.2381 76.4167 92.877C76.4167 95.1513 76.4025 97.6814 76.374 100.467C76.3456 103.253 76.3314 104.703 76.3314 104.817C76.3314 105.499 76.573 106.068 77.0563 106.523C77.5396 106.978 78.293 107.12 79.3164 106.949C88.0725 103.993 95.2365 98.7191 100.809 91.1286C106.381 83.5381 109.167 74.9952 109.167 65.5ZM131 24.5625V106.438C131 113.204 128.598 118.989 123.793 123.793C118.989 128.598 113.204 131 106.438 131H24.5625C17.7964 131 12.0112 128.598 7.20671 123.793C2.40224 118.989 0 113.204 0 106.438V24.5625C0 17.7964 2.40224 12.0112 7.20671 7.20671C12.0112 2.40224 17.7964 0 24.5625 0H106.438C113.204 0 118.989 2.40224 123.793 7.20671C128.598 12.0112 131 17.7964 131 24.5625Z" fill="black"/>
</g>
<defs>
<clipPath id="clip0_36_142">
<rect width="131" height="131" fill="white"/>
</clipPath>
</defs>
</svg>
