<svg width="50" height="50" viewBox="0 0 50 50" fill="none" xmlns="http://www.w3.org/2000/svg">
<path d="M38.2812 0H11.7188C5.24666 0 0 5.24666 0 11.7188V38.2812C0 44.7533 5.24666 50 11.7188 50H38.2812C44.7533 50 50 44.7533 50 38.2812V11.7188C50 5.24666 44.7533 0 38.2812 0Z" fill="url(#paint0_radial_49_70)"/>
<path d="M38.2812 0H11.7188C5.24666 0 0 5.24666 0 11.7188V38.2812C0 44.7533 5.24666 50 11.7188 50H38.2812C44.7533 50 50 44.7533 50 38.2812V11.7188C50 5.24666 44.7533 0 38.2812 0Z" fill="url(#paint1_radial_49_70)"/>
<path d="M24.533 5C19.2287 5 18.5629 5.02324 16.4797 5.11797C14.4004 5.21328 12.9811 5.54238 11.7393 6.02539C10.4545 6.52422 9.36484 7.1916 8.2793 8.27754C7.19277 9.36328 6.52539 10.4529 6.025 11.7371C5.54063 12.9793 5.21113 14.3992 5.11758 16.4775C5.02441 18.5609 5 19.227 5 24.5314C5 29.8359 5.02344 30.4996 5.11797 32.5828C5.21367 34.6621 5.54277 36.0814 6.02539 37.3232C6.52461 38.608 7.19199 39.6977 8.27793 40.7832C9.36328 41.8697 10.4529 42.5387 11.7367 43.0375C12.9795 43.5205 14.399 43.8496 16.4779 43.9449C18.5613 44.0396 19.2266 44.0629 24.5307 44.0629C29.8355 44.0629 30.4992 44.0396 32.5824 43.9449C34.6617 43.8496 36.0826 43.5205 37.3254 43.0375C38.6096 42.5387 39.6977 41.8697 40.7828 40.7832C41.8693 39.6977 42.5365 38.608 43.0371 37.3238C43.5172 36.0814 43.8469 34.6617 43.9445 32.5832C44.0381 30.5 44.0625 29.8359 44.0625 24.5314C44.0625 19.227 44.0381 18.5613 43.9445 16.4779C43.8469 14.3986 43.5172 12.9795 43.0371 11.7377C42.5365 10.4529 41.8693 9.36328 40.7828 8.27754C39.6965 7.19121 38.61 6.52383 37.3242 6.02559C36.0791 5.54238 34.659 5.21309 32.5797 5.11797C30.4963 5.02324 29.833 5 24.527 5H24.533ZM22.7809 8.51973C23.301 8.51895 23.8813 8.51973 24.533 8.51973C29.748 8.51973 30.366 8.53848 32.4254 8.63203C34.3297 8.71914 35.3633 9.0373 36.0518 9.30469C36.9633 9.65859 37.6131 10.0818 38.2963 10.7656C38.9799 11.4492 39.4029 12.1002 39.7578 13.0117C40.0252 13.6992 40.3438 14.7328 40.4305 16.6371C40.524 18.6961 40.5443 19.3145 40.5443 24.527C40.5443 29.7395 40.524 30.358 40.4305 32.4168C40.3434 34.3211 40.0252 35.3547 39.7578 36.0424C39.4039 36.9539 38.9799 37.6029 38.2963 38.2861C37.6127 38.9697 36.9637 39.3928 36.0518 39.7469C35.3641 40.0154 34.3297 40.3328 32.4254 40.4199C30.3664 40.5135 29.748 40.5338 24.533 40.5338C19.3178 40.5338 18.6996 40.5135 16.6408 40.4199C14.7365 40.332 13.7029 40.0139 13.0139 39.7465C12.1025 39.3924 11.4514 38.9693 10.7678 38.2857C10.0842 37.6021 9.66113 36.9527 9.30625 36.0408C9.03887 35.3531 8.72031 34.3195 8.63359 32.4152C8.54004 30.3562 8.52129 29.7379 8.52129 24.5221C8.52129 19.3064 8.54004 18.6912 8.63359 16.6322C8.7207 14.7279 9.03887 13.6943 9.30625 13.0059C9.66035 12.0943 10.0842 11.4434 10.768 10.7598C11.4516 10.0762 12.1025 9.65293 13.0141 9.29824C13.7025 9.02969 14.7365 8.7123 16.6408 8.6248C18.4426 8.54336 19.1408 8.51894 22.7809 8.51484V8.51973ZM34.9588 11.7627C33.6648 11.7627 32.615 12.8115 32.615 14.1057C32.615 15.3996 33.6648 16.4494 34.9588 16.4494C36.2527 16.4494 37.3025 15.3996 37.3025 14.1057C37.3025 12.8117 36.2527 11.7619 34.9588 11.7619V11.7627ZM24.533 14.5012C18.9939 14.5012 14.5029 18.9922 14.5029 24.5314C14.5029 30.0707 18.9939 34.5596 24.533 34.5596C30.0723 34.5596 34.5617 30.0707 34.5617 24.5314C34.5617 18.9924 30.0719 14.5012 24.5326 14.5012H24.533ZM24.533 18.0209C28.1285 18.0209 31.0436 20.9355 31.0436 24.5314C31.0436 28.127 28.1285 31.042 24.533 31.042C20.9373 31.042 18.0227 28.127 18.0227 24.5314C18.0227 20.9355 20.9373 18.0209 24.533 18.0209Z" fill="white"/>
<defs>
<radialGradient id="paint0_radial_49_70" cx="0" cy="0" r="1" gradientUnits="userSpaceOnUse" gradientTransform="translate(13.2812 53.851) rotate(-90) scale(49.5537 46.0889)">
<stop stop-color="#FFDD55"/>
<stop offset="0.1" stop-color="#FFDD55"/>
<stop offset="0.5" stop-color="#FF543E"/>
<stop offset="1" stop-color="#C837AB"/>
</radialGradient>
<radialGradient id="paint1_radial_49_70" cx="0" cy="0" r="1" gradientUnits="userSpaceOnUse" gradientTransform="translate(-8.3752 3.60176) rotate(78.681) scale(22.1508 91.3062)">
<stop stop-color="#3771C8"/>
<stop offset="0.128" stop-color="#3771C8"/>
<stop offset="1" stop-color="#6600FF" stop-opacity="0"/>
</radialGradient>
</defs>
</svg>
