<svg width="51" height="50" viewBox="0 0 51 50" fill="none" xmlns="http://www.w3.org/2000/svg">
<path d="M39.2318 0H12.6693C6.19716 0 0.9505 5.24666 0.9505 11.7188V38.2812C0.9505 44.7533 6.19716 50 12.6693 50H39.2318C45.7038 50 50.9505 44.7533 50.9505 38.2812V11.7188C50.9505 5.24666 45.7038 0 39.2318 0Z" fill="white"/>
<path d="M39.2318 0H12.6693C6.19716 0 0.9505 5.24666 0.9505 11.7188V38.2812C0.9505 44.7533 6.19716 50 12.6693 50H39.2318C45.7038 50 50.9505 44.7533 50.9505 38.2812V11.7188C50.9505 5.24666 45.7038 0 39.2318 0Z" fill="#0A66C2"/>
<path d="M37.0276 42.5166H42.7444C42.9516 42.5166 43.1503 42.4343 43.2968 42.2878C43.4433 42.1414 43.5256 41.9427 43.5257 41.7355L43.5286 29.657C43.5286 23.3439 42.1683 18.4914 34.7907 18.4914C31.9862 18.3871 29.3415 19.8328 27.9144 22.2469C27.9074 22.2586 27.8968 22.2677 27.8841 22.2728C27.8715 22.278 27.8575 22.2788 27.8443 22.2752C27.8312 22.2717 27.8195 22.2639 27.8112 22.2531C27.8028 22.2423 27.7983 22.2291 27.7982 22.2154V19.8555C27.7982 19.6483 27.7158 19.4496 27.5693 19.303C27.4228 19.1565 27.2241 19.0742 27.0169 19.0742H21.5917C21.3845 19.0742 21.1858 19.1565 21.0393 19.303C20.8928 19.4496 20.8105 19.6483 20.8105 19.8555V41.7344C20.8105 41.9416 20.8928 42.1403 21.0393 42.2868C21.1858 42.4333 21.3845 42.5156 21.5917 42.5156H27.3081C27.5153 42.5156 27.714 42.4333 27.8605 42.2868C28.0071 42.1403 28.0894 41.9416 28.0894 41.7344V30.9193C28.0894 27.8613 28.6694 24.8998 32.4607 24.8998C36.198 24.8998 36.2464 28.399 36.2464 31.1174V41.7354C36.2464 41.9426 36.3287 42.1413 36.4752 42.2878C36.6217 42.4343 36.8204 42.5166 37.0276 42.5166ZM8.37238 11.6459C8.37238 13.9633 10.28 15.8699 12.5974 15.8699C14.9142 15.8697 16.8206 13.9619 16.8206 11.6451C16.8202 9.32832 14.9136 7.42188 12.5966 7.42188C10.279 7.42188 8.37238 9.32871 8.37238 11.6459ZM9.73155 42.5166H15.4556C15.6628 42.5166 15.8615 42.4343 16.008 42.2878C16.1545 42.1413 16.2368 41.9426 16.2368 41.7354V19.8555C16.2368 19.6483 16.1545 19.4496 16.008 19.303C15.8615 19.1565 15.6628 19.0742 15.4556 19.0742H9.73155C9.52435 19.0742 9.32564 19.1565 9.17913 19.303C9.03262 19.4496 8.95031 19.6483 8.95031 19.8555V41.7354C8.95031 41.9426 9.03262 42.1413 9.17913 42.2878C9.32564 42.4343 9.52435 42.5166 9.73155 42.5166Z" fill="white"/>
</svg>
