<svg width="295" height="408" viewBox="0 0 295 408" fill="none" xmlns="http://www.w3.org/2000/svg">
  <path fill-rule="evenodd" clip-rule="evenodd"
    d="M127.983 0.939002C93.4763 6.287 67.8123 19.154 43.3863 43.354C22.0233 64.52 8.99525 88.386 2.99125 117.353C0.204247 130.797 -0.427735 139.051 0.985265 143.514C1.96427 146.603 15.4073 160.592 69.8423 215.164C111.871 257.299 138.76 283.52 140.855 284.414C150.353 288.467 161.01 282.913 163.53 272.596C165.421 264.853 167.293 267.007 98.0122 197.229L33.1972 131.949L34.4942 125.151C40.9442 91.335 64.9322 60.073 96.3952 44.481C105.714 39.863 117.88 35.891 129.126 33.795C137.287 32.275 158.592 32.293 166.983 33.828C177.683 35.786 193.979 41.519 202.218 46.224C237.746 66.513 258.794 99.221 262.126 139.318C263.327 153.759 264.283 156.455 269.657 160.551C272.708 162.877 274.302 163.347 279.029 163.32C283.681 163.293 285.39 162.78 288.355 160.518C293.81 156.357 294.986 153.27 294.966 143.153C294.929 124.559 288.726 99.172 279.992 81.87C265.986 54.126 240.935 28.926 213.749 15.235C201.006 8.818 183.108 3.30801 167.291 0.933005C158.991 -0.313995 136.043 -0.309998 127.983 0.939002ZM140.379 123.282C134.479 125.851 130.464 133.786 131.489 140.853C132.123 145.23 133.917 147.133 197.022 210.353L261.902 275.353L260.033 283.853C256.157 301.469 250.053 314.776 239.123 329.435C217.537 358.386 184.124 375.023 147.483 375.062C140.333 375.07 131.558 374.539 127.983 373.882C75.7913 364.295 37.3932 321.921 32.8702 268.922C31.6222 254.296 30.5442 251.145 25.4602 247.268C22.3842 244.921 20.7202 244.413 16.0292 244.386C11.3022 244.359 9.70826 244.829 6.65726 247.155C1.15426 251.348 -0.0197506 254.417 0.000249442 264.553C0.0382494 283.655 5.99226 308.043 14.9503 325.789C31.8123 359.192 62.6003 386.849 96.2783 398.846C114.086 405.19 129.209 407.861 147.175 407.835C187.149 407.777 222.493 393.251 250.543 365.353C263.537 352.429 272.024 340.964 279.42 326.341C289.88 305.664 297.209 274.382 293.981 264.192C293.003 261.104 279.539 247.086 225.124 192.501C185.989 153.245 156.127 124.06 154.265 123.251C150.244 121.504 144.435 121.517 140.379 123.282Z"
    fill="#fff" />
</svg>