<svg width="131" height="181" viewBox="0 0 131 181" fill="none" xmlns="http://www.w3.org/2000/svg">
<g clip-path="url(#clip0_277_368)">
<path d="M100.297 0H30.7031C13.7463 0 0 13.7463 0 30.7031V100.297C0 117.254 13.7463 131 30.7031 131H100.297C117.254 131 131 117.254 131 100.297V30.7031C131 13.7463 117.254 0 100.297 0Z" fill="#242938"/>
<path d="M65.5 17.3984L114.113 101.757H16.8867L65.5 17.3984Z" fill="white"/>
</g>
<path d="M45.4 158.176C45.624 158.176 45.8 158.24 45.928 158.368C46.072 158.496 46.144 158.656 46.144 158.848C46.144 158.96 46.12 159.08 46.072 159.208L39.664 174.52C39.584 174.68 39.48 174.8 39.352 174.88C39.224 174.96 39.096 175 38.968 175C38.824 175 38.688 174.96 38.56 174.88C38.432 174.8 38.344 174.688 38.296 174.544L31.912 159.256C31.896 159.208 31.88 159.152 31.864 159.088C31.848 159.024 31.84 158.952 31.84 158.872C31.84 158.664 31.912 158.496 32.056 158.368C32.216 158.24 32.376 158.176 32.536 158.176C32.872 158.176 33.112 158.352 33.256 158.704L39.256 173.056H38.824L44.728 158.656C44.888 158.336 45.112 158.176 45.4 158.176ZM53.8384 175.24C52.6064 175.24 51.5184 174.976 50.5744 174.448C49.6304 173.92 48.8944 173.184 48.3664 172.24C47.8384 171.296 47.5744 170.192 47.5744 168.928C47.5744 167.568 47.8384 166.408 48.3664 165.448C48.9104 164.488 49.6064 163.752 50.4544 163.24C51.3184 162.712 52.2304 162.448 53.1904 162.448C53.8944 162.448 54.5744 162.576 55.2304 162.832C55.9024 163.072 56.4944 163.44 57.0064 163.936C57.5344 164.416 57.9504 165.008 58.2544 165.712C58.5744 166.416 58.7504 167.232 58.7824 168.16C58.7664 168.352 58.6864 168.52 58.5424 168.664C58.3984 168.792 58.2304 168.856 58.0384 168.856H48.4144L48.1264 167.56H57.5824L57.2704 167.848V167.368C57.2064 166.616 56.9664 165.976 56.5504 165.448C56.1344 164.92 55.6304 164.52 55.0384 164.248C54.4464 163.976 53.8304 163.84 53.1904 163.84C52.7104 163.84 52.2144 163.936 51.7024 164.128C51.2064 164.32 50.7504 164.624 50.3344 165.04C49.9344 165.44 49.6064 165.96 49.3504 166.6C49.0944 167.224 48.9664 167.968 48.9664 168.832C48.9664 169.776 49.1584 170.632 49.5424 171.4C49.9264 172.168 50.4784 172.776 51.1984 173.224C51.9344 173.672 52.8064 173.896 53.8144 173.896C54.3744 173.896 54.8784 173.816 55.3264 173.656C55.7744 173.496 56.1664 173.288 56.5024 173.032C56.8384 172.76 57.1184 172.48 57.3424 172.192C57.5184 172.048 57.6944 171.976 57.8704 171.976C58.0304 171.976 58.1664 172.04 58.2784 172.168C58.4064 172.296 58.4704 172.44 58.4704 172.6C58.4704 172.792 58.3904 172.96 58.2304 173.104C57.7504 173.68 57.1264 174.184 56.3584 174.616C55.5904 175.032 54.7504 175.24 53.8384 175.24ZM62.5848 175C62.3608 175 62.1848 174.928 62.0568 174.784C61.9288 174.64 61.8648 174.472 61.8648 174.28V163.528C61.8648 163.336 61.9288 163.168 62.0568 163.024C62.2008 162.88 62.3768 162.808 62.5848 162.808C62.7928 162.808 62.9608 162.88 63.0888 163.024C63.2328 163.168 63.3048 163.336 63.3048 163.528V167.128L62.9448 167.2C62.9928 166.64 63.1288 166.088 63.3528 165.544C63.5928 164.984 63.9128 164.472 64.3128 164.008C64.7128 163.544 65.1848 163.168 65.7288 162.88C66.2888 162.592 66.9128 162.448 67.6008 162.448C67.8888 162.448 68.1688 162.512 68.4408 162.64C68.7128 162.752 68.8488 162.944 68.8488 163.216C68.8488 163.456 68.7848 163.64 68.6568 163.768C68.5288 163.896 68.3768 163.96 68.2008 163.96C68.0568 163.96 67.8968 163.92 67.7208 163.84C67.5608 163.76 67.3448 163.72 67.0728 163.72C66.6248 163.72 66.1768 163.856 65.7288 164.128C65.2808 164.384 64.8728 164.736 64.5048 165.184C64.1368 165.632 63.8408 166.136 63.6168 166.696C63.4088 167.24 63.3048 167.792 63.3048 168.352V174.28C63.3048 174.472 63.2328 174.64 63.0888 174.784C62.9448 174.928 62.7768 175 62.5848 175ZM75.9601 162.448C76.7281 162.448 77.4321 162.536 78.0721 162.712C78.7121 162.872 79.2241 163.096 79.6081 163.384C80.0081 163.672 80.2081 163.984 80.2081 164.32C80.2081 164.48 80.1521 164.64 80.0401 164.8C79.9281 164.944 79.7761 165.016 79.5841 165.016C79.3921 165.016 79.2321 164.968 79.1041 164.872C78.9921 164.776 78.8721 164.664 78.7441 164.536C78.6321 164.408 78.4641 164.288 78.2401 164.176C78.0321 164.08 77.7361 163.992 77.3521 163.912C76.9681 163.832 76.5281 163.792 76.0321 163.792C75.1361 163.792 74.3281 164.016 73.6081 164.464C72.8881 164.912 72.3201 165.52 71.9041 166.288C71.4881 167.04 71.2801 167.888 71.2801 168.832C71.2801 169.792 71.4801 170.656 71.8801 171.424C72.2801 172.192 72.8321 172.8 73.5361 173.248C74.2401 173.68 75.0641 173.896 76.0081 173.896C76.6481 173.896 77.1441 173.84 77.4961 173.728C77.8481 173.616 78.1521 173.488 78.4081 173.344C78.7121 173.168 78.9281 173 79.0561 172.84C79.2001 172.664 79.3841 172.576 79.6081 172.576C79.8161 172.576 79.9681 172.64 80.0641 172.768C80.1761 172.88 80.2321 173.032 80.2321 173.224C80.2321 173.48 80.0401 173.768 79.6561 174.088C79.2881 174.392 78.7761 174.664 78.1201 174.904C77.4641 175.128 76.7121 175.24 75.8641 175.24C74.6641 175.24 73.6081 174.96 72.6961 174.4C71.8001 173.84 71.0961 173.08 70.5841 172.12C70.0881 171.144 69.8401 170.048 69.8401 168.832C69.8401 167.664 70.0961 166.6 70.6081 165.64C71.1201 164.68 71.8321 163.912 72.7441 163.336C73.6721 162.744 74.7441 162.448 75.9601 162.448ZM88.5259 175.24C87.2939 175.24 86.2059 174.976 85.2619 174.448C84.3179 173.92 83.5819 173.184 83.0539 172.24C82.5259 171.296 82.2619 170.192 82.2619 168.928C82.2619 167.568 82.5259 166.408 83.0539 165.448C83.5979 164.488 84.2939 163.752 85.1419 163.24C86.0059 162.712 86.9179 162.448 87.8779 162.448C88.5819 162.448 89.2619 162.576 89.9179 162.832C90.5899 163.072 91.1819 163.44 91.6939 163.936C92.2219 164.416 92.6379 165.008 92.9419 165.712C93.2619 166.416 93.4379 167.232 93.4699 168.16C93.4539 168.352 93.3739 168.52 93.2299 168.664C93.0859 168.792 92.9179 168.856 92.7259 168.856H83.1019L82.8139 167.56H92.2699L91.9579 167.848V167.368C91.8939 166.616 91.6539 165.976 91.2379 165.448C90.8219 164.92 90.3179 164.52 89.7259 164.248C89.1339 163.976 88.5179 163.84 87.8779 163.84C87.3979 163.84 86.9019 163.936 86.3899 164.128C85.8939 164.32 85.4379 164.624 85.0219 165.04C84.6219 165.44 84.2939 165.96 84.0379 166.6C83.7819 167.224 83.6539 167.968 83.6539 168.832C83.6539 169.776 83.8459 170.632 84.2299 171.4C84.6139 172.168 85.1659 172.776 85.8859 173.224C86.6219 173.672 87.4939 173.896 88.5019 173.896C89.0619 173.896 89.5659 173.816 90.0139 173.656C90.4619 173.496 90.8539 173.288 91.1899 173.032C91.5259 172.76 91.8059 172.48 92.0299 172.192C92.2059 172.048 92.3819 171.976 92.5579 171.976C92.7179 171.976 92.8539 172.04 92.9659 172.168C93.0939 172.296 93.1579 172.44 93.1579 172.6C93.1579 172.792 93.0779 172.96 92.9179 173.104C92.4379 173.68 91.8139 174.184 91.0459 174.616C90.2779 175.032 89.4379 175.24 88.5259 175.24ZM98.1363 174.28C98.1363 174.472 98.0643 174.64 97.9203 174.784C97.7763 174.928 97.6083 175 97.4163 175C97.2083 175 97.0323 174.928 96.8883 174.784C96.7603 174.64 96.6963 174.472 96.6963 174.28V157.96C96.6963 157.768 96.7683 157.6 96.9123 157.456C97.0563 157.312 97.2243 157.24 97.4163 157.24C97.6243 157.24 97.7923 157.312 97.9203 157.456C98.0643 157.6 98.1363 157.768 98.1363 157.96V174.28Z" fill="black"/>
<defs>
<clipPath id="clip0_277_368">
<rect width="131" height="131" fill="white"/>
</clipPath>
</defs>
</svg>
