<svg width="342" height="388" viewBox="0 0 342 388" fill="none" xmlns="http://www.w3.org/2000/svg">
<g filter="url(#filter0_d_404_430)">
<rect x="27.0748" y="45.9167" width="287" height="306" rx="20" fill="white"/>
</g>
<path d="M62.9841 254.8L68.8561 254.8C68.9841 254.8 69.0961 254.848 69.1921 254.944C69.2881 255.029 69.3361 255.141 69.3361 255.28C69.3361 255.419 69.2881 255.531 69.1921 255.616C69.0961 255.701 68.9841 255.744 68.8561 255.744L63.3521 255.744L63.5121 255.472L63.5121 259.968L63.3361 259.76L68.1361 259.76C68.2641 259.76 68.3761 259.808 68.4721 259.904C68.5681 260 68.6161 260.112 68.6161 260.24C68.6161 260.379 68.5681 260.491 68.4721 260.576C68.3761 260.661 68.2641 260.704 68.1361 260.704L63.3681 260.704L63.5121 260.544L63.5121 265.152L63.4321 265.056L68.8561 265.056C68.9841 265.056 69.0961 265.104 69.1921 265.2C69.2881 265.296 69.3361 265.408 69.3361 265.536C69.3361 265.675 69.2881 265.787 69.1921 265.872C69.0961 265.957 68.9841 266 68.8561 266L62.9841 266C62.8561 266 62.7441 265.952 62.6481 265.856C62.5521 265.76 62.5041 265.648 62.5041 265.52L62.5041 255.28C62.5041 255.152 62.5521 255.04 62.6481 254.944C62.7441 254.848 62.8561 254.8 62.9841 254.8ZM77.6637 254.16C77.8024 254.16 77.9144 254.208 77.9997 254.304C78.0957 254.389 78.1437 254.501 78.1437 254.64L78.1437 265.52C78.1437 265.648 78.0957 265.76 77.9997 265.856C77.9037 265.952 77.7917 266 77.6637 266C77.5251 266 77.4077 265.952 77.3117 265.856C77.2264 265.76 77.1837 265.648 77.1837 265.52L77.1837 263.616L77.4557 263.392C77.4557 263.691 77.3757 264.005 77.2157 264.336C77.0557 264.656 76.8264 264.955 76.5277 265.232C76.2397 265.509 75.8984 265.733 75.5037 265.904C75.1197 266.075 74.7037 266.16 74.2557 266.16C73.5411 266.16 72.8957 265.973 72.3197 265.6C71.7544 265.227 71.3064 264.72 70.9757 264.08C70.6451 263.44 70.4797 262.709 70.4797 261.888C70.4797 261.077 70.6451 260.352 70.9757 259.712C71.3064 259.061 71.7544 258.555 72.3197 258.192C72.8851 257.819 73.5251 257.632 74.2397 257.632C74.6771 257.632 75.0931 257.712 75.4877 257.872C75.8824 258.032 76.2291 258.251 76.5277 258.528C76.8371 258.805 77.0771 259.125 77.2477 259.488C77.4291 259.84 77.5197 260.208 77.5197 260.592L77.1837 260.352L77.1837 254.64C77.1837 254.512 77.2264 254.4 77.3117 254.304C77.4077 254.208 77.5251 254.16 77.6637 254.16ZM74.3357 265.264C74.9117 265.264 75.4131 265.12 75.8397 264.832C76.2771 264.533 76.6184 264.133 76.8637 263.632C77.1197 263.12 77.2477 262.539 77.2477 261.888C77.2477 261.248 77.1197 260.677 76.8637 260.176C76.6184 259.664 76.2771 259.264 75.8397 258.976C75.4024 258.677 74.9011 258.528 74.3357 258.528C73.7811 258.528 73.2797 258.677 72.8317 258.976C72.3944 259.264 72.0477 259.664 71.7917 260.176C71.5464 260.677 71.4237 261.248 71.4237 261.888C71.4237 262.528 71.5464 263.104 71.7917 263.616C72.0477 264.128 72.3944 264.533 72.8317 264.832C73.2797 265.12 73.7811 265.264 74.3357 265.264ZM81.2709 265.52C81.2709 265.648 81.2229 265.76 81.1269 265.856C81.0309 265.952 80.9189 266 80.7909 266C80.6522 266 80.5349 265.952 80.4389 265.856C80.3535 265.76 80.3109 265.648 80.3109 265.52L80.3109 258.16C80.3109 258.032 80.3535 257.92 80.4389 257.824C80.5349 257.728 80.6522 257.68 80.7909 257.68C80.9295 257.68 81.0415 257.728 81.1269 257.824C81.2229 257.92 81.2709 258.032 81.2709 258.16L81.2709 265.52ZM80.7909 256.608C80.5669 256.608 80.3962 256.56 80.2789 256.464C80.1722 256.357 80.1189 256.208 80.1189 256.016L80.1189 255.856C80.1189 255.664 80.1775 255.52 80.2949 255.424C80.4229 255.317 80.5935 255.264 80.8069 255.264C81.0095 255.264 81.1642 255.317 81.2709 255.424C81.3882 255.52 81.4469 255.664 81.4469 255.856L81.4469 256.016C81.4469 256.208 81.3882 256.357 81.2709 256.464C81.1642 256.56 81.0042 256.608 80.7909 256.608ZM87.0447 257.632C87.5567 257.632 88.0261 257.691 88.4527 257.808C88.8794 257.915 89.2207 258.064 89.4767 258.256C89.7434 258.448 89.8767 258.656 89.8767 258.88C89.8767 258.987 89.8394 259.093 89.7647 259.2C89.6901 259.296 89.5887 259.344 89.4607 259.344C89.3327 259.344 89.2261 259.312 89.1407 259.248C89.0661 259.184 88.9861 259.109 88.9007 259.024C88.8261 258.939 88.7141 258.859 88.5647 258.784C88.4261 258.72 88.2287 258.661 87.9727 258.608C87.7167 258.555 87.4234 258.528 87.0927 258.528C86.4954 258.528 85.9567 258.677 85.4767 258.976C84.9967 259.275 84.6181 259.68 84.3407 260.192C84.0634 260.693 83.9247 261.259 83.9247 261.888C83.9247 262.528 84.0581 263.104 84.3247 263.616C84.5914 264.128 84.9594 264.533 85.4287 264.832C85.8981 265.12 86.4474 265.264 87.0767 265.264C87.5034 265.264 87.8341 265.227 88.0687 265.152C88.3034 265.077 88.5061 264.992 88.6767 264.896C88.8794 264.779 89.0234 264.667 89.1087 264.56C89.2047 264.443 89.3274 264.384 89.4767 264.384C89.6154 264.384 89.7167 264.427 89.7807 264.512C89.8554 264.587 89.8927 264.688 89.8927 264.816C89.8927 264.987 89.7647 265.179 89.5087 265.392C89.2634 265.595 88.9221 265.776 88.4847 265.936C88.0474 266.085 87.5461 266.16 86.9807 266.16C86.1807 266.16 85.4767 265.973 84.8687 265.6C84.2714 265.227 83.8021 264.72 83.4607 264.08C83.1301 263.429 82.9647 262.699 82.9647 261.888C82.9647 261.109 83.1354 260.4 83.4767 259.76C83.8181 259.12 84.2927 258.608 84.9007 258.224C85.5194 257.829 86.2341 257.632 87.0447 257.632ZM86.0047 268.288C85.9301 268.288 85.8394 268.267 85.7327 268.224C85.6261 268.181 85.5301 268.123 85.4447 268.048C85.3594 267.973 85.3167 267.888 85.3167 267.792C85.3167 267.675 85.3541 267.579 85.4287 267.504L86.8207 265.76L87.4447 265.76L86.4207 267.984C86.3247 268.187 86.1861 268.288 86.0047 268.288ZM99.022 261.904C99.022 262.715 98.846 263.445 98.494 264.096C98.142 264.736 97.662 265.243 97.054 265.616C96.446 265.979 95.7527 266.16 94.974 266.16C94.2167 266.16 93.5287 265.979 92.91 265.616C92.302 265.243 91.8167 264.736 91.454 264.096C91.102 263.445 90.926 262.715 90.926 261.904C90.926 261.083 91.102 260.352 91.454 259.712C91.8167 259.072 92.302 258.565 92.91 258.192C93.5287 257.819 94.2167 257.632 94.974 257.632C95.7527 257.632 96.446 257.819 97.054 258.192C97.662 258.565 98.142 259.072 98.494 259.712C98.846 260.352 99.022 261.083 99.022 261.904ZM98.062 261.904C98.062 261.253 97.9287 260.677 97.662 260.176C97.3953 259.664 97.0273 259.264 96.558 258.976C96.0993 258.677 95.5713 258.528 94.974 258.528C94.398 258.528 93.8753 258.677 93.406 258.976C92.9367 259.264 92.5633 259.664 92.286 260.176C92.0193 260.677 91.886 261.253 91.886 261.904C91.886 262.555 92.0193 263.131 92.286 263.632C92.5633 264.133 92.9367 264.533 93.406 264.832C93.8753 265.12 94.398 265.264 94.974 265.264C95.5713 265.264 96.0993 265.12 96.558 264.832C97.0273 264.533 97.3953 264.133 97.662 263.632C97.9287 263.131 98.062 262.555 98.062 261.904ZM92.91 256.576C92.7393 256.576 92.6273 256.517 92.574 256.4C92.5313 256.283 92.526 256.112 92.558 255.888C92.622 255.536 92.7873 255.269 93.054 255.088C93.3207 254.896 93.6353 254.8 93.998 254.8C94.19 254.8 94.382 254.848 94.574 254.944C94.7767 255.04 94.974 255.147 95.166 255.264C95.358 255.381 95.534 255.488 95.694 255.584C95.8647 255.68 96.0193 255.728 96.158 255.728C96.3073 255.728 96.4247 255.675 96.51 255.568C96.606 255.461 96.6593 255.312 96.67 255.12C96.6593 255.003 96.6913 254.907 96.766 254.832C96.8407 254.757 96.9313 254.72 97.038 254.72C97.2193 254.72 97.3367 254.784 97.39 254.912C97.4433 255.029 97.4593 255.189 97.438 255.392C97.3953 255.627 97.31 255.829 97.182 256C97.0647 256.171 96.91 256.304 96.718 256.4C96.526 256.485 96.302 256.528 96.046 256.528C95.886 256.528 95.7047 256.485 95.502 256.4C95.31 256.304 95.118 256.197 94.926 256.08C94.734 255.963 94.5473 255.861 94.366 255.776C94.1953 255.68 94.0353 255.632 93.886 255.632C93.7473 255.632 93.6247 255.68 93.518 255.776C93.4113 255.861 93.3313 256.011 93.278 256.224C93.2887 256.331 93.2513 256.416 93.166 256.48C93.0913 256.544 93.006 256.576 92.91 256.576ZM104.438 266.16C103.617 266.16 102.892 265.984 102.262 265.632C101.633 265.28 101.142 264.789 100.79 264.16C100.438 263.531 100.262 262.795 100.262 261.952C100.262 261.045 100.438 260.272 100.79 259.632C101.153 258.992 101.617 258.501 102.182 258.16C102.758 257.808 103.366 257.632 104.006 257.632C104.476 257.632 104.929 257.717 105.366 257.888C105.814 258.048 106.209 258.293 106.55 258.624C106.902 258.944 107.18 259.339 107.382 259.808C107.596 260.277 107.713 260.821 107.734 261.44C107.724 261.568 107.67 261.68 107.574 261.776C107.478 261.861 107.366 261.904 107.238 261.904L100.822 261.904L100.63 261.04L106.934 261.04L106.726 261.232L106.726 260.912C106.684 260.411 106.524 259.984 106.246 259.632C105.969 259.28 105.633 259.013 105.238 258.832C104.844 258.651 104.433 258.56 104.006 258.56C103.686 258.56 103.356 258.624 103.014 258.752C102.684 258.88 102.38 259.083 102.102 259.36C101.836 259.627 101.617 259.973 101.446 260.4C101.276 260.816 101.19 261.312 101.19 261.888C101.19 262.517 101.318 263.088 101.574 263.6C101.83 264.112 102.198 264.517 102.678 264.816C103.169 265.115 103.75 265.264 104.422 265.264C104.796 265.264 105.132 265.211 105.43 265.104C105.729 264.997 105.99 264.859 106.214 264.688C106.438 264.507 106.625 264.32 106.774 264.128C106.892 264.032 107.009 263.984 107.126 263.984C107.233 263.984 107.324 264.027 107.398 264.112C107.484 264.197 107.526 264.293 107.526 264.4C107.526 264.528 107.473 264.64 107.366 264.736C107.046 265.12 106.63 265.456 106.118 265.744C105.606 266.021 105.046 266.16 104.438 266.16ZM109.005 264.704C108.92 264.576 108.877 264.453 108.877 264.336C108.888 264.208 108.957 264.107 109.085 264.032C109.17 263.957 109.266 263.925 109.373 263.936C109.49 263.947 109.597 264 109.693 264.096C109.981 264.469 110.328 264.773 110.733 265.008C111.149 265.232 111.64 265.344 112.205 265.344C112.504 265.344 112.797 265.296 113.085 265.2C113.384 265.093 113.629 264.939 113.821 264.736C114.013 264.523 114.109 264.256 114.109 263.936C114.109 263.605 114.013 263.339 113.821 263.136C113.629 262.933 113.378 262.773 113.069 262.656C112.77 262.539 112.45 262.437 112.109 262.352C111.746 262.256 111.394 262.149 111.053 262.032C110.712 261.904 110.408 261.749 110.141 261.568C109.885 261.376 109.677 261.147 109.517 260.88C109.357 260.613 109.277 260.288 109.277 259.904C109.277 259.456 109.4 259.061 109.645 258.72C109.89 258.379 110.221 258.112 110.637 257.92C111.064 257.728 111.544 257.632 112.077 257.632C112.344 257.632 112.632 257.669 112.941 257.744C113.25 257.808 113.554 257.92 113.853 258.08C114.152 258.24 114.418 258.459 114.653 258.736C114.749 258.832 114.797 258.944 114.797 259.072C114.797 259.189 114.744 259.296 114.637 259.392C114.552 259.456 114.45 259.488 114.333 259.488C114.226 259.488 114.136 259.445 114.061 259.36C113.805 259.072 113.501 258.853 113.149 258.704C112.797 258.555 112.418 258.48 112.013 258.48C111.704 258.48 111.41 258.533 111.133 258.64C110.866 258.736 110.642 258.885 110.461 259.088C110.28 259.291 110.189 259.557 110.189 259.888C110.21 260.197 110.317 260.448 110.509 260.64C110.712 260.832 110.973 260.992 111.293 261.12C111.624 261.248 111.992 261.365 112.397 261.472C112.738 261.557 113.064 261.659 113.373 261.776C113.693 261.893 113.97 262.043 114.205 262.224C114.45 262.395 114.642 262.613 114.781 262.88C114.93 263.147 115.005 263.483 115.005 263.888C115.005 264.357 114.872 264.763 114.605 265.104C114.349 265.445 114.002 265.707 113.565 265.888C113.128 266.069 112.642 266.16 112.109 266.16C111.533 266.16 110.973 266.048 110.429 265.824C109.896 265.6 109.421 265.227 109.005 264.704ZM127.408 254.16C127.547 254.16 127.659 254.208 127.744 254.304C127.84 254.389 127.888 254.501 127.888 254.64L127.888 265.52C127.888 265.648 127.84 265.76 127.744 265.856C127.648 265.952 127.536 266 127.408 266C127.269 266 127.152 265.952 127.056 265.856C126.971 265.76 126.928 265.648 126.928 265.52L126.928 263.616L127.2 263.392C127.2 263.691 127.12 264.005 126.96 264.336C126.8 264.656 126.571 264.955 126.272 265.232C125.984 265.509 125.643 265.733 125.248 265.904C124.864 266.075 124.448 266.16 124 266.16C123.285 266.16 122.64 265.973 122.064 265.6C121.499 265.227 121.051 264.72 120.72 264.08C120.389 263.44 120.224 262.709 120.224 261.888C120.224 261.077 120.389 260.352 120.72 259.712C121.051 259.061 121.499 258.555 122.064 258.192C122.629 257.819 123.269 257.632 123.984 257.632C124.421 257.632 124.837 257.712 125.232 257.872C125.627 258.032 125.973 258.251 126.272 258.528C126.581 258.805 126.821 259.125 126.992 259.488C127.173 259.84 127.264 260.208 127.264 260.592L126.928 260.352L126.928 254.64C126.928 254.512 126.971 254.4 127.056 254.304C127.152 254.208 127.269 254.16 127.408 254.16ZM124.08 265.264C124.656 265.264 125.157 265.12 125.584 264.832C126.021 264.533 126.363 264.133 126.608 263.632C126.864 263.12 126.992 262.539 126.992 261.888C126.992 261.248 126.864 260.677 126.608 260.176C126.363 259.664 126.021 259.264 125.584 258.976C125.147 258.677 124.645 258.528 124.08 258.528C123.525 258.528 123.024 258.677 122.576 258.976C122.139 259.264 121.792 259.664 121.536 260.176C121.291 260.677 121.168 261.248 121.168 261.888C121.168 262.528 121.291 263.104 121.536 263.616C121.792 264.128 122.139 264.533 122.576 264.832C123.024 265.12 123.525 265.264 124.08 265.264ZM137.703 261.904C137.703 262.715 137.527 263.445 137.175 264.096C136.823 264.736 136.343 265.243 135.735 265.616C135.127 265.979 134.434 266.16 133.655 266.16C132.898 266.16 132.21 265.979 131.591 265.616C130.983 265.243 130.498 264.736 130.135 264.096C129.783 263.445 129.607 262.715 129.607 261.904C129.607 261.083 129.783 260.352 130.135 259.712C130.498 259.072 130.983 258.565 131.591 258.192C132.21 257.819 132.898 257.632 133.655 257.632C134.434 257.632 135.127 257.819 135.735 258.192C136.343 258.565 136.823 259.072 137.175 259.712C137.527 260.352 137.703 261.083 137.703 261.904ZM136.743 261.904C136.743 261.253 136.61 260.677 136.343 260.176C136.077 259.664 135.709 259.264 135.239 258.976C134.781 258.677 134.253 258.528 133.655 258.528C133.079 258.528 132.557 258.677 132.087 258.976C131.618 259.264 131.245 259.664 130.967 260.176C130.701 260.677 130.567 261.253 130.567 261.904C130.567 262.555 130.701 263.131 130.967 263.632C131.245 264.133 131.618 264.533 132.087 264.832C132.557 265.12 133.079 265.264 133.655 265.264C134.253 265.264 134.781 265.12 135.239 264.832C135.709 264.533 136.077 264.133 136.343 263.632C136.61 263.131 136.743 262.555 136.743 261.904ZM138.96 264.704C138.874 264.576 138.832 264.453 138.832 264.336C138.842 264.208 138.912 264.107 139.04 264.032C139.125 263.957 139.221 263.925 139.328 263.936C139.445 263.947 139.552 264 139.648 264.096C139.936 264.469 140.282 264.773 140.688 265.008C141.104 265.232 141.594 265.344 142.16 265.344C142.458 265.344 142.752 265.296 143.04 265.2C143.338 265.093 143.584 264.939 143.776 264.736C143.968 264.523 144.064 264.256 144.064 263.936C144.064 263.605 143.968 263.339 143.776 263.136C143.584 262.933 143.333 262.773 143.024 262.656C142.725 262.539 142.405 262.437 142.064 262.352C141.701 262.256 141.349 262.149 141.008 262.032C140.666 261.904 140.362 261.749 140.096 261.568C139.84 261.376 139.632 261.147 139.472 260.88C139.312 260.613 139.232 260.288 139.232 259.904C139.232 259.456 139.354 259.061 139.6 258.72C139.845 258.379 140.176 258.112 140.592 257.92C141.018 257.728 141.498 257.632 142.032 257.632C142.298 257.632 142.586 257.669 142.896 257.744C143.205 257.808 143.509 257.92 143.808 258.08C144.106 258.24 144.373 258.459 144.608 258.736C144.704 258.832 144.752 258.944 144.752 259.072C144.752 259.189 144.698 259.296 144.592 259.392C144.506 259.456 144.405 259.488 144.288 259.488C144.181 259.488 144.09 259.445 144.016 259.36C143.76 259.072 143.456 258.853 143.104 258.704C142.752 258.555 142.373 258.48 141.968 258.48C141.658 258.48 141.365 258.533 141.088 258.64C140.821 258.736 140.597 258.885 140.416 259.088C140.234 259.291 140.144 259.557 140.144 259.888C140.165 260.197 140.272 260.448 140.464 260.64C140.666 260.832 140.928 260.992 141.248 261.12C141.578 261.248 141.946 261.365 142.352 261.472C142.693 261.557 143.018 261.659 143.328 261.776C143.648 261.893 143.925 262.043 144.16 262.224C144.405 262.395 144.597 262.613 144.736 262.88C144.885 263.147 144.96 263.483 144.96 263.888C144.96 264.357 144.826 264.763 144.56 265.104C144.304 265.445 143.957 265.707 143.52 265.888C143.082 266.069 142.597 266.16 142.064 266.16C141.488 266.16 140.928 266.048 140.384 265.824C139.85 265.6 139.376 265.227 138.96 264.704ZM154.259 257.632C154.771 257.632 155.24 257.691 155.667 257.808C156.093 257.915 156.435 258.064 156.691 258.256C156.957 258.448 157.091 258.656 157.091 258.88C157.091 258.987 157.053 259.093 156.979 259.2C156.904 259.296 156.803 259.344 156.675 259.344C156.547 259.344 156.44 259.312 156.355 259.248C156.28 259.184 156.2 259.109 156.115 259.024C156.04 258.939 155.928 258.859 155.779 258.784C155.64 258.72 155.443 258.661 155.187 258.608C154.931 258.555 154.637 258.528 154.307 258.528C153.709 258.528 153.171 258.677 152.691 258.976C152.211 259.275 151.832 259.68 151.555 260.192C151.277 260.693 151.139 261.259 151.139 261.888C151.139 262.528 151.272 263.104 151.539 263.616C151.805 264.128 152.173 264.533 152.643 264.832C153.112 265.12 153.661 265.264 154.291 265.264C154.717 265.264 155.048 265.227 155.283 265.152C155.517 265.077 155.72 264.992 155.891 264.896C156.093 264.779 156.237 264.667 156.323 264.56C156.419 264.443 156.541 264.384 156.691 264.384C156.829 264.384 156.931 264.427 156.995 264.512C157.069 264.587 157.107 264.688 157.107 264.816C157.107 264.987 156.979 265.179 156.723 265.392C156.477 265.595 156.136 265.776 155.699 265.936C155.261 266.085 154.76 266.16 154.195 266.16C153.395 266.16 152.691 265.973 152.083 265.6C151.485 265.227 151.016 264.72 150.675 264.08C150.344 263.429 150.179 262.699 150.179 261.888C150.179 261.109 150.349 260.4 150.691 259.76C151.032 259.12 151.507 258.608 152.115 258.224C152.733 257.829 153.448 257.632 154.259 257.632ZM166.236 261.904C166.236 262.715 166.06 263.445 165.708 264.096C165.356 264.736 164.876 265.243 164.268 265.616C163.66 265.979 162.966 266.16 162.188 266.16C161.43 266.16 160.742 265.979 160.124 265.616C159.516 265.243 159.03 264.736 158.668 264.096C158.316 263.445 158.14 262.715 158.14 261.904C158.14 261.083 158.316 260.352 158.668 259.712C159.03 259.072 159.516 258.565 160.124 258.192C160.742 257.819 161.43 257.632 162.188 257.632C162.966 257.632 163.66 257.819 164.268 258.192C164.876 258.565 165.356 259.072 165.708 259.712C166.06 260.352 166.236 261.083 166.236 261.904ZM165.276 261.904C165.276 261.253 165.142 260.677 164.876 260.176C164.609 259.664 164.241 259.264 163.772 258.976C163.313 258.677 162.785 258.528 162.188 258.528C161.612 258.528 161.089 258.677 160.62 258.976C160.15 259.264 159.777 259.664 159.5 260.176C159.233 260.677 159.1 261.253 159.1 261.904C159.1 262.555 159.233 263.131 159.5 263.632C159.777 264.133 160.15 264.533 160.62 264.832C161.089 265.12 161.612 265.264 162.188 265.264C162.785 265.264 163.313 265.12 163.772 264.832C164.241 264.533 164.609 264.133 164.876 263.632C165.142 263.131 165.276 262.555 165.276 261.904ZM161.996 257.056C161.942 257.056 161.884 257.029 161.82 256.976C161.766 256.912 161.74 256.843 161.74 256.768C161.74 256.704 161.766 256.629 161.82 256.544L162.796 255.024C162.849 254.939 162.918 254.859 163.004 254.784C163.1 254.709 163.212 254.672 163.34 254.672C163.5 254.672 163.628 254.715 163.724 254.8C163.82 254.885 163.862 255.008 163.852 255.168C163.852 255.243 163.836 255.312 163.804 255.376C163.782 255.429 163.745 255.483 163.692 255.536L162.492 256.8C162.428 256.875 162.353 256.939 162.268 256.992C162.182 257.035 162.092 257.056 161.996 257.056ZM174.66 254.16C174.799 254.16 174.911 254.208 174.996 254.304C175.092 254.389 175.14 254.501 175.14 254.64L175.14 265.52C175.14 265.648 175.092 265.76 174.996 265.856C174.9 265.952 174.788 266 174.66 266C174.521 266 174.404 265.952 174.308 265.856C174.223 265.76 174.18 265.648 174.18 265.52L174.18 263.616L174.452 263.392C174.452 263.691 174.372 264.005 174.212 264.336C174.052 264.656 173.823 264.955 173.524 265.232C173.236 265.509 172.895 265.733 172.5 265.904C172.116 266.075 171.7 266.16 171.252 266.16C170.537 266.16 169.892 265.973 169.316 265.6C168.751 265.227 168.303 264.72 167.972 264.08C167.641 263.44 167.476 262.709 167.476 261.888C167.476 261.077 167.641 260.352 167.972 259.712C168.303 259.061 168.751 258.555 169.316 258.192C169.881 257.819 170.521 257.632 171.236 257.632C171.673 257.632 172.089 257.712 172.484 257.872C172.879 258.032 173.225 258.251 173.524 258.528C173.833 258.805 174.073 259.125 174.244 259.488C174.425 259.84 174.516 260.208 174.516 260.592L174.18 260.352L174.18 254.64C174.18 254.512 174.223 254.4 174.308 254.304C174.404 254.208 174.521 254.16 174.66 254.16ZM171.332 265.264C171.908 265.264 172.409 265.12 172.836 264.832C173.273 264.533 173.615 264.133 173.86 263.632C174.116 263.12 174.244 262.539 174.244 261.888C174.244 261.248 174.116 260.677 173.86 260.176C173.615 259.664 173.273 259.264 172.836 258.976C172.399 258.677 171.897 258.528 171.332 258.528C170.777 258.528 170.276 258.677 169.828 258.976C169.391 259.264 169.044 259.664 168.788 260.176C168.543 260.677 168.42 261.248 168.42 261.888C168.42 262.528 168.543 263.104 168.788 263.616C169.044 264.128 169.391 264.533 169.828 264.832C170.276 265.12 170.777 265.264 171.332 265.264ZM178.267 265.52C178.267 265.648 178.219 265.76 178.123 265.856C178.027 265.952 177.915 266 177.787 266C177.648 266 177.531 265.952 177.435 265.856C177.35 265.76 177.307 265.648 177.307 265.52L177.307 258.16C177.307 258.032 177.35 257.92 177.435 257.824C177.531 257.728 177.648 257.68 177.787 257.68C177.926 257.68 178.038 257.728 178.123 257.824C178.219 257.92 178.267 258.032 178.267 258.16L178.267 265.52ZM177.787 256.608C177.563 256.608 177.392 256.56 177.275 256.464C177.168 256.357 177.115 256.208 177.115 256.016L177.115 255.856C177.115 255.664 177.174 255.52 177.291 255.424C177.419 255.317 177.59 255.264 177.803 255.264C178.006 255.264 178.16 255.317 178.267 255.424C178.384 255.52 178.443 255.664 178.443 255.856L178.443 256.016C178.443 256.208 178.384 256.357 178.267 256.464C178.16 256.56 178 256.608 177.787 256.608ZM183.849 257.632C184.329 257.632 184.772 257.717 185.177 257.888C185.582 258.048 185.934 258.261 186.233 258.528C186.542 258.784 186.782 259.061 186.953 259.36C187.124 259.648 187.209 259.925 187.209 260.192L186.937 259.808L186.937 258.32C186.937 258.181 186.98 258.064 187.065 257.968C187.161 257.872 187.278 257.824 187.417 257.824C187.566 257.824 187.684 257.872 187.769 257.968C187.854 258.064 187.897 258.181 187.897 258.32L187.897 265.248C187.897 266.101 187.721 266.821 187.369 267.408C187.017 267.995 186.537 268.437 185.929 268.736C185.332 269.045 184.649 269.2 183.881 269.2C183.508 269.2 183.113 269.152 182.697 269.056C182.292 268.96 181.94 268.837 181.641 268.688C181.353 268.539 181.193 268.384 181.161 268.224C181.076 268.128 181.033 268.032 181.033 267.936C181.044 267.851 181.092 267.776 181.177 267.712C181.284 267.637 181.396 267.627 181.513 267.68C181.63 267.744 181.806 267.824 182.041 267.92C182.148 267.952 182.292 268 182.473 268.064C182.654 268.128 182.868 268.181 183.113 268.224C183.369 268.277 183.636 268.304 183.913 268.304C184.873 268.304 185.614 268.027 186.137 267.472C186.67 266.928 186.937 266.208 186.937 265.312L186.937 263.776L187.113 263.824C187.017 264.208 186.857 264.544 186.633 264.832C186.42 265.12 186.164 265.365 185.865 265.568C185.566 265.76 185.241 265.904 184.889 266C184.548 266.107 184.206 266.16 183.865 266.16C183.129 266.16 182.468 265.973 181.881 265.6C181.294 265.227 180.825 264.72 180.473 264.08C180.132 263.44 179.961 262.709 179.961 261.888C179.961 261.077 180.132 260.352 180.473 259.712C180.825 259.061 181.289 258.555 181.865 258.192C182.452 257.819 183.113 257.632 183.849 257.632ZM183.961 258.528C183.374 258.528 182.846 258.677 182.377 258.976C181.918 259.264 181.556 259.664 181.289 260.176C181.033 260.677 180.905 261.248 180.905 261.888C180.905 262.528 181.033 263.104 181.289 263.616C181.556 264.128 181.918 264.533 182.377 264.832C182.846 265.12 183.374 265.264 183.961 265.264C184.548 265.264 185.07 265.12 185.529 264.832C185.988 264.544 186.35 264.149 186.617 263.648C186.884 263.136 187.017 262.549 187.017 261.888C187.017 261.227 186.884 260.645 186.617 260.144C186.35 259.632 185.988 259.237 185.529 258.96C185.07 258.672 184.548 258.528 183.961 258.528ZM197.409 261.904C197.409 262.715 197.233 263.445 196.881 264.096C196.529 264.736 196.049 265.243 195.441 265.616C194.833 265.979 194.14 266.16 193.361 266.16C192.604 266.16 191.916 265.979 191.297 265.616C190.689 265.243 190.204 264.736 189.841 264.096C189.489 263.445 189.313 262.715 189.313 261.904C189.313 261.083 189.489 260.352 189.841 259.712C190.204 259.072 190.689 258.565 191.297 258.192C191.916 257.819 192.604 257.632 193.361 257.632C194.14 257.632 194.833 257.819 195.441 258.192C196.049 258.565 196.529 259.072 196.881 259.712C197.233 260.352 197.409 261.083 197.409 261.904ZM196.449 261.904C196.449 261.253 196.316 260.677 196.049 260.176C195.782 259.664 195.414 259.264 194.945 258.976C194.486 258.677 193.958 258.528 193.361 258.528C192.785 258.528 192.262 258.677 191.793 258.976C191.324 259.264 190.95 259.664 190.673 260.176C190.406 260.677 190.273 261.253 190.273 261.904C190.273 262.555 190.406 263.131 190.673 263.632C190.95 264.133 191.324 264.533 191.793 264.832C192.262 265.12 192.785 265.264 193.361 265.264C193.958 265.264 194.486 265.12 194.945 264.832C195.414 264.533 195.782 264.133 196.049 263.632C196.316 263.131 196.449 262.555 196.449 261.904ZM198.665 264.704C198.58 264.576 198.537 264.453 198.537 264.336C198.548 264.208 198.617 264.107 198.745 264.032C198.83 263.957 198.926 263.925 199.033 263.936C199.15 263.947 199.257 264 199.353 264.096C199.641 264.469 199.988 264.773 200.393 265.008C200.809 265.232 201.3 265.344 201.865 265.344C202.164 265.344 202.457 265.296 202.745 265.2C203.044 265.093 203.289 264.939 203.481 264.736C203.673 264.523 203.769 264.256 203.769 263.936C203.769 263.605 203.673 263.339 203.481 263.136C203.289 262.933 203.038 262.773 202.729 262.656C202.43 262.539 202.11 262.437 201.769 262.352C201.406 262.256 201.054 262.149 200.713 262.032C200.372 261.904 200.068 261.749 199.801 261.568C199.545 261.376 199.337 261.147 199.177 260.88C199.017 260.613 198.937 260.288 198.937 259.904C198.937 259.456 199.06 259.061 199.305 258.72C199.55 258.379 199.881 258.112 200.297 257.92C200.724 257.728 201.204 257.632 201.737 257.632C202.004 257.632 202.292 257.669 202.601 257.744C202.91 257.808 203.214 257.92 203.513 258.08C203.812 258.24 204.078 258.459 204.313 258.736C204.409 258.832 204.457 258.944 204.457 259.072C204.457 259.189 204.404 259.296 204.297 259.392C204.212 259.456 204.11 259.488 203.993 259.488C203.886 259.488 203.796 259.445 203.721 259.36C203.465 259.072 203.161 258.853 202.809 258.704C202.457 258.555 202.078 258.48 201.673 258.48C201.364 258.48 201.07 258.533 200.793 258.64C200.526 258.736 200.302 258.885 200.121 259.088C199.94 259.291 199.849 259.557 199.849 259.888C199.87 260.197 199.977 260.448 200.169 260.64C200.372 260.832 200.633 260.992 200.953 261.12C201.284 261.248 201.652 261.365 202.057 261.472C202.398 261.557 202.724 261.659 203.033 261.776C203.353 261.893 203.63 262.043 203.865 262.224C204.11 262.395 204.302 262.613 204.441 262.88C204.59 263.147 204.665 263.483 204.665 263.888C204.665 264.357 204.532 264.763 204.265 265.104C204.009 265.445 203.662 265.707 203.225 265.888C202.788 266.069 202.302 266.16 201.769 266.16C201.193 266.16 200.633 266.048 200.089 265.824C199.556 265.6 199.081 265.227 198.665 264.704ZM213.964 257.632C214.476 257.632 214.945 257.691 215.372 257.808C215.799 257.915 216.14 258.064 216.396 258.256C216.663 258.448 216.796 258.656 216.796 258.88C216.796 258.987 216.759 259.093 216.684 259.2C216.609 259.296 216.508 259.344 216.38 259.344C216.252 259.344 216.145 259.312 216.06 259.248C215.985 259.184 215.905 259.109 215.82 259.024C215.745 258.939 215.633 258.859 215.484 258.784C215.345 258.72 215.148 258.661 214.892 258.608C214.636 258.555 214.343 258.528 214.012 258.528C213.415 258.528 212.876 258.677 212.396 258.976C211.916 259.275 211.537 259.68 211.26 260.192C210.983 260.693 210.844 261.259 210.844 261.888C210.844 262.528 210.977 263.104 211.244 263.616C211.511 264.128 211.879 264.533 212.348 264.832C212.817 265.12 213.367 265.264 213.996 265.264C214.423 265.264 214.753 265.227 214.988 265.152C215.223 265.077 215.425 264.992 215.596 264.896C215.799 264.779 215.943 264.667 216.028 264.56C216.124 264.443 216.247 264.384 216.396 264.384C216.535 264.384 216.636 264.427 216.7 264.512C216.775 264.587 216.812 264.688 216.812 264.816C216.812 264.987 216.684 265.179 216.428 265.392C216.183 265.595 215.841 265.776 215.404 265.936C214.967 266.085 214.465 266.16 213.9 266.16C213.1 266.16 212.396 265.973 211.788 265.6C211.191 265.227 210.721 264.72 210.38 264.08C210.049 263.429 209.884 262.699 209.884 261.888C209.884 261.109 210.055 260.4 210.396 259.76C210.737 259.12 211.212 258.608 211.82 258.224C212.439 257.829 213.153 257.632 213.964 257.632ZM225.941 261.904C225.941 262.715 225.765 263.445 225.413 264.096C225.061 264.736 224.581 265.243 223.973 265.616C223.365 265.979 222.672 266.16 221.893 266.16C221.136 266.16 220.448 265.979 219.829 265.616C219.221 265.243 218.736 264.736 218.373 264.096C218.021 263.445 217.845 262.715 217.845 261.904C217.845 261.083 218.021 260.352 218.373 259.712C218.736 259.072 219.221 258.565 219.829 258.192C220.448 257.819 221.136 257.632 221.893 257.632C222.672 257.632 223.365 257.819 223.973 258.192C224.581 258.565 225.061 259.072 225.413 259.712C225.765 260.352 225.941 261.083 225.941 261.904ZM224.981 261.904C224.981 261.253 224.848 260.677 224.581 260.176C224.315 259.664 223.947 259.264 223.477 258.976C223.019 258.677 222.491 258.528 221.893 258.528C221.317 258.528 220.795 258.677 220.325 258.976C219.856 259.264 219.483 259.664 219.205 260.176C218.939 260.677 218.805 261.253 218.805 261.904C218.805 262.555 218.939 263.131 219.205 263.632C219.483 264.133 219.856 264.533 220.325 264.832C220.795 265.12 221.317 265.264 221.893 265.264C222.491 265.264 223.019 265.12 223.477 264.832C223.947 264.533 224.315 264.133 224.581 263.632C224.848 263.131 224.981 262.555 224.981 261.904ZM231.342 257.76C232.003 257.76 232.568 257.936 233.038 258.288C233.507 258.629 233.827 259.141 233.998 259.824L233.774 259.888L233.87 259.6C234.008 259.28 234.238 258.981 234.558 258.704C234.888 258.416 235.262 258.187 235.678 258.016C236.094 257.845 236.515 257.76 236.942 257.76C237.614 257.76 238.152 257.904 238.558 258.192C238.974 258.48 239.272 258.869 239.454 259.36C239.646 259.84 239.742 260.384 239.742 260.992L239.742 265.52C239.742 265.648 239.694 265.76 239.598 265.856C239.512 265.952 239.4 266 239.262 266C239.123 266 239.006 265.952 238.91 265.856C238.824 265.76 238.782 265.648 238.782 265.52L238.782 261.04C238.782 260.603 238.712 260.203 238.574 259.84C238.435 259.477 238.216 259.189 237.918 258.976C237.619 258.763 237.219 258.656 236.718 258.656C236.28 258.656 235.859 258.763 235.454 258.976C235.059 259.189 234.734 259.477 234.478 259.84C234.232 260.203 234.11 260.603 234.11 261.04L234.11 265.52C234.11 265.648 234.062 265.76 233.966 265.856C233.88 265.952 233.768 266 233.63 266C233.491 266 233.374 265.952 233.278 265.856C233.192 265.76 233.15 265.648 233.15 265.52L233.15 260.992C233.15 260.555 233.086 260.16 232.958 259.808C232.83 259.456 232.622 259.179 232.334 258.976C232.046 258.763 231.656 258.656 231.166 258.656C230.728 258.656 230.312 258.763 229.918 258.976C229.534 259.179 229.219 259.456 228.974 259.808C228.739 260.16 228.622 260.555 228.622 260.992L228.622 265.52C228.622 265.648 228.574 265.76 228.478 265.856C228.382 265.952 228.27 266 228.142 266C227.992 266 227.875 265.952 227.79 265.856C227.704 265.76 227.662 265.648 227.662 265.52L227.662 258.352C227.662 258.224 227.704 258.112 227.79 258.016C227.886 257.92 228.003 257.872 228.142 257.872C228.28 257.872 228.392 257.92 228.478 258.016C228.574 258.112 228.622 258.224 228.622 258.352L228.622 259.84L228.19 260.432C228.222 260.112 228.323 259.792 228.494 259.472C228.675 259.152 228.91 258.864 229.198 258.608C229.486 258.352 229.811 258.149 230.174 258C230.547 257.84 230.936 257.76 231.342 257.76ZM70.6001 274.784C70.7495 274.784 70.8668 274.827 70.9521 274.912C71.0481 274.997 71.0961 275.104 71.0961 275.232C71.0961 275.307 71.0801 275.387 71.0481 275.472L66.7761 285.68C66.7228 285.787 66.6535 285.867 66.5681 285.92C66.4828 285.973 66.3975 286 66.3121 286C66.2161 286 66.1255 285.973 66.0401 285.92C65.9548 285.867 65.8961 285.792 65.8641 285.696L61.6081 275.504C61.5975 275.472 61.5868 275.435 61.5761 275.392C61.5655 275.349 61.5601 275.301 61.5601 275.248C61.5601 275.109 61.6081 274.997 61.7041 274.912C61.8108 274.827 61.9175 274.784 62.0241 274.784C62.2481 274.784 62.4081 274.901 62.5041 275.136L66.5041 284.704L66.2161 284.704L70.1521 275.104C70.2588 274.891 70.4081 274.784 70.6001 274.784ZM73.5127 285.52C73.5127 285.648 73.4647 285.76 73.3687 285.856C73.2727 285.952 73.1607 286 73.0327 286C72.8941 286 72.7767 285.952 72.6807 285.856C72.5954 285.76 72.5527 285.648 72.5527 285.52L72.5527 278.16C72.5527 278.032 72.5954 277.92 72.6807 277.824C72.7767 277.728 72.8941 277.68 73.0327 277.68C73.1714 277.68 73.2834 277.728 73.3687 277.824C73.4647 277.92 73.5127 278.032 73.5127 278.16L73.5127 285.52ZM73.0327 276.608C72.8087 276.608 72.6381 276.56 72.5207 276.464C72.4141 276.357 72.3607 276.208 72.3607 276.016L72.3607 275.856C72.3607 275.664 72.4194 275.52 72.5367 275.424C72.6647 275.317 72.8354 275.264 73.0487 275.264C73.2514 275.264 73.4061 275.317 73.5127 275.424C73.6301 275.52 73.6887 275.664 73.6887 275.856L73.6887 276.016C73.6887 276.208 73.6301 276.357 73.5127 276.464C73.4061 276.56 73.2461 276.608 73.0327 276.608ZM75.2226 284.704C75.1373 284.576 75.0946 284.453 75.0946 284.336C75.1053 284.208 75.1746 284.107 75.3026 284.032C75.388 283.957 75.484 283.925 75.5906 283.936C75.708 283.947 75.8146 284 75.9106 284.096C76.1986 284.469 76.5453 284.773 76.9506 285.008C77.3666 285.232 77.8573 285.344 78.4226 285.344C78.7213 285.344 79.0146 285.296 79.3026 285.2C79.6013 285.093 79.8466 284.939 80.0386 284.736C80.2306 284.523 80.3266 284.256 80.3266 283.936C80.3266 283.605 80.2306 283.339 80.0386 283.136C79.8466 282.933 79.596 282.773 79.2866 282.656C78.988 282.539 78.668 282.437 78.3266 282.352C77.964 282.256 77.612 282.149 77.2706 282.032C76.9293 281.904 76.6253 281.749 76.3586 281.568C76.1026 281.376 75.8946 281.147 75.7346 280.88C75.5746 280.613 75.4946 280.288 75.4946 279.904C75.4946 279.456 75.6173 279.061 75.8626 278.72C76.108 278.379 76.4386 278.112 76.8546 277.92C77.2813 277.728 77.7613 277.632 78.2946 277.632C78.5613 277.632 78.8493 277.669 79.1586 277.744C79.468 277.808 79.772 277.92 80.0706 278.08C80.3693 278.24 80.636 278.459 80.8706 278.736C80.9666 278.832 81.0146 278.944 81.0146 279.072C81.0146 279.189 80.9613 279.296 80.8546 279.392C80.7693 279.456 80.668 279.488 80.5506 279.488C80.444 279.488 80.3533 279.445 80.2786 279.36C80.0226 279.072 79.7186 278.853 79.3666 278.704C79.0146 278.555 78.636 278.48 78.2306 278.48C77.9213 278.48 77.628 278.533 77.3506 278.64C77.084 278.736 76.86 278.885 76.6786 279.088C76.4973 279.291 76.4066 279.557 76.4066 279.888C76.428 280.197 76.5346 280.448 76.7266 280.64C76.9293 280.832 77.1906 280.992 77.5106 281.12C77.8413 281.248 78.2093 281.365 78.6146 281.472C78.956 281.557 79.2813 281.659 79.5906 281.776C79.9106 281.893 80.188 282.043 80.4226 282.224C80.668 282.395 80.86 282.613 80.9986 282.88C81.148 283.147 81.2226 283.483 81.2226 283.888C81.2226 284.357 81.0893 284.763 80.8226 285.104C80.5666 285.445 80.22 285.707 79.7826 285.888C79.3453 286.069 78.86 286.16 78.3266 286.16C77.7506 286.16 77.1906 286.048 76.6466 285.824C76.1133 285.6 75.6386 285.227 75.2226 284.704ZM88.9786 277.872C89.1173 277.872 89.2293 277.92 89.3146 278.016C89.4106 278.112 89.4586 278.224 89.4586 278.352L89.4586 282.864C89.4586 283.92 89.16 284.725 88.5626 285.28C87.9653 285.835 87.16 286.112 86.1466 286.112C85.144 286.112 84.344 285.835 83.7466 285.28C83.16 284.725 82.8666 283.92 82.8666 282.864L82.8666 278.352C82.8666 278.224 82.9093 278.112 82.9946 278.016C83.0906 277.92 83.208 277.872 83.3466 277.872C83.4853 277.872 83.5973 277.92 83.6826 278.016C83.7786 278.112 83.8266 278.224 83.8266 278.352L83.8266 282.864C83.8266 283.632 84.0293 284.219 84.4346 284.624C84.8506 285.019 85.4213 285.216 86.1466 285.216C86.8826 285.216 87.4586 285.019 87.8746 284.624C88.2906 284.219 88.4986 283.632 88.4986 282.864L88.4986 278.352C88.4986 278.224 88.5413 278.112 88.6266 278.016C88.712 277.92 88.8293 277.872 88.9786 277.872ZM98.36 277.824C98.4987 277.824 98.6107 277.872 98.696 277.968C98.792 278.064 98.84 278.181 98.84 278.32L98.84 285.52C98.84 285.648 98.792 285.76 98.696 285.856C98.6 285.952 98.488 286 98.36 286C98.2213 286 98.104 285.952 98.008 285.856C97.9227 285.76 97.88 285.648 97.88 285.52L97.88 283.616L98.152 283.488C98.152 283.787 98.0667 284.091 97.896 284.4C97.736 284.709 97.512 284.997 97.224 285.264C96.936 285.531 96.5947 285.749 96.2 285.92C95.816 286.08 95.4 286.16 94.952 286.16C94.2267 286.16 93.576 285.973 93 285.6C92.4347 285.227 91.9867 284.715 91.656 284.064C91.336 283.413 91.176 282.683 91.176 281.872C91.176 281.04 91.3413 280.309 91.672 279.68C92.0027 279.04 92.4507 278.539 93.016 278.176C93.5813 277.813 94.2213 277.632 94.936 277.632C95.3947 277.632 95.8213 277.712 96.216 277.872C96.6213 278.032 96.9733 278.251 97.272 278.528C97.5707 278.805 97.8 279.125 97.96 279.488C98.1307 279.84 98.216 280.208 98.216 280.592L97.88 280.352L97.88 278.32C97.88 278.181 97.9227 278.064 98.008 277.968C98.104 277.872 98.2213 277.824 98.36 277.824ZM95.032 285.264C95.5973 285.264 96.0987 285.12 96.536 284.832C96.9733 284.533 97.3147 284.128 97.56 283.616C97.816 283.093 97.944 282.512 97.944 281.872C97.944 281.243 97.816 280.677 97.56 280.176C97.3147 279.675 96.9733 279.275 96.536 278.976C96.0987 278.677 95.5973 278.528 95.032 278.528C94.4773 278.528 93.976 278.672 93.528 278.96C93.0907 279.248 92.744 279.643 92.488 280.144C92.2427 280.645 92.12 281.221 92.12 281.872C92.12 282.512 92.2427 283.093 92.488 283.616C92.744 284.128 93.0907 284.533 93.528 284.832C93.9653 285.12 94.4667 285.264 95.032 285.264ZM102.095 285.52C102.095 285.648 102.047 285.76 101.951 285.856C101.855 285.952 101.743 286 101.615 286C101.476 286 101.359 285.952 101.263 285.856C101.178 285.76 101.135 285.648 101.135 285.52L101.135 274.64C101.135 274.512 101.183 274.4 101.279 274.304C101.375 274.208 101.487 274.16 101.615 274.16C101.754 274.16 101.866 274.208 101.951 274.304C102.047 274.4 102.095 274.512 102.095 274.64L102.095 285.52ZM111.79 286.16C110.979 286.171 110.275 286.043 109.678 285.776C109.08 285.509 108.51 285.109 107.966 284.576C107.912 284.533 107.864 284.48 107.822 284.416C107.79 284.352 107.774 284.277 107.774 284.192C107.774 284.064 107.822 283.947 107.918 283.84C108.024 283.733 108.142 283.68 108.27 283.68C108.398 283.68 108.515 283.733 108.622 283.84C109.038 284.288 109.507 284.629 110.03 284.864C110.563 285.099 111.134 285.216 111.742 285.216C112.254 285.216 112.707 285.136 113.102 284.976C113.507 284.816 113.827 284.587 114.062 284.288C114.296 283.989 114.414 283.643 114.414 283.248C114.414 282.757 114.28 282.363 114.014 282.064C113.747 281.755 113.395 281.504 112.958 281.312C112.52 281.109 112.035 280.928 111.502 280.768C111.064 280.64 110.648 280.496 110.254 280.336C109.859 280.165 109.507 279.963 109.198 279.728C108.888 279.483 108.648 279.184 108.478 278.832C108.307 278.48 108.222 278.053 108.222 277.552C108.222 276.987 108.371 276.485 108.67 276.048C108.968 275.611 109.39 275.269 109.934 275.024C110.488 274.768 111.128 274.64 111.854 274.64C112.483 274.64 113.086 274.747 113.662 274.96C114.248 275.173 114.712 275.488 115.054 275.904C115.214 276.075 115.294 276.229 115.294 276.368C115.294 276.475 115.24 276.581 115.134 276.688C115.027 276.795 114.91 276.848 114.782 276.848C114.675 276.848 114.584 276.811 114.51 276.736C114.328 276.512 114.099 276.315 113.822 276.144C113.544 275.963 113.235 275.824 112.894 275.728C112.563 275.632 112.216 275.584 111.854 275.584C111.352 275.584 110.899 275.664 110.494 275.824C110.099 275.973 109.784 276.192 109.55 276.48C109.326 276.768 109.214 277.115 109.214 277.52C109.214 277.968 109.342 278.336 109.598 278.624C109.854 278.912 110.19 279.152 110.606 279.344C111.022 279.525 111.464 279.696 111.934 279.856C112.392 279.984 112.83 280.133 113.246 280.304C113.672 280.464 114.046 280.667 114.366 280.912C114.696 281.157 114.952 281.467 115.134 281.84C115.326 282.213 115.422 282.683 115.422 283.248C115.422 283.792 115.267 284.283 114.958 284.72C114.648 285.157 114.222 285.504 113.678 285.76C113.144 286.016 112.515 286.149 111.79 286.16ZM116.598 277.856L120.326 277.856C120.454 277.856 120.561 277.904 120.646 278C120.731 278.085 120.774 278.192 120.774 278.32C120.774 278.437 120.731 278.539 120.646 278.624C120.561 278.709 120.454 278.752 120.326 278.752L116.598 278.752C116.47 278.752 116.358 278.709 116.262 278.624C116.177 278.528 116.134 278.421 116.134 278.304C116.134 278.176 116.177 278.069 116.262 277.984C116.358 277.899 116.47 277.856 116.598 277.856ZM118.246 275.6C118.385 275.6 118.497 275.648 118.582 275.744C118.678 275.84 118.726 275.952 118.726 276.08L118.726 284.112C118.726 284.411 118.763 284.635 118.838 284.784C118.923 284.933 119.03 285.035 119.158 285.088C119.286 285.131 119.414 285.152 119.542 285.152C119.627 285.152 119.702 285.141 119.766 285.12C119.841 285.088 119.921 285.072 120.006 285.072C120.102 285.072 120.182 285.109 120.246 285.184C120.321 285.259 120.358 285.355 120.358 285.472C120.358 285.621 120.273 285.749 120.102 285.856C119.931 285.952 119.729 286 119.494 286C119.398 286 119.254 285.995 119.062 285.984C118.87 285.963 118.673 285.904 118.47 285.808C118.267 285.701 118.097 285.52 117.958 285.264C117.83 285.008 117.766 284.64 117.766 284.16L117.766 276.08C117.766 275.952 117.809 275.84 117.894 275.744C117.99 275.648 118.107 275.6 118.246 275.6ZM128.34 277.872C128.479 277.872 128.591 277.92 128.676 278.016C128.772 278.112 128.82 278.224 128.82 278.352L128.82 282.864C128.82 283.92 128.521 284.725 127.924 285.28C127.327 285.835 126.521 286.112 125.508 286.112C124.505 286.112 123.705 285.835 123.108 285.28C122.521 284.725 122.228 283.92 122.228 282.864L122.228 278.352C122.228 278.224 122.271 278.112 122.356 278.016C122.452 277.92 122.569 277.872 122.708 277.872C122.847 277.872 122.959 277.92 123.044 278.016C123.14 278.112 123.188 278.224 123.188 278.352L123.188 282.864C123.188 283.632 123.391 284.219 123.796 284.624C124.212 285.019 124.783 285.216 125.508 285.216C126.244 285.216 126.82 285.019 127.236 284.624C127.652 284.219 127.86 283.632 127.86 282.864L127.86 278.352C127.86 278.224 127.903 278.112 127.988 278.016C128.073 277.92 128.191 277.872 128.34 277.872ZM137.721 274.16C137.86 274.16 137.972 274.208 138.057 274.304C138.153 274.389 138.201 274.501 138.201 274.64L138.201 285.52C138.201 285.648 138.153 285.76 138.057 285.856C137.961 285.952 137.849 286 137.721 286C137.583 286 137.465 285.952 137.369 285.856C137.284 285.76 137.241 285.648 137.241 285.52L137.241 283.616L137.513 283.392C137.513 283.691 137.433 284.005 137.273 284.336C137.113 284.656 136.884 284.955 136.585 285.232C136.297 285.509 135.956 285.733 135.561 285.904C135.177 286.075 134.761 286.16 134.313 286.16C133.599 286.16 132.953 285.973 132.377 285.6C131.812 285.227 131.364 284.72 131.033 284.08C130.703 283.44 130.537 282.709 130.537 281.888C130.537 281.077 130.703 280.352 131.033 279.712C131.364 279.061 131.812 278.555 132.377 278.192C132.943 277.819 133.583 277.632 134.297 277.632C134.735 277.632 135.151 277.712 135.545 277.872C135.94 278.032 136.287 278.251 136.585 278.528C136.895 278.805 137.135 279.125 137.305 279.488C137.487 279.84 137.577 280.208 137.577 280.592L137.241 280.352L137.241 274.64C137.241 274.512 137.284 274.4 137.369 274.304C137.465 274.208 137.583 274.16 137.721 274.16ZM134.393 285.264C134.969 285.264 135.471 285.12 135.897 284.832C136.335 284.533 136.676 284.133 136.921 283.632C137.177 283.12 137.305 282.539 137.305 281.888C137.305 281.248 137.177 280.677 136.921 280.176C136.676 279.664 136.335 279.264 135.897 278.976C135.46 278.677 134.959 278.528 134.393 278.528C133.839 278.528 133.337 278.677 132.889 278.976C132.452 279.264 132.105 279.664 131.849 280.176C131.604 280.677 131.481 281.248 131.481 281.888C131.481 282.528 131.604 283.104 131.849 283.616C132.105 284.128 132.452 284.533 132.889 284.832C133.337 285.12 133.839 285.264 134.393 285.264ZM141.328 285.52C141.328 285.648 141.28 285.76 141.184 285.856C141.088 285.952 140.976 286 140.848 286C140.71 286 140.592 285.952 140.496 285.856C140.411 285.76 140.368 285.648 140.368 285.52L140.368 278.16C140.368 278.032 140.411 277.92 140.496 277.824C140.592 277.728 140.71 277.68 140.848 277.68C140.987 277.68 141.099 277.728 141.184 277.824C141.28 277.92 141.328 278.032 141.328 278.16L141.328 285.52ZM140.848 276.608C140.624 276.608 140.454 276.56 140.336 276.464C140.23 276.357 140.176 276.208 140.176 276.016L140.176 275.856C140.176 275.664 140.235 275.52 140.352 275.424C140.48 275.317 140.651 275.264 140.864 275.264C141.067 275.264 141.222 275.317 141.328 275.424C141.446 275.52 141.504 275.664 141.504 275.856L141.504 276.016C141.504 276.208 141.446 276.357 141.328 276.464C141.222 276.56 141.062 276.608 140.848 276.608ZM151.118 281.904C151.118 282.715 150.942 283.445 150.59 284.096C150.238 284.736 149.758 285.243 149.15 285.616C148.542 285.979 147.849 286.16 147.07 286.16C146.313 286.16 145.625 285.979 145.006 285.616C144.398 285.243 143.913 284.736 143.55 284.096C143.198 283.445 143.022 282.715 143.022 281.904C143.022 281.083 143.198 280.352 143.55 279.712C143.913 279.072 144.398 278.565 145.006 278.192C145.625 277.819 146.313 277.632 147.07 277.632C147.849 277.632 148.542 277.819 149.15 278.192C149.758 278.565 150.238 279.072 150.59 279.712C150.942 280.352 151.118 281.083 151.118 281.904ZM150.158 281.904C150.158 281.253 150.025 280.677 149.758 280.176C149.492 279.664 149.124 279.264 148.654 278.976C148.196 278.677 147.668 278.528 147.07 278.528C146.494 278.528 145.972 278.677 145.502 278.976C145.033 279.264 144.66 279.664 144.382 280.176C144.116 280.677 143.982 281.253 143.982 281.904C143.982 282.555 144.116 283.131 144.382 283.632C144.66 284.133 145.033 284.533 145.502 284.832C145.972 285.12 146.494 285.264 147.07 285.264C147.668 285.264 148.196 285.12 148.654 284.832C149.124 284.533 149.492 284.133 149.758 283.632C150.025 283.131 150.158 282.555 150.158 281.904ZM165.309 275.632C165.437 275.717 165.512 275.829 165.533 275.968C165.555 276.096 165.523 276.224 165.437 276.352C165.363 276.448 165.267 276.501 165.149 276.512C165.032 276.523 164.92 276.501 164.813 276.448C164.408 276.181 163.971 275.973 163.501 275.824C163.043 275.675 162.547 275.6 162.013 275.6C161.363 275.6 160.755 275.717 160.189 275.952C159.635 276.176 159.149 276.507 158.733 276.944C158.317 277.371 157.992 277.877 157.757 278.464C157.533 279.051 157.421 279.696 157.421 280.4C157.421 281.125 157.539 281.787 157.773 282.384C158.008 282.971 158.333 283.477 158.749 283.904C159.176 284.331 159.667 284.656 160.221 284.88C160.776 285.104 161.373 285.216 162.013 285.216C162.536 285.216 163.027 285.141 163.485 284.992C163.955 284.843 164.392 284.64 164.797 284.384C164.904 284.32 165.016 284.299 165.133 284.32C165.261 284.331 165.363 284.389 165.437 284.496C165.533 284.613 165.565 284.741 165.533 284.88C165.512 285.008 165.443 285.109 165.325 285.184C165.059 285.355 164.744 285.515 164.381 285.664C164.019 285.813 163.635 285.931 163.229 286.016C162.824 286.112 162.419 286.16 162.013 286.16C161.245 286.16 160.525 286.021 159.853 285.744C159.181 285.467 158.584 285.077 158.061 284.576C157.539 284.064 157.128 283.456 156.829 282.752C156.541 282.048 156.397 281.264 156.397 280.4C156.397 279.568 156.541 278.805 156.829 278.112C157.117 277.408 157.517 276.8 158.029 276.288C158.541 275.776 159.139 275.376 159.821 275.088C160.504 274.8 161.235 274.656 162.013 274.656C162.621 274.656 163.208 274.741 163.773 274.912C164.339 275.083 164.851 275.323 165.309 275.632ZM174.643 281.904C174.643 282.715 174.467 283.445 174.115 284.096C173.763 284.736 173.283 285.243 172.675 285.616C172.067 285.979 171.373 286.16 170.595 286.16C169.837 286.16 169.149 285.979 168.531 285.616C167.923 285.243 167.437 284.736 167.075 284.096C166.723 283.445 166.547 282.715 166.547 281.904C166.547 281.083 166.723 280.352 167.075 279.712C167.437 279.072 167.923 278.565 168.531 278.192C169.149 277.819 169.837 277.632 170.595 277.632C171.373 277.632 172.067 277.819 172.675 278.192C173.283 278.565 173.763 279.072 174.115 279.712C174.467 280.352 174.643 281.083 174.643 281.904ZM173.683 281.904C173.683 281.253 173.549 280.677 173.283 280.176C173.016 279.664 172.648 279.264 172.179 278.976C171.72 278.677 171.192 278.528 170.595 278.528C170.019 278.528 169.496 278.677 169.027 278.976C168.557 279.264 168.184 279.664 167.907 280.176C167.64 280.677 167.507 281.253 167.507 281.904C167.507 282.555 167.64 283.131 167.907 283.632C168.184 284.133 168.557 284.533 169.027 284.832C169.496 285.12 170.019 285.264 170.595 285.264C171.192 285.264 171.72 285.12 172.179 284.832C172.648 284.533 173.016 284.133 173.283 283.632C173.549 283.131 173.683 282.555 173.683 281.904ZM183.067 274.16C183.206 274.16 183.318 274.208 183.403 274.304C183.499 274.389 183.547 274.501 183.547 274.64L183.547 285.52C183.547 285.648 183.499 285.76 183.403 285.856C183.307 285.952 183.195 286 183.067 286C182.928 286 182.811 285.952 182.715 285.856C182.63 285.76 182.587 285.648 182.587 285.52L182.587 283.616L182.859 283.392C182.859 283.691 182.779 284.005 182.619 284.336C182.459 284.656 182.23 284.955 181.931 285.232C181.643 285.509 181.302 285.733 180.907 285.904C180.523 286.075 180.107 286.16 179.659 286.16C178.944 286.16 178.299 285.973 177.723 285.6C177.158 285.227 176.71 284.72 176.379 284.08C176.048 283.44 175.883 282.709 175.883 281.888C175.883 281.077 176.048 280.352 176.379 279.712C176.71 279.061 177.158 278.555 177.723 278.192C178.288 277.819 178.928 277.632 179.643 277.632C180.08 277.632 180.496 277.712 180.891 277.872C181.286 278.032 181.632 278.251 181.931 278.528C182.24 278.805 182.48 279.125 182.651 279.488C182.832 279.84 182.923 280.208 182.923 280.592L182.587 280.352L182.587 274.64C182.587 274.512 182.63 274.4 182.715 274.304C182.811 274.208 182.928 274.16 183.067 274.16ZM179.739 285.264C180.315 285.264 180.816 285.12 181.243 284.832C181.68 284.533 182.022 284.133 182.267 283.632C182.523 283.12 182.651 282.539 182.651 281.888C182.651 281.248 182.523 280.677 182.267 280.176C182.022 279.664 181.68 279.264 181.243 278.976C180.806 278.677 180.304 278.528 179.739 278.528C179.184 278.528 178.683 278.677 178.235 278.976C177.798 279.264 177.451 279.664 177.195 280.176C176.95 280.677 176.827 281.248 176.827 281.888C176.827 282.528 176.95 283.104 177.195 283.616C177.451 284.128 177.798 284.533 178.235 284.832C178.683 285.12 179.184 285.264 179.739 285.264ZM189.442 286.16C188.621 286.16 187.895 285.984 187.266 285.632C186.637 285.28 186.146 284.789 185.794 284.16C185.442 283.531 185.266 282.795 185.266 281.952C185.266 281.045 185.442 280.272 185.794 279.632C186.157 278.992 186.621 278.501 187.186 278.16C187.762 277.808 188.37 277.632 189.01 277.632C189.479 277.632 189.933 277.717 190.37 277.888C190.818 278.048 191.213 278.293 191.554 278.624C191.906 278.944 192.183 279.339 192.386 279.808C192.599 280.277 192.717 280.821 192.738 281.44C192.727 281.568 192.674 281.68 192.578 281.776C192.482 281.861 192.37 281.904 192.242 281.904L185.826 281.904L185.634 281.04L191.938 281.04L191.73 281.232L191.73 280.912C191.687 280.411 191.527 279.984 191.25 279.632C190.973 279.28 190.637 279.013 190.242 278.832C189.847 278.651 189.437 278.56 189.01 278.56C188.69 278.56 188.359 278.624 188.018 278.752C187.687 278.88 187.383 279.083 187.106 279.36C186.839 279.627 186.621 279.973 186.45 280.4C186.279 280.816 186.194 281.312 186.194 281.888C186.194 282.517 186.322 283.088 186.578 283.6C186.834 284.112 187.202 284.517 187.682 284.816C188.173 285.115 188.754 285.264 189.426 285.264C189.799 285.264 190.135 285.211 190.434 285.104C190.733 284.997 190.994 284.859 191.218 284.688C191.442 284.507 191.629 284.32 191.778 284.128C191.895 284.032 192.013 283.984 192.13 283.984C192.237 283.984 192.327 284.027 192.402 284.112C192.487 284.197 192.53 284.293 192.53 284.4C192.53 284.528 192.477 284.64 192.37 284.736C192.05 285.12 191.634 285.456 191.122 285.744C190.61 286.021 190.05 286.16 189.442 286.16ZM194.601 286C194.42 286 194.281 285.941 194.185 285.824C194.089 285.707 194.041 285.557 194.041 285.376L194.041 285.04C194.041 284.848 194.089 284.699 194.185 284.592C194.281 284.485 194.42 284.432 194.601 284.432L194.713 284.432C194.894 284.432 195.033 284.485 195.129 284.592C195.225 284.699 195.273 284.848 195.273 285.04L195.273 285.376C195.273 285.557 195.225 285.707 195.129 285.824C195.033 285.941 194.894 286 194.713 286L194.601 286Z" fill="#363636"/>
<path d="M70.4001 218L74.4801 218L85.3601 189.08L81.2801 189.08L74.2801 207.52C73.8001 208.8 73.1201 210.72 72.4401 213C71.8401 210.84 71.2801 209.2 70.6401 207.56L63.6001 189.08L59.4001 189.08L70.4001 218ZM88.0817 196.88C88.0817 201.04 90.5217 203.76 95.2417 204.84L100.002 205.92C102.762 206.56 104.002 208 104.002 210.28C104.002 213.16 101.562 214.96 97.7217 214.96C94.0817 214.96 91.7617 213.2 91.6817 210.44L87.6817 210.44C87.9217 215.4 91.8417 218.48 97.7217 218.48C103.882 218.48 107.922 215.16 107.922 209.96C107.922 205.88 105.522 203.32 100.802 202.24L96.0417 201.12C93.3217 200.48 92.0017 199.08 92.0017 196.76C92.0017 193.92 94.3617 192.08 98.0017 192.08C101.242 192.08 103.282 193.76 103.482 196.64L107.442 196.64C107.122 191.64 103.562 188.56 98.0417 188.56C92.0817 188.56 88.0817 191.92 88.0817 196.88ZM125.648 218.44C132.168 218.44 137.328 214.6 138.568 208.84L134.408 208.84C133.328 212.4 129.968 214.68 125.728 214.68C119.888 214.68 116.048 210.28 116.048 203.52C116.048 196.76 119.888 192.36 125.728 192.36C129.928 192.36 133.168 194.64 134.248 198.4L138.448 198.4C137.368 192.48 132.368 188.6 125.848 188.6C117.568 188.6 111.928 194.64 111.928 203.56C111.928 212.52 117.408 218.44 125.648 218.44ZM142.254 208.2C142.254 214.24 146.574 218.48 152.454 218.48C158.294 218.48 162.614 214.24 162.614 208.2C162.614 202.16 158.294 197.92 152.454 197.92C146.574 197.92 142.254 202.16 142.254 208.2ZM146.054 208.2C146.054 204.12 148.654 201.28 152.454 201.28C156.214 201.28 158.854 204.12 158.854 208.2C158.854 212.28 156.214 215.12 152.454 215.12C148.654 215.12 146.054 212.28 146.054 208.2ZM175.416 218.48C178.536 218.48 181.176 217.12 182.456 214.44L182.776 218L186.136 218L186.136 188.56L182.416 188.56L182.416 201.6C181.096 199.2 178.576 197.88 175.576 197.88C169.776 197.88 166.296 202.28 166.296 208.28C166.296 214.24 169.736 218.48 175.416 218.48ZM176.176 215.08C172.336 215.08 170.096 212.2 170.096 208.16C170.096 204.16 172.336 201.28 176.176 201.28C180.016 201.28 182.376 204.16 182.376 208.16C182.376 212.24 180.016 215.08 176.176 215.08ZM200.801 218.48C205.641 218.48 208.921 216.12 209.881 211.92L206.361 211.92C205.721 214.16 203.801 215.36 200.881 215.36C197.161 215.36 195.001 213.08 194.721 208.96L209.841 208.92L209.841 207.52C209.841 201.72 206.201 197.88 200.641 197.88C194.961 197.88 191.081 202.12 191.081 208.24C191.081 214.32 195.041 218.48 200.801 218.48ZM200.641 201.04C203.961 201.04 206.081 203.2 206.081 206.44L194.801 206.44C195.281 203 197.361 201.04 200.641 201.04Z" fill="#3C2A56"/>
<g clip-path="url(#clip0_404_430)">
<path d="M205.297 9.03869e-09L135.703 2.76695e-09C118.746 1.2388e-09 105 13.7463 105 30.7031L105 100.297C105 117.254 118.746 131 135.703 131L205.297 131C222.254 131 236 117.254 236 100.297L236 30.7031C236 13.7463 222.254 1.05668e-08 205.297 9.03869e-09Z" fill="#242938"/>
<path d="M122.253 51.2783C122.253 51.2783 119.83 49.5318 122.738 47.1999L129.511 41.1432C129.511 41.1432 131.449 39.104 133.498 40.8807L196.004 88.2039L196.004 110.897C196.004 110.897 195.974 114.46 191.401 114.066L122.253 51.2783Z" fill="#2489CA"/>
<path d="M138.364 65.9053L122.253 80.5522C122.253 80.5522 120.597 81.7839 122.253 83.9848L129.733 90.7881C129.733 90.7881 131.51 92.6963 134.134 90.5256L151.214 77.5745L138.364 65.9053Z" fill="#1070B3"/>
<path d="M166.649 66.0266L196.196 43.4649L196.004 20.8935C196.004 20.8935 194.742 15.9672 190.533 18.5314L151.214 54.3164L166.649 66.0266Z" fill="#0877B9"/>
<path d="M191.401 114.097C193.117 115.853 195.197 115.278 195.197 115.278L218.222 103.932C221.17 101.923 220.756 99.4295 220.756 99.4295L220.756 31.6744C220.756 28.6962 217.707 27.6671 217.707 27.6671L197.751 18.0468C193.39 15.3516 190.533 18.5314 190.533 18.5314C190.533 18.5314 194.207 15.8868 196.004 20.8935L196.004 110.483C196.007 111.094 195.872 111.698 195.611 112.25C195.086 113.309 193.945 114.299 191.209 113.885L191.401 114.097Z" fill="#3C99D4"/>
</g>
<defs>
<filter id="filter0_d_404_430" x="0.0748291" y="27.9167" width="341" height="360" filterUnits="userSpaceOnUse" color-interpolation-filters="sRGB">
<feFlood flood-opacity="0" result="BackgroundImageFix"/>
<feColorMatrix in="SourceAlpha" type="matrix" values="0 0 0 0 0 0 0 0 0 0 0 0 0 0 0 0 0 0 127 0" result="hardAlpha"/>
<feOffset dy="9"/>
<feGaussianBlur stdDeviation="13.5"/>
<feColorMatrix type="matrix" values="0 0 0 0 0 0 0 0 0 0 0 0 0 0 0 0 0 0 0.1 0"/>
<feBlend mode="normal" in2="BackgroundImageFix" result="effect1_dropShadow_404_430"/>
<feBlend mode="normal" in="SourceGraphic" in2="effect1_dropShadow_404_430" result="shape"/>
</filter>
<clipPath id="clip0_404_430">
<rect width="131" height="131" fill="white" transform="translate(105)"/>
</clipPath>
</defs>
</svg>
